<svg width="57" height="67" viewBox="0 0 57 67" fill="none" xmlns="http://www.w3.org/2000/svg">
<path d="M22.16 28.1399C22.16 24.4442 25.1643 21.4399 28.86 21.4399C32.5557 21.4399 35.56 24.4442 35.56 28.1399C35.56 31.8357 32.5557 34.8399 28.86 34.8399C25.1643 34.8399 22.16 31.8357 22.16 28.1399ZM28.86 37.5199C35.3966 37.5199 40.92 40.5886 40.92 44.2199C40.92 55.1115 36.8598 63.575 35.1687 65.2687C34.0646 66.3701 31.7678 66.9999 28.86 66.9999C25.9522 66.9999 23.6555 66.3701 22.5513 65.2687C20.8602 63.575 16.8 55.1115 16.8 44.2199C16.8 40.5886 22.3235 37.5199 28.86 37.5199Z"/>
<path d="M28.86 0C44.3772 0 57 12.6228 57 28.14C57 37.1206 52.6665 45.619 45.4036 50.8798C44.8114 51.3087 43.9672 51.1854 43.533 50.5796C43.0962 49.9793 43.2328 49.1432 43.8332 48.709C50.3992 43.952 54.32 36.2631 54.32 28.14C54.32 14.1022 42.8978 2.68 28.86 2.68C14.8222 2.68 3.4 14.1022 3.4 28.14C3.4 36.2631 7.32081 43.952 13.8868 48.709C14.4872 49.1432 14.6238 49.9794 14.187 50.5796C13.927 50.9441 13.5143 51.1343 13.1017 51.1343C12.8283 51.1343 12.5523 51.0513 12.3164 50.8797C5.05354 45.6189 0.719997 37.1206 0.719997 28.1399C0.719997 12.6228 13.3428 0 28.86 0Z"/>
<path d="M28.86 10.72C38.4651 10.72 46.28 18.5349 46.28 28.14C46.28 31.9429 45.074 35.5422 42.7906 38.5464C42.5751 38.829 42.2565 39.0147 41.9044 39.0629C41.5524 39.1111 41.1955 39.0179 40.912 38.8037C40.3224 38.3562 40.2072 37.512 40.6547 36.9223C42.5817 34.3897 43.6001 31.3506 43.6001 28.14C43.6001 20.0143 36.9858 13.4 28.8601 13.4C20.7344 13.4 14.1201 20.0143 14.1201 28.14C14.1201 31.3506 15.1385 34.3897 17.0655 36.9223C17.5131 37.512 17.3979 38.3562 16.8082 38.8037C16.5741 38.9796 16.2891 39.0746 15.9963 39.0743C15.5943 39.0743 15.1923 38.892 14.9296 38.5463C12.6463 35.542 11.4403 31.9427 11.4403 28.1398C11.44 18.5349 19.2549 10.72 28.86 10.72Z"/>
</svg>
