<svg width="17" height="18" viewBox="0 0 17 18" fill="none" xmlns="http://www.w3.org/2000/svg">
<path d="M16.9998 8.96678C16.8974 7.30929 16.3121 5.71802 15.3163 4.38912C14.3204 3.06023 12.9574 2.05181 11.3953 1.48819C9.83321 0.924574 8.14034 0.830391 6.52539 1.21726C4.91043 1.60412 3.44398 2.45512 2.30683 3.66534C1.16968 4.87557 0.411535 6.3921 0.125865 8.028C-0.159805 9.66389 0.0394871 11.3476 0.699172 12.8716C1.35886 14.3956 2.4501 15.6933 3.83836 16.6046C5.22662 17.5159 6.85122 18.001 8.51187 18.0002H13.4582C14.3972 17.9992 15.2975 17.6258 15.9615 16.9618C16.6254 16.2978 16.9989 15.3975 16.9998 14.4585V8.96678ZM15.5832 14.4585C15.5832 15.0221 15.3593 15.5626 14.9608 15.9611C14.5622 16.3596 14.0217 16.5835 13.4582 16.5835H8.51187C7.51236 16.583 6.52417 16.3719 5.61173 15.9639C4.6993 15.5559 3.8831 14.9602 3.21637 14.2155C2.5464 13.4713 2.04332 12.5924 1.74083 11.6378C1.43835 10.6831 1.34346 9.6749 1.46253 8.68061C1.65055 7.11232 2.35517 5.65121 3.4653 4.5276C4.57544 3.404 6.02795 2.68182 7.59386 2.4749C7.89932 2.43662 8.20685 2.41722 8.5147 2.41682C10.1655 2.41232 11.7651 2.98909 13.0332 4.04599C13.7737 4.66149 14.3816 5.42097 14.8199 6.27839C15.2583 7.13581 15.5179 8.07332 15.5832 9.03407V14.4585Z"/>
<path d="M5.66649 7.37492H8.49983C8.68769 7.37492 8.86786 7.30029 9.00069 7.16745C9.13353 7.03461 9.20816 6.85445 9.20816 6.66658C9.20816 6.47872 9.13353 6.29856 9.00069 6.16572C8.86786 6.03288 8.68769 5.95825 8.49983 5.95825H5.66649C5.47863 5.95825 5.29846 6.03288 5.16563 6.16572C5.03279 6.29856 4.95816 6.47872 4.95816 6.66658C4.95816 6.85445 5.03279 7.03461 5.16563 7.16745C5.29846 7.30029 5.47863 7.37492 5.66649 7.37492Z" />
<path d="M11.3332 8.79175H5.66649C5.47863 8.79175 5.29846 8.86638 5.16563 8.99922C5.03279 9.13205 4.95816 9.31222 4.95816 9.50009C4.95816 9.68795 5.03279 9.86812 5.16563 10.001C5.29846 10.1338 5.47863 10.2084 5.66649 10.2084H11.3332C11.521 10.2084 11.7012 10.1338 11.834 10.001C11.9669 9.86812 12.0415 9.68795 12.0415 9.50009C12.0415 9.31222 11.9669 9.13205 11.834 8.99922C11.7012 8.86638 11.521 8.79175 11.3332 8.79175Z" />
<path d="M11.3332 11.625H5.66649C5.47863 11.625 5.29846 11.6996 5.16563 11.8325C5.03279 11.9653 4.95816 12.1455 4.95816 12.3333C4.95816 12.5212 5.03279 12.7014 5.16563 12.8342C5.29846 12.967 5.47863 13.0417 5.66649 13.0417H11.3332C11.521 13.0417 11.7012 12.967 11.834 12.8342C11.9669 12.7014 12.0415 12.5212 12.0415 12.3333C12.0415 12.1455 11.9669 11.9653 11.834 11.8325C11.7012 11.6996 11.521 11.625 11.3332 11.625Z" />
</svg>
