<svg width="19" height="19" viewBox="0 0 19 19" fill="none" xmlns="http://www.w3.org/2000/svg">
<path d="M9.4996 0C4.26132 0 -0.000396729 4.26165 -0.000396729 9.49991C-0.000396729 14.7383 4.26132 19 9.4996 19C14.7379 19 18.9996 14.7383 18.9996 9.49991C18.9996 4.26165 14.738 0 9.4996 0ZM9.4996 17.9028C4.86633 17.9028 1.09685 14.1332 1.09685 9.49991C1.09685 4.8667 4.86633 1.09725 9.4996 1.09725C14.1329 1.09725 17.9024 4.8667 17.9024 9.49994C17.9024 14.1333 14.1329 17.9028 9.4996 17.9028Z" fill="#AE76FF"/>
<path d="M14.7299 4.49334C14.5864 4.22637 14.2538 4.12644 13.9869 4.2699L7.81197 7.59018C7.71719 7.64114 7.63948 7.71886 7.58854 7.81365L4.26959 13.9872C4.15218 14.2056 4.19791 14.4681 4.36468 14.6348C4.40258 14.6727 4.44585 14.7049 4.49312 14.7301C4.65807 14.8188 4.84816 14.8143 5.00314 14.735L5.00323 14.7351L5.00556 14.7338C5.0078 14.7327 5.01 14.7314 5.01221 14.7303L11.1902 11.4124C11.285 11.3615 11.3627 11.2838 11.4137 11.189L14.7193 5.03071C14.7266 5.01826 14.7335 5.00568 14.7397 4.99277L14.7441 4.98448L14.7436 4.98429C14.8138 4.83288 14.815 4.65164 14.7299 4.49334ZM6.0971 12.9052L8.20613 8.98221L10.0198 10.7959L6.0971 12.9052ZM10.7961 10.0204L8.98237 8.20669L12.905 6.09744" fill="#AE76FF"/>
</svg>
