<svg width="67" height="67" viewBox="0 0 67 67" fill="none" xmlns="http://www.w3.org/2000/svg">
<path d="M33.5 67.0001C32.4749 67.0001 31.4917 66.5928 30.7668 65.8679C30.0419 65.143 29.6346 64.1599 29.6346 63.1347V57.9809C29.6346 56.9557 30.0419 55.9725 30.7668 55.2476C31.4917 54.5227 32.4749 54.1155 33.5 54.1155C34.5252 54.1155 35.5084 54.5227 36.2333 55.2476C36.9582 55.9725 37.3654 56.9557 37.3654 57.9809V63.1347C37.3654 64.1599 36.9582 65.143 36.2333 65.8679C35.5084 66.5928 34.5252 67.0001 33.5 67.0001Z"/>
<path d="M3.86538 39.9425C2.84022 39.9425 1.85705 39.5352 1.13215 38.8103C0.407245 38.0854 0 37.1023 0 36.0771V30.9232C0 29.8981 0.407245 28.9149 1.13215 28.19C1.85705 27.4651 2.84022 27.0579 3.86538 27.0579C4.89055 27.0579 5.87372 27.4651 6.59862 28.19C7.32352 28.9149 7.73077 29.8981 7.73077 30.9232V36.0771C7.73077 37.1023 7.32352 38.0854 6.59862 38.8103C5.87372 39.5352 4.89055 39.9425 3.86538 39.9425Z" />
<path d="M63.1345 39.9425C62.1094 39.9425 61.1262 39.5352 60.4013 38.8103C59.6764 38.0854 59.2692 37.1023 59.2692 36.0771V30.9232C59.2692 29.8981 59.6764 28.9149 60.4013 28.19C61.1262 27.4651 62.1094 27.0579 63.1345 27.0579C64.1597 27.0579 65.1429 27.4651 65.8678 28.19C66.5927 28.9149 66.9999 29.8981 66.9999 30.9232V36.0771C66.9999 37.1023 66.5927 38.0854 65.8678 38.8103C65.1429 39.5352 64.1597 39.9425 63.1345 39.9425Z" />
<path d="M33.5 12.8846C32.4749 12.8846 31.4917 12.4774 30.7668 11.7525C30.0419 11.0276 29.6346 10.0444 29.6346 9.01923V3.86538C29.6346 2.84022 30.0419 1.85705 30.7668 1.13214C31.4917 0.407245 32.4749 0 33.5 0C34.5252 0 35.5084 0.407245 36.2333 1.13214C36.9582 1.85705 37.3654 2.84022 37.3654 3.86538V9.01923C37.3654 10.0444 36.9582 11.0276 36.2333 11.7525C35.5084 12.4774 34.5252 12.8846 33.5 12.8846Z" />
<path d="M18.6826 55.4038C17.6575 55.4038 16.6743 54.9965 15.9494 54.2716C15.2245 53.5467 14.8173 52.5635 14.8173 51.5384V46.3845C14.8173 45.3594 15.2245 44.3762 15.9494 43.6513C16.6743 42.9264 17.6575 42.5191 18.6826 42.5191C19.7078 42.5191 20.691 42.9264 21.4159 43.6513C22.1408 44.3762 22.548 45.3594 22.548 46.3845V51.5384C22.548 52.5635 22.1408 53.5467 21.4159 54.2716C20.691 54.9965 19.7078 55.4038 18.6826 55.4038ZM18.6826 36.0768C17.6575 36.0768 16.6743 35.6696 15.9494 34.9447C15.2245 34.2198 14.8173 33.2366 14.8173 32.2114V16.7499C14.8173 15.7247 15.2245 14.7416 15.9494 14.0167C16.6743 13.2918 17.6575 12.8845 18.6826 12.8845C19.7078 12.8845 20.691 13.2918 21.4159 14.0167C22.1408 14.7416 22.548 15.7247 22.548 16.7499V32.2114C22.548 33.2366 22.1408 34.2198 21.4159 34.9447C20.691 35.6696 19.7078 36.0768 18.6826 36.0768Z" />
<path d="M33.5 48.9617C32.4749 48.9617 31.4917 48.5544 30.7668 47.8295C30.0419 47.1046 29.6346 46.1214 29.6346 45.0963V21.904C29.6346 20.8788 30.0419 19.8956 30.7668 19.1707C31.4917 18.4458 32.4749 18.0386 33.5 18.0386C34.5252 18.0386 35.5084 18.4458 36.2333 19.1707C36.9582 19.8956 37.3654 20.8788 37.3654 21.904V45.0963C37.3654 46.1214 36.9582 47.1046 36.2333 47.8295C35.5084 48.5544 34.5252 48.9617 33.5 48.9617Z" />
<path d="M48.3173 25.1251C47.2921 25.1251 46.309 24.7178 45.5841 23.9929C44.8592 23.268 44.4519 22.2849 44.4519 21.2597V16.1059C44.4519 15.0807 44.8592 14.0975 45.5841 13.3726C46.309 12.6477 47.2921 12.2405 48.3173 12.2405C49.3425 12.2405 50.3256 12.6477 51.0505 13.3726C51.7754 14.0975 52.1827 15.0807 52.1827 16.1059V21.2597C52.1827 22.2849 51.7754 23.268 51.0505 23.9929C50.3256 24.7178 49.3425 25.1251 48.3173 25.1251ZM48.3173 54.7597C47.2921 54.7597 46.309 54.3525 45.5841 53.6276C44.8592 52.9027 44.4519 51.9195 44.4519 50.8943V35.4328C44.4519 34.4076 44.8592 33.4244 45.5841 32.6995C46.309 31.9746 47.2921 31.5674 48.3173 31.5674C49.3425 31.5674 50.3256 31.9746 51.0505 32.6995C51.7754 33.4244 52.1827 34.4076 52.1827 35.4328V50.8943C52.1827 51.9195 51.7754 52.9027 51.0505 53.6276C50.3256 54.3525 49.3425 54.7597 48.3173 54.7597Z" />
</svg>
