<svg width="19" height="17" viewBox="0 0 19 17" fill="none" xmlns="http://www.w3.org/2000/svg">
<path d="M13.8485 0C12.9574 0.013866 12.0857 0.262717 11.3215 0.721423C10.5573 1.18013 9.92766 1.83245 9.49609 2.6125C9.06452 1.83245 8.43484 1.18013 7.67064 0.721423C6.90644 0.262717 6.03478 0.013866 5.14368 0C3.72317 0.0617426 2.38481 0.68341 1.42101 1.72918C0.457212 2.77496 -0.0536895 4.15983 -7.52553e-05 5.58125C-7.52553e-05 9.18096 3.78731 13.1124 6.96378 15.7779C7.673 16.3741 8.56971 16.701 9.49609 16.701C10.4225 16.701 11.3192 16.3741 12.0284 15.7779C15.2049 13.1124 18.9923 9.18096 18.9923 5.58125C19.0459 4.15983 18.535 2.77496 17.5712 1.72918C16.6074 0.68341 15.269 0.0617426 13.8485 0ZM11.0115 14.5667C10.5873 14.924 10.0506 15.12 9.49609 15.12C8.94156 15.12 8.40484 14.924 7.98066 14.5667C3.91472 11.1538 1.58262 7.87946 1.58262 5.58125C1.52852 4.57957 1.87254 3.59712 2.53965 2.84818C3.20675 2.09924 4.14281 1.64457 5.14368 1.58333C6.14455 1.64457 7.08062 2.09924 7.74772 2.84818C8.41482 3.59712 8.75884 4.57957 8.70475 5.58125C8.70475 5.79121 8.78812 5.99258 8.93653 6.14104C9.08493 6.28951 9.28622 6.37292 9.49609 6.37292C9.70597 6.37292 9.90725 6.28951 10.0557 6.14104C10.2041 5.99258 10.2874 5.79121 10.2874 5.58125C10.2333 4.57957 10.5774 3.59712 11.2445 2.84818C11.9116 2.09924 12.8476 1.64457 13.8485 1.58333C14.8494 1.64457 15.7854 2.09924 16.4525 2.84818C17.1196 3.59712 17.4637 4.57957 17.4096 5.58125C17.4096 7.87946 15.0775 11.1538 11.0115 14.5635V14.5667Z"/>
</svg>
