<svg width="20" height="20" viewBox="0 0 20 20" fill="none" xmlns="http://www.w3.org/2000/svg">
<path d="M19.9467 5.88036C19.8998 4.81763 19.728 4.08701 19.4818 3.45392C19.2278 2.78191 18.8371 2.18026 18.3252 1.6801C17.8251 1.17216 17.2194 0.777475 16.5552 0.527474C15.9185 0.281289 15.1917 0.109433 14.1289 0.0625765C13.0583 0.0117522 12.7184 0 10.0028 0C7.28732 0 6.94743 0.0117522 5.88073 0.0586082C4.81799 0.105464 4.08738 0.277473 3.45444 0.523506C2.78227 0.777475 2.18062 1.1682 1.68047 1.6801C1.17253 2.18026 0.777994 2.78588 0.52784 3.4501C0.281655 4.08701 0.109799 4.81366 0.0629427 5.87639C0.0121184 6.94706 0.000366211 7.28696 0.000366211 10.0025C0.000366211 12.718 0.0121184 13.0579 0.0589745 14.1246C0.105831 15.1873 0.27784 15.9179 0.524025 16.551C0.777994 17.223 1.17253 17.8247 1.68047 18.3248C2.18062 18.8328 2.78624 19.2275 3.45047 19.4775C4.08738 19.7237 4.81403 19.8955 5.87691 19.9424C6.94346 19.9894 7.28351 20.001 9.99902 20.001C12.7145 20.001 13.0544 19.9894 14.1211 19.9424C15.1839 19.8955 15.9145 19.7237 16.5474 19.4775C17.8916 18.9578 18.9543 17.8951 19.474 16.551C19.7201 15.9141 19.8921 15.1873 19.9389 14.1246C19.9858 13.0579 19.9975 12.718 19.9975 10.0025C19.9975 7.28696 19.9936 6.94706 19.9467 5.88036ZM18.1456 14.0464C18.1025 15.0232 17.9385 15.5507 17.8017 15.9024C17.4656 16.7737 16.7741 17.4653 15.9027 17.8013C15.5511 17.9381 15.0198 18.1022 14.0468 18.1451C12.9919 18.1921 12.6755 18.2037 10.0068 18.2037C7.33815 18.2037 7.01779 18.1921 5.96665 18.1451C4.98985 18.1022 4.46238 17.9381 4.11073 17.8013C3.67712 17.6411 3.28243 17.3871 2.96207 17.055C2.62995 16.7307 2.37598 16.3399 2.21573 15.9063C2.07897 15.5547 1.9149 15.0232 1.87201 14.0504C1.82501 12.9955 1.81341 12.6789 1.81341 10.0103C1.81341 7.3416 1.82501 7.02124 1.87201 5.97026C1.9149 4.99345 2.07897 4.46598 2.21573 4.11433C2.37598 3.68057 2.62995 3.28603 2.96603 2.96552C3.29021 2.6334 3.68093 2.37943 4.1147 2.21933C4.46634 2.08258 4.99779 1.9185 5.97062 1.87546C7.02557 1.82861 7.34212 1.81686 10.0106 1.81686C12.6833 1.81686 12.9996 1.82861 14.0508 1.87546C15.0276 1.9185 15.5551 2.08258 15.9067 2.21933C16.3403 2.37943 16.735 2.6334 17.0554 2.96552C17.3875 3.28985 17.6414 3.68057 17.8017 4.11433C17.9385 4.46598 18.1025 4.99727 18.1456 5.97026C18.1924 7.0252 18.2042 7.3416 18.2042 10.0103C18.2042 12.6789 18.1924 12.9915 18.1456 14.0464Z"/>
<path d="M10.0027 4.86426C7.16619 4.86426 4.86475 7.16555 4.86475 10.0022C4.86475 12.8389 7.16619 15.1402 10.0027 15.1402C12.8394 15.1402 15.1407 12.8389 15.1407 10.0022C15.1407 7.16555 12.8394 4.86426 10.0027 4.86426ZM10.0027 13.3351C8.16253 13.3351 6.66985 11.8426 6.66985 10.0022C6.66985 8.16189 8.16253 6.66936 10.0027 6.66936C11.8431 6.66936 13.3356 8.16189 13.3356 10.0022C13.3356 11.8426 11.8431 13.3351 10.0027 13.3351Z"/>
<path d="M16.544 4.66286C16.544 5.32526 16.0069 5.86235 15.3444 5.86235C14.682 5.86235 14.1449 5.32526 14.1449 4.66286C14.1449 4.00032 14.682 3.46338 15.3444 3.46338C16.0069 3.46338 16.544 4.00032 16.544 4.66286Z"/>
</svg>
