<svg width="29" height="29" viewBox="0 0 29 29" fill="none" xmlns="http://www.w3.org/2000/svg">
<path d="M14.5 0C6.50446 0 0 6.50446 0 14.5C0 22.4955 6.50446 29 14.5 29C22.4955 29 29 22.4955 29 14.5C29 6.50446 22.4955 0 14.5 0ZM14.5 26.5833C7.83725 26.5833 2.41667 21.1628 2.41667 14.5C2.41667 7.83725 7.83725 2.41667 14.5 2.41667C21.1628 2.41667 26.5833 7.83725 26.5833 14.5C26.5833 21.1628 21.1628 26.5833 14.5 26.5833ZM19.3333 14.5H21.75C21.7478 16.2127 21.1402 17.8695 20.0347 19.1776C18.9291 20.4857 17.3967 21.3609 15.7083 21.6485V24.1667H13.2917V21.6485C11.6033 21.3609 10.0709 20.4857 8.96532 19.1776C7.85975 17.8695 7.25219 16.2127 7.25 14.5H9.66667C9.66667 17.1656 11.8344 19.3333 14.5 19.3333C17.1656 19.3333 19.3333 17.1656 19.3333 14.5ZM12.0833 14.5V8.45833C12.0833 7.81739 12.3379 7.2027 12.7912 6.74949C13.2444 6.29628 13.8591 6.04167 14.5 6.04167C15.1409 6.04167 15.7556 6.29628 16.2088 6.74949C16.6621 7.2027 16.9167 7.81739 16.9167 8.45833H14.5V10.875H16.9167V12.0833H14.5V14.5H16.9167C16.9167 15.1409 16.6621 15.7556 16.2088 16.2088C15.7556 16.6621 15.1409 16.9167 14.5 16.9167C13.8591 16.9167 13.2444 16.6621 12.7912 16.2088C12.3379 15.7556 12.0833 15.1409 12.0833 14.5Z"/>
</svg>
