<svg width="21" height="17" viewBox="0 0 21 17" fill="none" xmlns="http://www.w3.org/2000/svg">
<path d="M17.8373 8.8604V7.65C17.8373 5.62109 17.0313 3.67529 15.5967 2.24063C14.162 0.80598 12.2162 0 10.1873 0C8.15839 0 6.21258 0.80598 4.77793 2.24063C3.34328 3.67529 2.5373 5.62109 2.5373 7.65V8.8604C1.64578 9.25296 0.91618 9.93986 0.470628 10.8061C0.0250756 11.6724 -0.109379 12.6654 0.0897732 13.6189C0.288925 14.5724 0.809596 15.4286 1.56462 16.0441C2.31964 16.6596 3.26319 16.9971 4.2373 17C4.68817 17 5.12057 16.8209 5.43938 16.5021C5.75819 16.1833 5.9373 15.7509 5.9373 15.3V10.2C5.9373 9.74913 5.75819 9.31673 5.43938 8.99792C5.12057 8.67911 4.68817 8.5 4.2373 8.5V7.65C4.2373 6.07196 4.86417 4.55856 5.98001 3.44271C7.09585 2.32687 8.60926 1.7 10.1873 1.7C11.7653 1.7 13.2787 2.32687 14.3946 3.44271C15.5104 4.55856 16.1373 6.07196 16.1373 7.65V8.5C15.6864 8.5 15.254 8.67911 14.9352 8.99792C14.6164 9.31673 14.4373 9.74913 14.4373 10.2V15.3C14.4373 15.7509 14.6164 16.1833 14.9352 16.5021C15.254 16.8209 15.6864 17 16.1373 17C17.1114 16.9971 18.055 16.6596 18.81 16.0441C19.565 15.4286 20.0857 14.5724 20.2848 13.6189C20.484 12.6654 20.3495 11.6724 19.904 10.8061C19.4584 9.93986 18.7288 9.25296 17.8373 8.8604ZM4.2373 15.3C3.561 15.3 2.91239 15.0313 2.43418 14.5531C1.95596 14.0749 1.6873 13.4263 1.6873 12.75C1.6873 12.0737 1.95596 11.4251 2.43418 10.9469C2.91239 10.4687 3.561 10.2 4.2373 10.2V15.3ZM16.1373 15.3V10.2C16.8136 10.2 17.4622 10.4687 17.9404 10.9469C18.4186 11.4251 18.6873 12.0737 18.6873 12.75C18.6873 13.4263 18.4186 14.0749 17.9404 14.5531C17.4622 15.0313 16.8136 15.3 16.1373 15.3Z"/>
</svg>
