<svg width="78" height="47" viewBox="0 0 78 47" fill="none" xmlns="http://www.w3.org/2000/svg">
<path d="M62.8144 16.1355C62.6328 16.2498 62.4752 16.3993 62.3507 16.5754C62.2262 16.7515 62.1373 16.9508 62.089 17.1618C62.0407 17.3728 62.034 17.5914 62.0692 17.805C62.1045 18.0187 62.1811 18.2232 62.2945 18.4068C64.0528 21.254 64.9852 24.5448 64.9852 27.9032C64.9852 31.2617 64.0528 34.5524 62.2945 37.3997C62.1814 37.5834 62.1052 37.7879 62.0701 38.0015C62.035 38.215 62.0418 38.4335 62.0901 38.6444C62.1384 38.8553 62.2272 39.0545 62.3515 39.2306C62.4758 39.4068 62.6331 39.5564 62.8144 39.6709C62.9958 39.7855 63.1977 39.8627 63.4085 39.8983C63.6193 39.9338 63.835 39.9269 64.0432 39.878C64.2514 39.8291 64.4481 39.7391 64.622 39.6132C64.7959 39.4873 64.9436 39.328 65.0567 39.1443C67.1313 35.7775 68.2312 31.8885 68.2312 27.9197C68.2312 23.9509 67.1313 20.0619 65.0567 16.6951C64.9465 16.5084 64.8008 16.3457 64.6282 16.2164C64.4555 16.087 64.2593 15.9936 64.0508 15.9416C63.8423 15.8896 63.6257 15.8799 63.4135 15.9132C63.2012 15.9465 62.9977 16.0221 62.8144 16.1355ZM72.8557 10.5068C72.7488 10.305 72.6015 10.128 72.4233 9.98712C72.245 9.84626 72.0397 9.74463 71.8205 9.68872C71.6013 9.63282 71.3729 9.62387 71.1501 9.66246C70.9272 9.70104 70.7148 9.78631 70.5264 9.91281C70.3379 10.0393 70.1776 10.2042 70.0556 10.3971C69.9337 10.5899 69.8528 10.8064 69.8182 11.0327C69.7836 11.259 69.796 11.4901 69.8546 11.7113C69.9132 11.9325 70.0167 12.1389 70.1585 12.3172C73.1647 16.9328 74.7672 22.3407 74.7672 27.8703C74.7672 33.3999 73.1647 38.8079 70.1585 43.4234C70.0167 43.6018 69.9132 43.8081 69.8546 44.0293C69.796 44.2505 69.7836 44.4816 69.8182 44.7079C69.8528 44.9342 69.9337 45.1507 70.0556 45.3436C70.1776 45.5364 70.3379 45.7013 70.5264 45.8278C70.7148 45.9543 70.9272 46.0396 71.1501 46.0782C71.3729 46.1168 71.6013 46.1078 71.8205 46.0519C72.0397 45.996 72.245 45.8944 72.4233 45.7535C72.6015 45.6127 72.7488 45.4357 72.8557 45.2339C76.2113 40.0808 78 34.0435 78 27.8703C78 21.6972 76.2113 15.6598 72.8557 10.5068ZM52.8707 18.9334C52.5979 19.045 52.3601 19.2294 52.1827 19.4671C52.0053 19.7048 51.8949 19.9868 51.8634 20.283C51.6676 22.2355 51.2084 24.1516 50.4985 25.9776C50.3326 26.3782 50.0198 26.6981 49.6259 26.87C49.232 27.0419 48.7877 27.0524 48.3863 26.8993C48.1877 26.8195 48.0067 26.7008 47.8534 26.55C47.7002 26.3992 47.5779 26.2193 47.4933 26.0206C47.4088 25.8219 47.3638 25.6082 47.3609 25.3919C47.358 25.1755 47.3973 24.9607 47.4764 24.7597C49.2294 20.3022 49.1672 15.3227 47.3035 10.9116C45.4398 6.50045 41.9264 3.01711 37.5327 1.22428H37.3377C33.5987 -0.251607 29.4757 -0.397494 25.6441 0.810518C21.8126 2.01853 18.4996 4.50882 16.2479 7.87345C16.0981 8.09236 16.003 8.34484 15.9707 8.60919C15.9385 8.87354 15.9701 9.14187 16.0627 9.39114C16.1554 9.64042 16.3064 9.86318 16.5028 10.0403C16.6992 10.2174 16.9351 10.3436 17.1903 10.408C19.9522 11.1153 22.4768 12.5588 24.5019 14.5884C24.6541 14.7415 24.775 14.9235 24.8575 15.124C24.94 15.3246 24.9825 15.5397 24.9825 15.757C24.9825 15.9743 24.94 16.1894 24.8575 16.3899C24.775 16.5905 24.6541 16.7725 24.5019 16.9255C24.1927 17.2292 23.7789 17.399 23.3483 17.399C22.9176 17.399 22.5039 17.2292 22.1947 16.9255C20.2897 15.0183 17.8496 13.7537 15.208 13.3047C14.4798 13.1612 13.7402 13.084 12.9983 13.0743C9.55096 13.0743 6.24478 14.4615 3.80712 16.9307C1.36946 19.3999 0 22.7489 0 26.2409C0 29.733 1.36946 33.082 3.80712 35.5512C6.24478 38.0204 9.55096 39.4076 12.9983 39.4076H47.119C49.4388 39.4137 51.7046 38.6989 53.6109 37.3598C55.5172 36.0207 56.9723 34.1217 57.7798 31.9188C58.5874 29.7159 58.7086 27.3151 58.1271 25.0403C57.5457 22.7654 56.2895 20.7259 54.528 19.1968C54.3016 19.0043 54.0275 18.8781 53.7355 18.8317C53.4435 18.7853 53.1445 18.8205 52.8707 18.9334Z" />
</svg>
