<svg width="17" height="16" viewBox="0 0 17 16" fill="none" xmlns="http://www.w3.org/2000/svg">
<path d="M16.1199 5.77511C15.9888 5.37282 15.6409 5.08036 15.2217 5.0193L10.9756 4.40231L9.07819 0.56852C8.7025 -0.189507 7.46084 -0.189507 7.08515 0.56852L5.18778 4.40231L0.9517 5.0193C0.533719 5.08036 0.185829 5.37385 0.0546875 5.77631C-0.0764536 6.17758 0.032518 6.61892 0.335899 6.91446L3.40825 9.90904L2.68348 14.134C2.61237 14.5508 2.78358 14.9732 3.12585 15.2222C3.4693 15.47 3.92395 15.5024 4.29742 15.3056L8.08124 13.3104L11.8762 15.3056C12.0385 15.3912 12.2164 15.4335 12.393 15.4335C12.6231 15.4335 12.8531 15.3612 13.0477 15.2224C13.3902 14.9722 13.5612 14.551 13.4901 14.1342L12.7665 9.90922L15.8389 6.91463C16.1422 6.61994 16.251 6.17758 16.1199 5.77511Z"/>
</svg>
