<svg width="21" height="21" viewBox="0 0 21 21" fill="none" xmlns="http://www.w3.org/2000/svg">
<path d="M20.7557 18.6042L15.7815 13.63C17.137 11.9722 17.8035 9.85675 17.643 7.72131C17.4826 5.58587 16.5075 3.59378 14.9195 2.15711C13.3315 0.720433 11.252 -0.050916 9.11119 0.00261049C6.9704 0.056137 4.93207 0.930443 3.41783 2.44468C1.90359 3.95893 1.02928 5.99725 0.975755 8.13804C0.922229 10.2788 1.69358 12.3583 3.13025 13.9463C4.56693 15.5344 6.55901 16.5094 8.69445 16.6699C10.8299 16.8303 12.9453 16.1639 14.6032 14.8083L19.5773 19.7825C19.7345 19.9343 19.945 20.0183 20.1635 20.0164C20.382 20.0145 20.591 19.9269 20.7455 19.7724C20.9 19.6179 20.9877 19.4088 20.9895 19.1903C20.9914 18.9718 20.9075 18.7613 20.7557 18.6042ZM9.33315 15.0267C8.01461 15.0267 6.72568 14.6357 5.62935 13.9031C4.53302 13.1706 3.67854 12.1294 3.17395 10.9112C2.66937 9.69306 2.53735 8.35261 2.79458 7.05941C3.05182 5.7662 3.68676 4.57831 4.61911 3.64596C5.55146 2.71361 6.73934 2.07867 8.03255 1.82144C9.32576 1.5642 10.6662 1.69623 11.8844 2.20081C13.1025 2.70539 14.1437 3.55988 14.8763 4.65621C15.6088 5.75253 15.9998 7.04147 15.9998 8.36001C15.9978 10.1275 15.2948 11.822 14.045 13.0719C12.7952 14.3217 11.1007 15.0247 9.33315 15.0267Z"/>
</svg>
