<svg width="73" height="41" viewBox="0 0 73 41" fill="none" xmlns="http://www.w3.org/2000/svg">
<path d="M61.5 18.2222C60.7022 18.222 59.9067 18.306 59.1266 18.4728C58.1016 8.118 49.3412 0 38.7222 0C37.4649 0 36.4444 1.02044 36.4444 2.27778V38.7222C36.4444 39.9796 37.4649 41 38.7222 41H61.5C67.7821 41 72.8889 35.8932 72.8889 29.6111C72.8889 23.3336 67.7821 18.2222 61.5 18.2222ZM29.6111 4.55556C28.3538 4.55556 27.3333 5.576 27.3333 6.83333V38.7222C27.3333 39.9796 28.3538 41 29.6111 41C30.8684 41 31.8889 39.9796 31.8889 38.7222V6.83333C31.8889 5.576 30.8684 4.55556 29.6111 4.55556ZM20.5 13.6667C19.2427 13.6667 18.2222 14.6871 18.2222 15.9444V38.7222C18.2222 39.9796 19.2427 41 20.5 41C21.7573 41 22.7778 39.9796 22.7778 38.7222V15.9444C22.7778 14.6871 21.7573 13.6667 20.5 13.6667ZM11.3889 13.6667C10.1316 13.6667 9.11111 14.6871 9.11111 15.9444V38.7222C9.11111 39.9796 10.1316 41 11.3889 41C12.6462 41 13.6667 39.9796 13.6667 38.7222V15.9444C13.6667 14.6871 12.6462 13.6667 11.3889 13.6667ZM2.27778 20.5C1.02044 20.5 0 21.5204 0 22.7778V36.4444C0 37.7018 1.02044 38.7222 2.27778 38.7222C3.53511 38.7222 4.55556 37.7018 4.55556 36.4444V22.7778C4.55556 21.5204 3.53511 20.5 2.27778 20.5Z"/>
</svg>
