<svg width="67" height="67" viewBox="0 0 67 67" fill="none" xmlns="http://www.w3.org/2000/svg">
<path d="M46.2133 43.3753C35.0633 38.2224 19.4567 40.5016 18.798 40.6009C18.4488 40.6537 18.1134 40.7747 17.8109 40.9571C17.5084 41.1394 17.2449 41.3796 17.0352 41.6638C16.8256 41.9481 16.674 42.2708 16.589 42.6136C16.5041 42.9564 16.4876 43.3126 16.5403 43.6619C16.5931 44.0111 16.7141 44.3465 16.8964 44.649C17.0788 44.9514 17.319 45.215 17.6032 45.4246C17.8874 45.6343 18.2102 45.7859 18.553 45.8708C18.8958 45.9557 19.252 45.9723 19.6012 45.9195C19.7468 45.8973 34.2557 43.7745 43.9567 48.2579C44.3097 48.4217 44.6942 48.5067 45.0834 48.5068C45.6965 48.5071 46.2914 48.298 46.7694 47.914C47.2474 47.53 47.5798 46.9942 47.7117 46.3954C47.8436 45.7966 47.7669 45.1707 47.4944 44.6215C47.2218 44.0722 46.7698 43.6326 46.2133 43.3753ZM49.347 33.6902C36.6841 27.8384 18.9267 30.4317 18.1769 30.5446C17.472 30.6512 16.8382 31.0333 16.4149 31.607C15.9917 32.1808 15.8136 32.8991 15.92 33.6041C16.0262 34.3093 16.4082 34.9434 16.9818 35.3671C17.5554 35.7908 18.2738 35.9694 18.9791 35.8636C19.1469 35.8381 35.9067 33.4048 47.0904 38.5731C47.4434 38.7369 47.8279 38.8218 48.2171 38.822C48.8302 38.8221 49.4249 38.6128 49.9028 38.2288C50.3807 37.8448 50.7131 37.309 50.8449 36.7103C50.9768 36.1116 50.9001 35.4857 50.6277 34.9365C50.3553 34.3873 49.9034 33.9476 49.347 33.6902ZM51.4541 23.5719C37.4669 17.1076 17.8219 19.9759 16.9925 20.1011C15.5244 20.323 14.5143 21.6925 14.7355 23.1606C14.9568 24.6286 16.3277 25.6416 17.7947 25.4197C17.9822 25.3913 36.6891 22.674 49.1975 28.4544C49.8428 28.7397 50.5744 28.76 51.2346 28.5109C51.8947 28.2618 52.4306 27.7633 52.7266 27.1228C53.0226 26.4823 53.0551 25.7511 52.8171 25.0869C52.579 24.4226 52.0895 23.8785 51.4541 23.5719Z"/>
<path d="M33.5005 0C15.0281 0 0 15.0278 0 33.4991C0 51.9715 15.0281 67 33.5005 67C51.9726 67 67.0007 51.9715 67.0007 33.4991C67.0007 15.0278 51.9726 0 33.5005 0ZM33.5005 61.6212C17.994 61.6212 5.37885 49.006 5.37885 33.4991C5.37885 17.9933 17.994 5.37849 33.5005 5.37849C49.0067 5.37849 61.6219 17.9933 61.6219 33.4991C61.6219 49.006 49.0067 61.6212 33.5005 61.6212Z"/>
</svg>
