<svg width="23" height="18" viewBox="0 0 23 18" fill="none" xmlns="http://www.w3.org/2000/svg">
<path d="M22.3501 2.02331C21.519 2.36645 20.6334 2.59389 19.7101 2.70432C20.6599 2.17056 21.3849 1.33178 21.7257 0.320785C20.8401 0.817739 19.8623 1.16876 18.8203 1.36465C17.9794 0.521933 16.7809 0 15.4734 0C12.9367 0 10.8945 1.93786 10.8945 4.31351C10.8945 4.65533 10.9252 4.984 11.0006 5.2969C7.1914 5.12204 3.82078 3.40374 1.55647 0.786186C1.16116 1.4317 0.929278 2.17056 0.929278 2.96595C0.929278 4.45944 1.74644 5.78333 2.9645 6.5498C2.22836 6.53665 1.50618 6.3355 0.894357 6.01866C0.894357 6.03181 0.894357 6.0489 0.894357 6.06599C0.894357 8.16161 2.48259 9.90226 4.56531 10.3032C4.19234 10.3992 3.78586 10.4452 3.36401 10.4452C3.07067 10.4452 2.77453 10.4295 2.49656 10.3716C3.09022 12.0794 4.77484 13.3349 6.77793 13.3757C5.21904 14.5234 3.23969 15.2149 1.0969 15.2149C0.721146 15.2149 0.360756 15.1992 0.000366211 15.1558C2.03 16.3876 4.4354 17.091 7.02937 17.091C15.4608 17.091 20.0705 10.5175 20.0705 4.81966C20.0705 4.62903 20.0635 4.44497 20.0537 4.26223C20.9631 3.65484 21.7271 2.89627 22.3501 2.02331Z"/>
</svg>
