<svg width="26" height="20" viewBox="0 0 26 20" fill="none" xmlns="http://www.w3.org/2000/svg">
<path d="M17.002 11.1805L11.258 14.3724C10.9278 14.5559 10.5374 14.5491 10.2137 14.3543C9.88975 14.1593 9.69653 13.8148 9.69653 13.4324V7.10335C9.69653 6.72279 9.88858 6.3789 10.2103 6.18369C10.3783 6.08178 10.5646 6.03057 10.7512 6.03057C10.9259 6.03084 11.0978 6.07521 11.2513 6.15971L16.9954 9.29662C17.1628 9.38797 17.3027 9.52351 17.4004 9.68893C17.4982 9.85435 17.5502 10.0435 17.5508 10.2364C17.5516 10.4294 17.501 10.619 17.4044 10.7852C17.3078 10.9514 17.1687 11.088 17.002 11.1805ZM11.2201 7.89954V12.6298L15.5131 10.2441L11.2201 7.89954Z"/>
<path d="M25.8086 15.2796L25.8074 15.2917C25.7854 15.5042 25.5662 17.3947 24.6613 18.3563C23.6153 19.4873 22.4294 19.6247 21.8592 19.6906C21.8161 19.6954 21.773 19.7006 21.73 19.7063L21.6846 19.7111C18.2475 19.9649 13.0566 19.9996 13.0047 19.9998L13.0001 20L12.9955 19.9998C12.9436 19.9996 7.75266 19.9649 4.28453 19.7111L4.23873 19.7063C4.20181 19.7012 4.16114 19.6966 4.11691 19.6913C3.5532 19.6253 2.38008 19.4877 1.33116 18.3158C0.46927 17.3645 0.220143 15.5145 0.194549 15.3066L0.191604 15.2796C0.183835 15.1912 0.000366211 13.0857 0.000366211 10.972V8.99615C0.000366211 6.88241 0.183835 4.77698 0.191604 4.68833L0.192975 4.67507C0.215014 4.46594 0.433978 2.61008 1.33472 1.64813C2.31823 0.555033 3.56173 0.41037 4.23061 0.332598C4.33633 0.320324 4.42738 0.309853 4.48943 0.298765L4.54956 0.290308C6.53414 0.098505 12.7565 0.0040741 13.0203 0.000205994L13.0283 0L13.0362 0.000205994C13.0881 0.000413895 18.2788 0.0350704 21.716 0.288914L21.7614 0.293711C21.8049 0.299591 21.8537 0.304798 21.9072 0.310472C22.4678 0.370916 23.6346 0.496395 24.669 1.65241C25.5309 2.60384 25.7802 4.45388 25.8056 4.66156L25.8086 4.68854C25.8163 4.77719 26 6.88247 26 8.99615V10.972C25.9998 13.0858 25.8163 15.191 25.8086 15.2796ZM24.4762 8.99615C24.4762 7.03977 24.308 5.025 24.2921 4.84006C24.2275 4.33051 23.9646 3.16011 23.5447 2.69651C22.8972 1.97309 22.2322 1.90136 21.7466 1.84916C21.6924 1.84353 21.6383 1.83736 21.5843 1.83065C18.2598 1.5865 13.2649 1.54906 13.0348 1.54762C12.7767 1.55143 6.6454 1.64674 4.72134 1.82823C4.62273 1.84457 4.51619 1.85705 4.40397 1.86995C3.83447 1.93622 3.05489 2.02689 2.45548 2.69651L2.44137 2.71183C2.02878 3.1484 1.77351 4.24294 1.70861 4.83402C1.69652 4.97379 1.52397 7.01238 1.52397 8.99615V10.972C1.52397 12.9261 1.6918 14.9387 1.70805 15.1275C1.78524 15.7277 2.053 16.8272 2.45548 17.2717C3.12274 18.0171 3.82634 18.0996 4.29169 18.1542C4.33613 18.1595 4.37756 18.1643 4.41585 18.1694C7.78877 18.4147 12.8196 18.4512 13.0001 18.4526C13.1806 18.4514 18.2096 18.4147 21.5526 18.1694C21.5936 18.1641 21.6384 18.1589 21.6866 18.1532C22.1653 18.0978 22.8887 18.014 23.5527 17.2948L23.5587 17.2882C23.9714 16.8516 24.2267 15.7379 24.2915 15.135C24.303 15.003 24.4762 12.96 24.4762 10.972V8.99615Z"/>
</svg>
