<svg width="70" height="70" viewBox="0 0 70 70" fill="none" xmlns="http://www.w3.org/2000/svg">
<path d="M64.5684 69.0681C65.8109 70.3106 67.8256 70.3106 69.0681 69.0681C70.3106 67.8256 70.3106 65.8109 69.0681 64.5684L64.5684 69.0681ZM50.9091 28.6364C50.9091 40.9373 40.9373 50.9091 28.6364 50.9091V57.2728C44.452 57.2728 57.2728 44.452 57.2728 28.6364H50.9091ZM28.6364 50.9091C16.3355 50.9091 6.36364 40.9373 6.36364 28.6364H0C0 44.452 12.821 57.2728 28.6364 57.2728V50.9091ZM6.36364 28.6364C6.36364 16.3355 16.3355 6.36364 28.6364 6.36364V0C12.821 0 0 12.821 0 28.6364H6.36364ZM28.6364 6.36364C40.9373 6.36364 50.9091 16.3355 50.9091 28.6364H57.2728C57.2728 12.821 44.452 0 28.6364 0V6.36364ZM43.8866 48.3863L64.5684 69.0681L69.0681 64.5684L48.3863 43.8866L43.8866 48.3863Z" fill="#70B2C7"/>
</svg>
