<svg width="70" height="46" fill="none" xmlns="http://www.w3.org/2000/svg"><path d="M37.32 31.33h18.66c.7 0 1.17-.37 1.17-.92v-8.3c0-.55-.47-.92-1.17-.92H37.32c-.7 0-1.16.37-1.16.92v8.3c0 .55.46.92 1.16.92zm1.17-8.3h16.33v6.45H38.49v-6.44zM5.83 19.35h9.33c.7 0 1.17-.37 1.17-.92s-.47-.92-1.17-.92H5.83c-.7 0-1.16.37-1.16.92s.46.92 1.16.92zm14 0h9.33c.7 0 1.16-.37 1.16-.92s-.46-.92-1.16-.92h-9.33c-.7 0-1.17.37-1.17.92s.47.92 1.17.92zm-14 3.69H21c.7 0 1.17-.37 1.17-.93 0-.55-.47-.92-1.17-.92H5.83c-.7 0-1.16.37-1.16.92 0 .56.46.93 1.16.93zm23.33-1.84h-3.5c-.7 0-1.17.36-1.17.91 0 .56.47.93 1.17.93h3.5c.7 0 1.16-.37 1.16-.93 0-.55-.46-.92-1.16-.92z" fill="#539DA6"/><path d="M68.93 9.77a4.73 4.73 0 00-3.15-1.39l-2.8-.26V3.69c0-2.03-2.1-3.69-4.66-3.69H4.67C2.1 0 0 1.66 0 3.69v29.48c0 1.66 1.42 3.08 3.34 3.53-.06 1.87 1.73 3.49 4.12 3.66l53.89 4.79h.46c2.34 0 4.44-1.38 4.67-3.13l3.5-29.58a3.1 3.1 0 00-1.05-2.67zM2.33 6.45h58.32v5.53H2.33V6.45zm2.34-4.6H58.3c1.29 0 2.34.82 2.34 1.84v.92H2.33v-.92c0-1.02 1.05-1.85 2.34-1.85zM2.33 33.16V13.82h58.32v19.35c0 1.01-1.05 1.84-2.33 1.84H4.67c-1.29 0-2.34-.83-2.34-1.84zm65.32-21.1l-3.5 29.58c-.12 1.01-1.29 1.75-2.57 1.66L7.81 38.5c-1.16-.09-1.98-.82-2.1-1.65h52.6c2.57 0 4.67-1.66 4.67-3.69V9.86l2.68.18c.59 0 1.17.28 1.52.65.35.37.58.92.47 1.38z" fill="#539DA6"/></svg>