<svg width="70" height="70" fill="none" xmlns="http://www.w3.org/2000/svg"><g clip-path="url(#clip0)" fill="#539DA6"><path d="M30.95 36.9l-17.97-7.93c-.67-.3-1.44.2-1.44.94v23.41c0 .74.44 1.42 1.12 1.72l17.46 7.7a1.03 1.03 0 001.44-.94V37.84c0-.4-.24-.78-.61-.94zM29.5 60.22L13.6 53.2V37.87l15.9 7.02v15.33zm0-17.58l-15.9-7.02V31.5l15.9 7.02v4.13zm5.78-31.75v-2.3c.88.07 1.18.49 1.54.49.48 0 .7-.6.7-.9 0-.76-1.39-1-2.24-1.03V6.8c0-.17-.22-.33-.44-.33-.25 0-.44.16-.44.33v.36c-1.3.17-2.53.89-2.53 2.54 0 1.67 1.34 2.18 2.53 2.63v2.59c-1.15-.13-1.54-.98-2.04-.98-.4 0-.73.55-.73.91 0 .73 1.19 1.58 2.77 1.62v.37c0 .17.2.32.44.32.22 0 .44-.15.44-.32v-.4c1.46-.24 2.47-1.17 2.47-2.77 0-1.78-1.3-2.36-2.47-2.8zm-.78-.29c-.6-.23-1.04-.48-1.04-1.05 0-.5.39-.81 1.04-.92v1.97zm.68 4.32v-2.27c.56.25.98.56.98 1.2 0 .61-.4.95-.98 1.07z"/><path d="M61.9 42.47c-.57 0-1.03.46-1.03 1.03v12.78c0 .1-.06.18-.15.22l-24.7 10.9V33.76l6.45-2.84 18.4-8.12v15.9a1.03 1.03 0 102.06 0V21.22c0-.41-.25-.78-.62-.94L47.3 13.76A12.69 12.69 0 0037.33.02a1.03 1.03 0 10-.42 2.02 10.6 10.6 0 015.75 17.35H40.5c6.45-5.26 2.8-16.04-5.77-16.04-8.49 0-12.29 10.63-5.75 16.04h-2.2a10.6 10.6 0 015.76-17.35A1.03 1.03 0 1032.1.02 12.69 12.69 0 0022.16 14L7.7 20.3c-.36.15-.6.52-.62.92v35.07c0 .9.54 1.73 1.38 2.1l26.13 11.53c.26.12.57.12.84 0l26.13-11.53a2.3 2.3 0 001.38-2.1V43.5c0-.57-.46-1.03-1.03-1.03zM34.72 5.4a6.96 6.96 0 016.68 4.92c1.87 6.02-4.52 11.05-9.87 8.3-6.54-3.36-4.1-13.22 3.19-13.22zM9.13 56.28V22.8l24.84 10.96v33.62L9.27 56.5a.24.24 0 01-.14-.21zM35 31.98L10.67 21.23l11.93-5.2c.36 1.18.89 2.31 1.58 3.35h-.6a1.03 1.03 0 100 2.06h22.27a1.03 1.03 0 100-2.06h-.6c.74-1.1 1.3-2.3 1.65-3.56l12.43 5.4L35 31.98z"/><path d="M26.89 47.84l-9.93-4.38a1.03 1.03 0 00-.83 1.89l9.93 4.38a1.03 1.03 0 00.83-1.89zm0 4.64l-9.93-4.39a1.03 1.03 0 00-.83 1.89l9.93 4.38a1.03 1.03 0 10.83-1.88z"/></g><defs><clipPath id="clip0"><path fill="#fff" d="M0 0h70v70H0z"/></clipPath></defs></svg>