<svg width="32" height="32" fill="none" xmlns="http://www.w3.org/2000/svg"><path d="M18.796 18.834c.84.465 1.673.862 2.487 1.288.814.42 1.61.854 2.375 1.327.764.473 1.499.983 2.184 1.563a14.01 14.01 0 011.923 1.985c-.2-.955-.702-1.839-1.33-2.59a9.173 9.173 0 00-2.224-1.887 11.726 11.726 0 00-2.616-1.188c-.91-.281-1.844-.472-2.799-.498z" fill="#57A7B3"/><path d="M4.798 6.531a32.096 32.096 0 011.592-.95.868.868 0 00.16.28 33.99 33.99 0 01-1.752.67zM7.99 4.904a.887.887 0 00-.086-.145l.627-.325L9.806 3.8l1.287-.607c.433-.194.862-.397 1.3-.581.87-.377 1.749-.739 2.65-1.051-.806.515-1.635.982-2.472 1.433-.416.23-.841.441-1.262.662l-1.274.634-1.287.61c-.227.1-.452.204-.678.306a.895.895 0 00-.08-.302zm7.68-.638a.894.894 0 00-.069-.12c.56-.232 1.123-.457 1.693-.667-.52.317-1.046.621-1.577.916a.876.876 0 00-.047-.129zM7.864 7.817c.509-.274 1.026-.53 1.538-.796l1.55-.768 1.564-.742c.507-.23 1.011-.467 1.522-.69a.892.892 0 00.18.386c-.491.263-.99.512-1.486.767l-1.55.769-1.563.743c-.525.238-1.046.485-1.575.714A54.809 54.809 0 014.84 9.52a55.13 55.13 0 013.023-1.702zm-2.192 4.307c.395-.238.794-.469 1.194-.696a.911.911 0 00.089.19c-.425.174-.852.345-1.283.506zm2.798-1.357a.89.89 0 00-.1-.163c.161-.087.322-.173.484-.258.535-.287 1.078-.556 1.617-.834l1.63-.806 1.642-.78c.551-.251 1.098-.511 1.654-.753a61.536 61.536 0 013.36-1.396 60.754 60.754 0 01-3.182 1.777c-.534.287-1.077.557-1.616.835l-1.63.807-1.641.78c-.552.251-1.1.511-1.655.753l-.501.22a.889.889 0 00-.062-.182zm1.81 1.897c.488-.265.985-.51 1.477-.767l1.49-.738 1.503-.712c.404-.184.807-.371 1.212-.552a.897.897 0 00.19.403c-.394.207-.79.408-1.185.612l-1.49.74-1.502.713c-.506.227-1.006.465-1.516.684a49.82 49.82 0 01-3.082 1.26 50.995 50.995 0 012.903-1.643zm7.316-3.314a.887.887 0 00-.074-.128c.602-.252 1.21-.496 1.825-.722-.56.346-1.128.673-1.7.99a.894.894 0 00-.051-.14zm-7.714 6.752c.32-.21.645-.41.973-.605a.91.91 0 00.107.214c-.356.137-.716.27-1.08.39zm2.575-1.274a.875.875 0 00-.107-.17 54.618 54.618 0 014.384-2.114c.788-.338 1.584-.66 2.403-.931a31.23 31.23 0 01-2.224 1.313 54.19 54.19 0 01-4.384 2.138.892.892 0 00-.072-.236zm3.761 1.209a.886.886 0 00-.145-.218c.25-.111.504-.217.76-.316a9.8 9.8 0 011.357-.422 9.78 9.78 0 01-1.176.807c-.238.14-.478.274-.721.402a.89.89 0 00-.075-.253zm-1.918.693l.281-.162a.892.892 0 00.2.429c-.099.041-.2.081-.3.12-.44.166-.887.319-1.357.421a9.76 9.76 0 011.176-.807zm-.09 7.805c.43-.288.87-.556 1.315-.813a.908.908 0 00.134.286c-.477.19-.958.37-1.45.527zm2.934-1.424a.883.883 0 00-.136-.207c.464-.244.932-.479 1.403-.707a46.95 46.95 0 012.183-.993c.737-.312 1.48-.608 2.247-.856a27.03 27.03 0 01-2.069 1.237 47.714 47.714 0 01-3.556 1.765.894.894 0 00-.072-.239zm7.094-.431a.877.877 0 00-.057-.101c.432-.175.866-.345 1.305-.504-.398.247-.8.484-1.206.715a.905.905 0 00-.042-.11zm-7.561 3.433c.473-.257.956-.497 1.434-.745l1.447-.718 1.46-.692c.49-.221.977-.45 1.472-.663l.118-.052a.894.894 0 00.173.371l-.112.062c-.474.257-.957.497-1.435.745l-1.447.719-1.459.692c-.49.222-.977.452-1.473.664-.985.434-1.979.851-2.995 1.219a48.073 48.073 0 012.817-1.602zm-1.583 4.095c-.281.113-.564.222-.848.329.26-.158.522-.311.785-.464a.965.965 0 00.063.135zm1.531-.825a.89.89 0 00-.089-.149c.302-.163.604-.324.907-.484.537-.288 1.083-.558 1.625-.837l1.637-.811 1.65-.783c.554-.253 1.104-.513 1.663-.756a62.146 62.146 0 013.376-1.404 61.45 61.45 0 01-3.198 1.785c-.537.288-1.082.56-1.624.838l-1.637.811-1.65.784c-.554.252-1.104.514-1.663.757-.312.14-.626.276-.94.412a.885.885 0 00-.057-.163z" fill="#1B75BC"/><path d="M7.43 10.595a.596.596 0 01.8.29.617.617 0 01-.285.814.596.596 0 01-.8-.289.617.617 0 01.284-.815zm9.125-1.417a.596.596 0 01.8.288.617.617 0 01-.283.816.597.597 0 01-.8-.29.617.617 0 01.283-.814zm-5.139 5.478a.596.596 0 01.8.289.617.617 0 01-.284.816.597.597 0 01-.8-.29.617.617 0 01.284-.815zm3.761 1.21a.596.596 0 01.8.288.617.617 0 01-.284.815.596.596 0 01-.8-.289.617.617 0 01.284-.814zM14.63 4.094a.596.596 0 01.8.289.617.617 0 01-.285.815.596.596 0 01-.8-.29.616.616 0 01.284-.814zm-7.682.636a.596.596 0 01.8.29.617.617 0 01-.283.815.597.597 0 01-.8-.29.617.617 0 01.283-.814zm9.155 18.209a.596.596 0 01.8.289.617.617 0 01-.283.815.597.597 0 01-.801-.29.617.617 0 01.284-.814zm7.094-.431a.596.596 0 01.8.29.617.617 0 01-.284.814.596.596 0 01-.8-.29.616.616 0 01.284-.814zm-7.613 6.702a.596.596 0 01.8.29.617.617 0 01-.284.814.596.596 0 01-.8-.29.617.617 0 01.284-.814z" fill="#5CA595"/><path fill-rule="evenodd" clip-rule="evenodd" d="M14.098.11a16.12 16.12 0 012.407-.101C25.336.298 32.27 7.69 31.992 16.523c-.279 8.832-7.664 15.757-16.497 15.468C6.663 31.702-.27 24.31.008 15.477a15.91 15.91 0 013.635-9.654c.773-.939 2.354-2.376 3.314-3.034A15.917 15.917 0 0111.962.51a28.907 28.907 0 012.136-.4zm.332 30.476c-.283-1.335-.251-2.686-.04-3.993.258-1.564.754-3.08 1.37-4.537a28.03 28.03 0 011.019-2.142c.184-.346.38-.693.573-1.015l.164-.272.161-.282a22.469 22.469 0 002.15-5.341c.207-.84.364-1.7.443-2.58a11.91 11.91 0 00-.057-2.672c-.13-.894-.37-1.79-.77-2.618a7.615 7.615 0 00-.685-1.183 8.678 8.678 0 00-.854-1.035 9.018 9.018 0 00-.973-.887 10.2 10.2 0 00-.976-.7c.168 0 .338.002.508.007 8.098.265 14.456 7.045 14.201 15.144-.255 8.098-7.027 14.448-15.127 14.183a14.882 14.882 0 01-1.107-.077zm-.542-29.11c1.085.714 2.075 1.54 2.843 2.508.234.29.443.594.625.91.188.314.35.637.478.975.26.67.427 1.383.495 2.118a10.58 10.58 0 01-.026 2.244 15.842 15.842 0 01-.413 2.267 20.91 20.91 0 01-.692 2.237 25.938 25.938 0 01-1.159 2.706l-.131.258-.141.26c-.211.388-.388.77-.564 1.159a24.11 24.11 0 00-.49 1.174c-.148.398-.292.797-.42 1.202a18.08 18.08 0 00-.351 1.225c-.104.412-.2.826-.272 1.246a14.97 14.97 0 00-.255 2.545c-.005.854.072 1.713.268 2.54.12.52.291 1.029.512 1.508-7.448-.924-13.1-7.393-12.86-15.038A14.589 14.589 0 013.7 7.986c.006.386.032.774.08 1.162.116.889.34 1.781.721 2.612.18.42.41.815.657 1.192A9.189 9.189 0 006.941 14.9c.332.278.68.53 1.037.76.713.465 1.464.845 2.23 1.162.766.316 1.55.568 2.342.766.792.2 1.594.341 2.399.427-1.504-.602-2.963-1.268-4.304-2.09-1.337-.819-2.566-1.791-3.465-2.97a7.365 7.365 0 01-.603-.917 6.312 6.312 0 01-.452-.978 7.992 7.992 0 01-.46-2.119 11.293 11.293 0 01.057-2.235c.051-.468.128-.937.226-1.404a14.617 14.617 0 017.94-3.825z" fill="#57A7B3"/></svg>