<svg width="88" height="58" viewBox="0 0 88 58" fill="none" xmlns="http://www.w3.org/2000/svg">
<path d="M55.4955 16.415H5.15676C3.94897 16.415 3 17.364 3 18.5718V40.8296C3 42.0373 3.94897 42.9863 5.15676 42.9863H11.627V54.8054L23.1442 42.9863H55.4955C56.7033 42.9863 57.6523 42.0373 57.6523 40.8296V18.5718C57.6523 17.364 56.6602 16.415 55.4955 16.415Z" stroke="#70B2C7" stroke-width="5" stroke-miterlimit="10" stroke-linecap="round" stroke-linejoin="round"/>
<path d="M57.695 29.5713H57.6523" stroke="#70B2C7" stroke-width="5" stroke-miterlimit="10" stroke-linecap="round" stroke-linejoin="round"/>
<path d="M30.3475 7.6586V5.15676C30.3475 3.94897 31.2965 3 32.5043 3H82.8432C84.0079 3 85 3.94897 85 5.15676V28.1478C85 28.9242 84.3961 29.5713 83.6197 29.5713H76.373" stroke="#70B2C7" stroke-width="5" stroke-miterlimit="10" stroke-linecap="round" stroke-linejoin="round"/>
<path d="M30.3475 16.415V16.2856" stroke="#70B2C7" stroke-width="5" stroke-miterlimit="10" stroke-linecap="round" stroke-linejoin="round"/>
<path d="M76.3729 29.5713V41.3472L64.8558 29.5713" stroke="#70B2C7" stroke-width="5" stroke-miterlimit="10" stroke-linecap="round" stroke-linejoin="round"/>
</svg>
