<svg width="80" height="41" viewBox="0 0 80 41" fill="none" xmlns="http://www.w3.org/2000/svg">
<path d="M39.8492 17.2658C44.0647 17.2658 47.4821 13.8484 47.4821 9.63289C47.4821 5.41736 44.0647 2 39.8492 2C35.6337 2 32.2163 5.41736 32.2163 9.63289C32.2163 13.8484 35.6337 17.2658 39.8492 17.2658Z" stroke="#70B2C7" stroke-width="4"/>
<path d="M55.2931 38.4513C55.2895 34.3564 53.6612 30.4303 50.7657 27.5348C47.8702 24.6392 43.9441 23.011 39.8492 23.0073C35.7532 23.0073 31.825 24.6344 28.9287 27.5307C26.0324 30.427 24.4053 34.3553 24.4053 38.4513H55.2931Z" stroke="#70B2C7" stroke-width="4"/>
<path d="M62.556 17.2658C66.7715 17.2658 70.1889 13.8484 70.1889 9.63289C70.1889 5.41736 66.7715 2 62.556 2C58.3405 2 54.9231 5.41736 54.9231 9.63289C54.9231 13.8484 58.3405 17.2658 62.556 17.2658Z" stroke="#70B2C7" stroke-width="4"/>
<path d="M60.3772 38.4513H78C78 34.3553 76.3729 30.427 73.4766 27.5307C70.5803 24.6345 66.6521 23.0073 62.5561 23.0073C60.0278 23.0062 57.5382 23.6274 55.3069 24.8162" stroke="#70B2C7" stroke-width="4"/>
<path d="M17.4439 17.2658C21.6595 17.2658 25.0768 13.8484 25.0768 9.63289C25.0768 5.41736 21.6595 2 17.4439 2C13.2284 2 9.81104 5.41736 9.81104 9.63289C9.81104 13.8484 13.2284 17.2658 17.4439 17.2658Z" stroke="#70B2C7" stroke-width="4"/>
<path d="M19.6228 38.4513H2C2 34.3553 3.62712 30.427 6.52342 27.5307C9.41972 24.6345 13.3479 23.0073 17.4439 23.0073C19.9722 23.0062 22.4618 23.6274 24.6931 24.8162" stroke="#70B2C7" stroke-width="4"/>
</svg>
