<svg width="78" height="78" viewBox="0 0 78 78" fill="none" xmlns="http://www.w3.org/2000/svg">
<path d="M39.0001 2C59.4346 2 76 18.5654 76 39.0001C76 59.4346 59.4346 76 39.0001 76C18.5654 76 2 59.4346 2 39.0001C2 18.5654 18.5654 2 39.0001 2Z" stroke="#70B2C7" stroke-width="4" stroke-miterlimit="22.9256"/>
<path d="M32.2801 40.8102L31.8732 39.3618L30.3687 39.3512L27.6675 39.3323L27.667 37.7852L34.991 37.8026L34.999 48.9287C33.2541 49.4465 31.0391 49.8403 28.7858 49.9614C25.897 50.1166 23.2647 49.8054 21.5682 48.9957L20.7068 50.8007L21.5682 48.9957C18.1474 47.3633 16.0807 43.9899 16.002 38.2367C15.925 32.6081 18.0605 29.0996 21.5191 27.3315L21.5192 27.3315C23.4441 26.3474 25.7361 25.9591 28.5744 26.0034C29.4683 26.0173 30.9249 26.1958 32.3487 26.4919C32.8991 26.6064 33.4215 26.7337 33.8837 26.8676C33.7742 27.1607 33.6556 27.4727 33.5339 27.7884C33.3907 28.16 33.2449 28.5327 33.1067 28.8809C32.7817 28.7714 32.4213 28.6592 32.0324 28.5535C30.3772 28.1036 28.0649 27.7317 25.6651 28.2989L26.1251 30.2453L25.6651 28.2989C22.1477 29.1303 20.2844 31.9457 19.6507 35.1406L21.5992 35.5271L19.6507 35.1406C19.2295 37.2643 19.1804 39.903 19.9012 42.2474C20.6354 44.635 22.267 46.9448 25.286 47.6988C26.6011 48.0273 27.7508 47.9788 28.6262 47.8823C28.8952 47.8526 29.196 47.8103 29.4271 47.7778C29.5298 47.7633 29.6187 47.7508 29.6849 47.7422C29.9383 47.7093 30.0321 47.7077 30.0484 47.7074C30.0512 47.7073 30.0517 47.7073 30.0503 47.7072L30.1967 47.7198L30.3435 47.7108C31.2563 47.6549 31.7873 47.0687 32.0111 46.7174C32.221 46.3878 32.3054 46.0647 32.3427 45.8976C32.4228 45.5393 32.4381 45.1655 32.4425 44.9167C32.4474 44.639 32.4394 44.3554 32.432 44.132C32.4299 44.0707 32.428 44.0159 32.4263 43.9667C32.4209 43.8116 32.4175 43.7117 32.4175 43.6376V43.637C32.4175 43.5177 32.4222 43.3661 32.429 43.1574L32.4296 43.1385C32.4359 42.9471 32.4434 42.7185 32.4457 42.4886C32.4497 42.082 32.4464 41.4021 32.2801 40.8102ZM34.4117 25.3653C34.4177 25.3378 34.4202 25.3322 34.4142 25.3559C34.4137 25.3576 34.4129 25.3607 34.4117 25.3653Z" stroke="#70B2C7" stroke-width="4" stroke-miterlimit="22.9256"/>
<path d="M45.4035 27.2557L45.4034 27.2558C42.3045 28.9679 40.1652 32.2143 40.0127 37.2708L40.0127 37.2708C39.8759 41.8028 40.8572 44.6561 42.1911 46.456C43.5166 48.2445 45.3586 49.2204 47.3994 49.6778C49.4657 50.1409 51.6655 50.0516 53.4997 49.7439C54.4088 49.5914 55.1965 49.3904 55.7954 49.1961C55.8238 49.1869 55.8515 49.1777 55.8786 49.1687L55.8856 47.1585C53.1661 48.0243 50.2214 48.4304 47.7722 47.3052C44.8532 45.9643 43.4683 42.9016 43.3655 38.6423C43.3201 36.7636 43.5228 34.8612 44.103 33.1851C44.6841 31.5063 45.6934 29.9265 47.3362 28.9505L45.4035 27.2557ZM45.4035 27.2557C46.907 26.425 49.527 25.8173 51.7184 26.0498M45.4035 27.2557L55.7517 29.0833M55.7517 29.0833C55.2611 28.892 54.6925 28.6882 54.0791 28.5122C52.3083 28.0042 49.6515 27.5746 47.3364 28.9503L55.7517 29.0833ZM55.7517 29.0833C55.8843 28.7419 56.0243 28.3778 56.1627 28.0132C56.2887 27.6811 56.4113 27.354 56.5238 27.0483C55.9878 26.8447 55.5334 26.6974 55.0791 26.579C54.2179 26.3546 53.2889 26.2165 51.7184 26.0498M51.7184 26.0498L51.9295 24.061L51.7184 26.0498ZM57.0329 25.5668C57.0326 25.5683 57.0321 25.5702 57.0315 25.5725C57.0357 25.5527 57.0372 25.5492 57.0329 25.5668Z" stroke="#70B2C7" stroke-width="4" stroke-miterlimit="22.9256"/>
<path d="M64.9901 48.3447L64.9901 48.3446C65.0493 47.3548 64.8327 46.8557 64.663 46.6141C64.4944 46.3739 64.2349 46.1919 63.8397 46.0867C63.4256 45.9765 62.9208 45.9715 62.4342 46.0707C61.9232 46.1749 61.6215 46.3535 61.536 46.4275L61.5358 46.4277C61.4195 46.5284 61.3899 46.5577 61.3742 46.5744L61.3737 46.5749C61.3681 46.5809 61.3515 46.5985 61.3134 46.6527C61.309 46.6606 61.3026 46.6722 61.2941 46.6881C61.266 46.7402 61.2319 46.8063 61.193 46.8831C61.1839 46.9011 61.1725 46.9237 61.1603 46.9481C61.1441 47.0499 61.1287 47.1444 61.1144 47.2327C60.9927 47.9827 60.9445 48.2801 61.071 48.7426L64.9901 48.3447ZM64.9901 48.3447C64.9462 49.081 64.7374 49.3417 64.66 49.4305C64.6008 49.4985 64.5311 49.5594 64.4147 49.6474C64.4093 49.6514 64.3972 49.6604 64.3809 49.6726C64.3565 49.6907 64.3228 49.7158 64.2881 49.7419C64.2176 49.764 64.1521 49.7849 64.0925 49.8039C64.0524 49.8167 64.0149 49.8287 63.9805 49.8395C63.7892 49.9 63.6764 49.9326 63.5761 49.955C63.4276 49.9881 63.2193 50.0205 62.7202 49.9837L64.9901 48.3447ZM61.6234 49.6289C61.8551 49.802 62.2083 49.9457 62.7198 49.9836L61.6234 49.6289ZM61.6234 49.6289C61.4091 49.4687 61.1995 49.2118 61.071 48.7428L61.6234 49.6289Z" stroke="#70B2C7" stroke-width="4" stroke-miterlimit="22.9256"/>
</svg>
