<svg width="78" height="78" viewBox="0 0 78 78" fill="none" xmlns="http://www.w3.org/2000/svg">
<path d="M39.0001 2C59.4346 2 76 18.5654 76 39.0001C76 59.4346 59.4346 76 39.0001 76C18.5654 76 2 59.4346 2 39.0001C2 18.5654 18.5654 2 39.0001 2Z" stroke="#70B2C7" stroke-width="4" stroke-miterlimit="22.9256"/>
<path fill-rule="evenodd" clip-rule="evenodd" d="M36.9896 35.8073L25.6663 35.7805L25.6682 41.3183L30.3546 41.3512C30.5138 41.9176 30.4175 43.003 30.4175 43.637C30.4173 44.2056 30.5506 45.6944 30.2213 45.7145C29.3232 45.6374 27.7644 46.2565 25.7706 45.7584C21.5092 44.6941 20.8642 39.3022 21.6125 35.5298C22.1465 32.8374 23.6027 30.8415 26.1251 30.2453C30.0115 29.3267 33.8967 31.4081 34.2132 31.4183C34.5074 30.8542 36.3634 26.1174 36.3754 25.7273C34.9621 24.8099 30.7269 24.0367 28.6056 24.0036C25.5812 23.9564 22.9289 24.3646 20.6088 25.5507C16.3246 27.7408 13.9173 32.0562 14.0022 38.264C14.0878 44.525 16.3971 48.7441 20.7068 50.8007C24.9914 52.8454 32.8214 51.9906 37 50.3593L36.9896 35.8073Z" fill="#70B2C7"/>
<path fill-rule="evenodd" clip-rule="evenodd" d="M57.874 50.4659L57.8955 44.3532C57.4315 44.3818 56.4394 44.8561 55.935 45.033C50.2985 47.0108 45.5537 46.4144 45.3649 38.594C45.2819 35.1539 46.125 31.9964 48.3579 30.6698C51.5003 28.8023 56.1634 31.5741 56.8716 31.6785C57.1541 31.0176 58.9754 26.3809 59 25.9087C56.1386 24.6615 55.1071 24.3983 51.9295 24.061C49.3281 23.7849 46.297 24.4771 44.4363 25.5052C40.6346 27.6055 38.1843 31.5498 38.0136 37.2105C37.4294 56.5651 55.8401 51.8878 57.874 50.4659Z" fill="#70B2C7"/>
<path fill-rule="evenodd" clip-rule="evenodd" d="M59.2342 46.3171C59.0856 47.3022 58.8434 48.1794 59.1419 49.2706C59.6176 51.0085 60.9475 51.858 62.5726 51.9782C63.8728 52.0742 64.2136 51.8396 65.2644 51.5357C65.5157 51.2101 66.8486 50.7747 66.9866 48.4639C67.3039 43.1529 61.9026 43.4647 60.2269 44.9155C59.9831 45.1265 59.8418 45.2597 59.6408 45.5553C59.5231 45.7287 59.275 46.2598 59.2342 46.3171Z" fill="#70B2C7"/>
</svg>
