<svg width="16" height="16" fill="none" xmlns="http://www.w3.org/2000/svg"><g clip-path="url(#clip0)" fill="#fff"><path d="M15.86 3.18L11 8l4.85 4.82c.09-.18.14-.38.14-.6V3.78c0-.22-.05-.42-.14-.6zm-1.26-.8H1.4c-.21 0-.41.05-.6.14L7 8.69a1.4 1.4 0 002 0l6.2-6.17a1.39 1.39 0 00-.6-.15zm-14.46.8c-.09.18-.14.38-.14.6v8.44c0 .22.05.42.14.6L5 8 .14 3.18z"/><path d="M10.34 8.66l-.68.69c-.92.91-2.4.91-3.32 0l-.68-.69L.8 13.48c.19.1.39.15.6.15h13.2c.21 0 .41-.06.6-.15l-4.86-4.82z"/></g><defs><clipPath id="clip0"><path fill="#fff" d="M0 0h16v16H0z"/></clipPath></defs></svg>