<svg width="20" height="20" viewBox="0 0 20 20" fill="none" xmlns="http://www.w3.org/2000/svg">
<path fill-rule="evenodd" clip-rule="evenodd" d="M0.449922 16.7028C-0.149973 17.2886 -0.149974 18.2383 0.449922 18.8241C1.04982 19.4099 2.02244 19.4099 2.62234 18.8241L9.61081 12L17.1051 19.318C17.705 19.9038 18.6776 19.9038 19.2775 19.318C19.8774 18.7322 19.8774 17.7825 19.2775 17.1967L11.7832 9.87868L19.2775 2.56066C19.8774 1.97487 19.8774 1.02513 19.2775 0.43934C18.6776 -0.146447 17.705 -0.146446 17.1051 0.43934L9.61081 7.75736L2.62233 0.933239C2.02244 0.347452 1.04982 0.347452 0.449921 0.933238C-0.149974 1.51902 -0.149973 2.46877 0.449922 3.05456L7.4384 9.87868L0.449922 16.7028Z" fill="#DFB53F"/>
</svg>
