<svg width="12" height="17" viewBox="0 0 12 17" fill="none" xmlns="http://www.w3.org/2000/svg">
<path d="M9.59375 10.4375C10.5938 9.78125 11.0625 9.40625 10.6562 8.59375C10.4375 8.15625 9.78125 7.78125 8.96875 8.4375C8.96875 8.4375 7.8125 9.34375 6 9.34375C4.15625 9.34375 3.03125 8.4375 3.03125 8.4375C2.1875 7.75 1.5625 8.15625 1.3125 8.59375C0.9375 9.40625 1.375 9.78125 2.375 10.4375C3.25 11 4.4375 11.2188 5.21875 11.2812L4.5625 11.9375C3.65625 12.8438 2.8125 13.7188 2.1875 14.3125C1.3125 15.1875 2.71875 16.5938 3.625 15.75L6 13.3438C6.90625 14.2812 7.78125 15.1562 8.375 15.75C9.25 16.625 10.6875 15.2188 9.8125 14.3125L7.4375 11.9375L6.78125 11.2812C7.5625 11.2188 8.71875 11 9.59375 10.4375ZM1.9375 4.0625C1.9375 6.3125 3.75 8.125 6 8.125C8.21875 8.125 10.0312 6.3125 10.0312 4.0625C10.0312 1.8125 8.21875 0 6 0C3.75 0 1.9375 1.8125 1.9375 4.0625ZM4 4.0625C4 2.96875 4.875 2.0625 6 2.0625C7.09375 2.0625 7.96875 2.96875 7.96875 4.0625C7.96875 5.15625 7.09375 6.0625 6 6.0625C4.875 6.0625 4 5.15625 4 4.0625Z" fill="#F2F2F2"/>
</svg>
