<svg width="70" height="70" fill="none" xmlns="http://www.w3.org/2000/svg"><g clip-path="url(#clip0)" fill="#539DA6"><path d="M15.85 38.04c-.55-.14-1.1.19-1.25.73l-1.46 5.59L.34 60.34a1.02 1.02 0 001.6 1.27l12.93-16.14c.1-.12.16-.25.2-.38l1.51-5.8c.14-.54-.18-1.1-.73-1.25zm2-2.79c.83-1.77 2.1-3.31 3.65-4.47l6.15-4.58a4.4 4.4 0 012.86-.87l5.9.32a2.06 2.06 0 011.88 2.63c-.23.82-.93 1.4-1.78 1.5l-5.18.55c-.42.04-.77.34-.88.75l-1.98 7.31c-.16.58-.21 1.18-.15 1.78l.3 3.08a1.02 1.02 0 102.04-.2l-.3-3.08c-.04-.35-.01-.7.08-1.04l1.8-6.64 4.49-.48a4.1 4.1 0 002.91-6.49 4.1 4.1 0 00-3.12-1.71l-5.9-.32a6.46 6.46 0 00-3.94 1.1l.01-.05a17.97 17.97 0 017.23-8.58l4.43-2.74c.1-.07.19-.14.26-.24l8.86-11.12a1.02 1.02 0 00-1.6-1.27l-8.75 10.98-4.28 2.66a20 20 0 00-8.05 9.54l-1.27 3.15-3.24 2.42A13.99 13.99 0 0016 34.37a1.02 1.02 0 101.85.88zM69.5 3.32a1.02 1.02 0 00-1.43.16l-5.69 7.1a1.02 1.02 0 001.6 1.28l5.68-7.1c.36-.44.28-1.08-.16-1.44zm-8.41 10.51a1.02 1.02 0 00-1.44.16l-4.34 5.41c-.29.36-.45.82-.45 1.28l-.03 4.67-1.05-.05a3.91 3.91 0 00-4.07 3.73l-.01.28c-.04.94.24 1.83.81 2.57a3.84 3.84 0 00-1.8 3.06v.28c-.05.93.25 1.8.78 2.5-1 .64-1.7 1.75-1.75 3.03l-.01.27c-.04.96.26 1.87.87 2.6a3.91 3.91 0 00-1.33 5.15l-.05.23-.6 5.02-.05.11-2.77 3.84a1.14 1.14 0 01-1.98-1.11l1.56-2.39a3.21 3.21 0 00.5-1.4l.98-8.92a1.02 1.02 0 00-2.04-.23l-.97 8.92c0 .08-.03.15-.05.22l-4.02 6.23a1.35 1.35 0 01-2.36-1.34l1.67-3.4c.05-.1.24-.8.27-1.04l1.11-9.69a1.02 1.02 0 00-2.03-.23l-1.12 9.69c-.02.18-.08.35-.2.5l-3.9 5.33c-.39.54-1.1.7-1.69.4a1.33 1.33 0 01-.6-1.73l2.13-4.72c.32-.7.45-1.49.37-2.26l-.34-3.42a1.02 1.02 0 00-2.03.2L29.4 51c.04.42-.03.84-.2 1.22l-2.13 4.72a3.36 3.36 0 00-.29 1.68l-1.48.52a1.9 1.9 0 00-.86.6l-6.88 8.6a1.02 1.02 0 001.6 1.28L26 61.06l1.56-.55a3.37 3.37 0 005.3-.19l.54-.73.04.13a3.37 3.37 0 003.2 2.23 3.4 3.4 0 002.84-1.54l.8-1.23a3.18 3.18 0 005.17 0l.46-.65a3.26 3.26 0 005.31.32l1.69-2.1c.54-.68.87-1.48.97-2.33l.44-3.8a3.93 3.93 0 002.42-3.35c.07-1-.23-1.96-.86-2.73a3.81 3.81 0 001.8-3.07l.01-.27a3.8 3.8 0 00-.75-2.46 3.82 3.82 0 001.8-3.07l.01-.27c.04-.93-.24-1.81-.81-2.53a3.9 3.9 0 001.8-3.1v-.3a3.88 3.88 0 00-2.88-3.93l.04-4.86 4.34-5.41c.35-.45.28-1.09-.16-1.44zm-4.83 20.2c.31.35.48.8.46 1.27l-.01.28a1.77 1.77 0 01-1.85 1.69l-2.66-.14a1.77 1.77 0 01-1.45-1.82l.01-.27a1.76 1.76 0 011.77-1.7l2.5.12c.47.02.9.22 1.23.57zm-.61 7.35a1.77 1.77 0 01-1.85 1.69l-2.34-.1a1.76 1.76 0 01-1.69-1.85l.02-.28c.04-.97.87-1.73 1.84-1.69l2.58.14c.86.15 1.49.92 1.45 1.82l-.01.27zm-4.33 14.08l-1.68 2.1a1.21 1.21 0 01-1.95-1.44l.55-.82h.01c.21-.3.35-.66.4-1.03l.45-3.8c.44.2.92.31 1.43.33l1.7.08-.37 3.3a2.5 2.5 0 01-.54 1.28zm3.4-8.33c-.07 1-.94 1.77-1.94 1.73l-2.16-.1a1.85 1.85 0 01-1.77-1.98c.06-1 .93-1.78 1.93-1.73l2.16.1a1.85 1.85 0 011.77 1.98zm3-17.74l-.02.28a1.86 1.86 0 01-1.94 1.77l-2.25-.1a1.84 1.84 0 01-1.77-1.94l.01-.28a1.86 1.86 0 011.94-1.77l2.25.1a1.84 1.84 0 011.77 1.94z"/></g><defs><clipPath id="clip0"><path fill="#fff" d="M0 0h70v70H0z"/></clipPath></defs></svg>