<svg fill="none" xmlns="http://www.w3.org/2000/svg" viewBox="0 0 70 70"><g clip-path="url(#clip0)" fill="#539DA6"><path d="M35 0a7 7 0 100 14 7 7 0 000-14zm0 11.67a4.67 4.67 0 110-9.34 4.67 4.67 0 010 9.34zm4.67 3.5h-.28l-.24.12a9.3 9.3 0 01-8.3 0l-.24-.12h-.28A5.84 5.84 0 0024.5 21v7a3.5 3.5 0 003.5 3.5h14a3.5 3.5 0 003.5-3.5v-7a5.84 5.84 0 00-5.83-5.83zM43.17 28c0 .64-.53 1.17-1.17 1.17H28c-.64 0-1.17-.53-1.17-1.17v-7a3.5 3.5 0 013.25-3.5 11.68 11.68 0 009.84 0 3.5 3.5 0 013.25 3.5v7zM59.5 38.5a7 7 0 100 14 7 7 0 000-14zm0 11.67a4.67 4.67 0 110-9.34 4.67 4.67 0 010 9.34zm4.67 3.5h-.28l-.24.11a9.3 9.3 0 01-8.3 0l-.24-.11h-.28A5.84 5.84 0 0049 59.5v7a3.5 3.5 0 003.5 3.5h14a3.5 3.5 0 003.5-3.5v-7a5.84 5.84 0 00-5.83-5.83zm3.5 12.83c0 .64-.53 1.17-1.17 1.17h-14c-.64 0-1.17-.53-1.17-1.17v-7a3.5 3.5 0 013.25-3.5 11.68 11.68 0 009.84 0 3.5 3.5 0 013.25 3.5v7zm-57.17-28a7 7 0 100 14 7 7 0 000-14zm0 11.67a4.67 4.67 0 110-9.34 4.67 4.67 0 010 9.34zm4.67 3.5h-.28l-.24.11a9.3 9.3 0 01-8.3 0l-.24-.11h-.28A5.84 5.84 0 000 59.5v7A3.5 3.5 0 003.5 70h14a3.5 3.5 0 003.5-3.5v-7a5.84 5.84 0 00-5.83-5.83zm3.5 12.83c0 .64-.53 1.17-1.17 1.17h-14c-.64 0-1.17-.53-1.17-1.17v-7A3.5 3.5 0 015.58 56a11.68 11.68 0 009.84 0 3.5 3.5 0 013.25 3.5v7zm27.91-7.25c-.26-.6-.94-.87-1.54-.62a25.88 25.88 0 01-16.64 1.14l1.1-.32a1.17 1.17 0 10-.66-2.24l-4.67 1.37c-.02 0-.03.02-.04.03-.11.04-.21.1-.3.16l-.12.08a1.13 1.13 0 00-.38.88c.03.15.07.31.12.46l.01.05 2.34 4.47a1.17 1.17 0 102.07-1.08l-.95-1.82c6.27 1.89 13 1.52 19.04-1.03.59-.25.87-.94.62-1.53zm19.58-28.57a1.17 1.17 0 00-1.65 0l-1.65 1.65a27.96 27.96 0 00-16.9-23.1 1.17 1.17 0 10-.92 2.14A25.63 25.63 0 0160.47 32l-1.31-1.31a1.17 1.17 0 00-1.65 1.64l3.5 3.5c.45.46 1.2.46 1.65 0l3.5-3.5c.46-.45.45-1.19 0-1.64zM25.63 10.1c0-.07-.01-.13-.03-.2l-.02-.03v-.03a1.11 1.11 0 00-.1-.16 1.17 1.17 0 00-.14-.2 1.1 1.1 0 00-.23-.15 1.02 1.02 0 00-.13-.1l-4.66-2.12a1.17 1.17 0 00-.97 2.12l2.42 1.1A27.96 27.96 0 007 35a1.17 1.17 0 002.33 0c0-9.08 4.8-17.5 12.63-22.1l-.84 1.76a1.17 1.17 0 002.1 1.01l2.33-4.87v-.03c.04-.08.06-.17.07-.25l.05-.2c0-.07-.02-.14-.04-.22z"/></g><defs><clipPath id="clip0"><path fill="#fff" d="M0 0h70v70H0z"/></clipPath></defs></svg>