<svg width="60" height="62" viewBox="0 0 60 62" fill="none" xmlns="http://www.w3.org/2000/svg">
<path d="M3.5188e-09 31.0816C0.0295368 38.071 2.41644 44.846 6.77451 50.3104C11.1326 55.7748 17.2069 59.609 24.0146 61.1926C30.8223 62.7761 37.9652 62.0165 44.2875 59.0365C50.6099 56.0564 55.7419 51.0304 58.8531 44.7716C59.203 44.1791 59.3244 43.4791 59.1944 42.8034C59.0645 42.1276 58.6922 41.5226 58.1475 41.1021C57.8169 40.8509 57.4349 40.6757 57.0288 40.589C56.6227 40.5023 56.2025 40.5063 55.7982 40.6007C55.3938 40.695 55.0152 40.8774 54.6894 41.1349C54.3637 41.3923 54.0987 41.7185 53.9134 42.0901C51.8698 46.4185 48.6321 50.0729 44.5816 52.6233C40.531 55.1737 35.8361 56.5137 31.0496 56.4858C26.811 56.4897 22.6389 55.4329 18.9132 53.4119C15.1875 51.3909 12.0267 48.4697 9.71869 44.9146C7.41072 41.3596 6.02893 37.2835 5.69922 33.0578C5.3695 28.832 6.10233 24.591 7.83096 20.7209C9.55958 16.8509 12.2291 13.4748 15.5962 10.9004C18.9633 8.32591 22.9211 6.63485 27.109 5.98123C31.2968 5.32761 35.5817 5.73222 39.5732 7.15819C43.5647 8.58417 47.1359 10.9862 49.9617 14.1454H42.4815C41.7841 14.1327 41.1046 14.3663 40.5625 14.8051C40.0204 15.244 39.6504 15.86 39.5177 16.5447C39.4563 16.9493 39.4836 17.3623 39.5977 17.7553C39.7117 18.1483 39.9099 18.5117 40.1784 18.8205C40.4469 19.1293 40.7793 19.376 41.1526 19.5435C41.5259 19.7111 41.9312 19.7954 42.3404 19.7908H56.4538C57.2025 19.7908 57.9204 19.4934 58.4498 18.9641C58.9791 18.4347 59.2765 17.7167 59.2765 16.9681V2.99579C59.2893 2.29842 59.0557 1.6189 58.6168 1.07679C58.178 0.534675 57.562 0.164701 56.8772 0.0319636C56.4727 -0.0294406 56.0596 -0.00215482 55.6667 0.111931C55.2737 0.226016 54.9102 0.424174 54.6015 0.692673C54.2927 0.961173 54.046 1.29359 53.8784 1.66691C53.7109 2.04022 53.6265 2.4455 53.6311 2.85466V9.77025C49.3637 5.24834 43.8369 2.11178 37.7665 0.76673C31.6961 -0.578319 25.3617 -0.0698969 19.5836 2.22616C13.8054 4.52221 8.84968 8.50014 5.35809 13.6448C1.86651 18.7895 -9.35808e-05 24.8639 3.5188e-09 31.0816Z" fill="#70B2C7"/>
<path d="M45.1628 42.3724C44.6596 42.3828 44.1659 42.2347 43.7515 41.949L28.2267 32.6341V16.9682C28.2267 16.2196 28.5241 15.5016 29.0534 14.9723C29.5828 14.4429 30.3008 14.1455 31.0494 14.1455C31.798 14.1455 32.516 14.4429 33.0453 14.9723C33.5747 15.5016 33.8721 16.2196 33.8721 16.9682V29.5292L46.5742 37.1504C46.8999 37.3254 47.1858 37.5657 47.4142 37.8565C47.6425 38.1472 47.8083 38.482 47.901 38.8398C47.9938 39.1977 48.0116 39.5708 47.9533 39.9359C47.895 40.3009 47.7618 40.65 47.5621 40.9611C47.3297 41.3934 46.983 41.7536 46.56 42.0025C46.1369 42.2513 45.6536 42.3793 45.1628 42.3724Z" fill="#70B2C7"/>
</svg>
