<svg width="30" height="27" viewBox="0 0 30 27" fill="none" xmlns="http://www.w3.org/2000/svg">
<path d="M27.7794 0.00251499C27.3917 0.0205837 27.0265 0.133513 26.7019 0.259994H26.6974C26.3683 0.390991 24.804 1.0505 22.4281 2.04879C20.0523 3.05161 16.9687 4.35255 13.9076 5.64447C7.79445 8.22377 1.78499 10.7624 1.78499 10.7624L1.85712 10.7353C1.85712 10.7353 1.44237 10.8708 1.00958 11.169C0.788676 11.3135 0.545231 11.5123 0.333346 11.824C0.121459 12.1356 -0.0498536 12.6145 0.013262 13.1068C0.116951 13.9425 0.657938 14.4439 1.04564 14.7195C1.43786 14.9995 1.81204 15.1305 1.81204 15.1305H1.82106L7.45633 17.0323C7.70879 17.8454 9.17396 22.6697 9.5256 23.7809C9.73298 24.4449 9.93585 24.8605 10.1883 25.1767C10.31 25.3393 10.4543 25.4749 10.6256 25.5833C10.6932 25.6239 10.7654 25.6556 10.8375 25.6827C10.86 25.6962 10.8826 25.7007 10.9096 25.7052L10.851 25.6917C10.8691 25.6962 10.8826 25.7098 10.8961 25.7143C10.9412 25.7278 10.9727 25.7323 11.0313 25.7414C11.924 26.0124 12.6408 25.4568 12.6408 25.4568L12.6814 25.4252L16.0084 22.3896L21.5851 26.6764L21.7113 26.7306C22.8744 27.2411 24.0511 26.9565 24.6732 26.4551C25.2999 25.9492 25.5433 25.3032 25.5433 25.3032L25.5839 25.1993L29.8937 3.07871C30.0155 2.53213 30.047 2.02169 29.9118 1.5248C29.7765 1.02791 29.4294 0.562645 29.0101 0.3142C28.5863 0.061238 28.1671 -0.0155537 27.7794 0.00251499ZM27.6622 2.37403C27.6577 2.44631 27.6712 2.43727 27.6396 2.5773V2.59086L23.3703 24.4811C23.3523 24.5127 23.3208 24.5805 23.2351 24.6482C23.1449 24.7205 23.0728 24.7657 22.6986 24.6166L15.8777 19.3767L11.7572 23.1395L12.6227 17.6014C12.6227 17.6014 23.3072 7.62299 23.7671 7.19386C24.2269 6.76472 24.0736 6.67438 24.0736 6.67438C24.1052 6.15039 23.3794 6.5208 23.3794 6.5208L9.32724 15.2435L9.32273 15.2209L2.58745 12.9487V12.9442C2.58295 12.9442 2.57393 12.9397 2.56942 12.9397C2.57393 12.9397 2.60549 12.9262 2.60549 12.9262L2.64155 12.9081L2.67762 12.8945C2.67762 12.8945 8.69158 10.3559 14.8047 7.77657C17.8658 6.48466 20.9494 5.18371 23.3208 4.1809C25.6921 3.18261 27.4458 2.45082 27.545 2.41017C27.6396 2.37403 27.5945 2.37403 27.6622 2.37403Z" fill="#C4C4C4"/>
</svg>
