<svg width="67" height="76" viewBox="0 0 67 76" fill="none" xmlns="http://www.w3.org/2000/svg">
<path d="M37.8741 50V54.8M37.8741 50C36.5516 50 35.4825 48.9272 35.4825 47.6C35.4825 46.2728 36.5516 45.2 37.8741 45.2C39.1967 45.2 40.2657 46.2728 40.2657 47.6C40.2657 48.9272 39.1967 50 37.8741 50ZM2 21.2V14C2 7.3712 7.35242 2 13.958 2C20.5637 2 25.9161 7.3712 25.9161 14V30.8H61.7902C63.2108 30.8 64.1818 31.9256 64.1818 33.2V47.6C64.1818 62.18 52.4031 74 37.8741 74C23.3451 74 11.5664 62.18 11.5664 47.6V33.2C11.5664 31.8488 12.6498 30.8 13.958 30.8H18.7413" stroke="#70B2C7" stroke-width="4" stroke-linecap="round" stroke-linejoin="round"/>
</svg>
