<svg width="16" height="10" fill="none" xmlns="http://www.w3.org/2000/svg"><path d="M13.28 5.35c-.26-.32-.19-.47 0-.76 0 0 2.14-2.96 2.36-3.96.1-.36 0-.63-.53-.63h-1.75c-.45 0-.65.23-.76.49 0 0-.9 2.13-2.15 3.51-.4.4-.6.53-.82.53-.1 0-.28-.13-.28-.5V.64c0-.43-.12-.63-.5-.63H6.12c-.28 0-.45.2-.45.4 0 .4.63.5.7 1.67V4.6c0 .56-.1.66-.33.66-.6 0-2.03-2.14-2.89-4.6C2.97.2 2.8 0 2.35 0H.6C.1 0 0 .23 0 .5c0 .45.6 2.71 2.77 5.7C4.2 8.23 6.25 9.33 8.1 9.33c1.12 0 1.25-.24 1.25-.66 0-1.95-.1-2.14.46-2.14.26 0 .7.13 1.74 1.12 1.2 1.16 1.39 1.68 2.05 1.68h1.75c.5 0 .75-.24.6-.73-.32-1.01-2.57-3.1-2.67-3.25z" fill="#fff"/></svg>