<svg width="17" height="10" viewBox="0 0 17 10" fill="none" xmlns="http://www.w3.org/2000/svg">
<path d="M16.5312 0.6875C16.625 0.3125 16.5312 0 15.9688 0H14.125C13.6562 0 13.4375 0.25 13.3125 0.53125C13.3125 0.53125 12.375 2.8125 11.0625 4.3125C10.625 4.71875 10.4375 4.875 10.1875 4.875C10.0938 4.875 9.90625 4.71875 9.90625 4.34375V0.6875C9.90625 0.21875 9.78125 0 9.375 0H6.5C6.1875 0 6.03125 0.21875 6.03125 0.4375C6.03125 0.875 6.6875 0.96875 6.75 2.21875V4.9375C6.75 5.53125 6.65625 5.65625 6.40625 5.65625C5.78125 5.65625 4.28125 3.34375 3.375 0.71875C3.1875 0.21875 3 0 2.53125 0H0.6875C0.1875 0 0.0625 0.25 0.0625 0.53125C0.0625 1.03125 0.6875 3.4375 2.96875 6.65625C4.5 8.84375 6.65625 10 8.59375 10C9.75 10 9.90625 9.75 9.90625 9.3125C9.90625 7.21875 9.8125 7 10.375 7C10.6562 7 11.125 7.15625 12.2188 8.21875C13.4688 9.46875 13.6875 10 14.375 10H16.2188C16.75 10 17 9.75 16.8438 9.21875C16.5 8.15625 14.1562 5.90625 14.0312 5.75C13.75 5.40625 13.8438 5.25 14.0312 4.9375C14.0312 4.9375 16.2812 1.75 16.5312 0.6875Z" fill="#F2F2F2"/>
</svg>
