<svg fill="none" xmlns="http://www.w3.org/2000/svg" viewBox="0 0 61 76"><path d="M17.69 27.78h-1.1v-1.19c0-1.4-1.05-2.54-2.34-2.54h-1.92c-1.29 0-2.34 1.14-2.34 2.54v1.19h-1.1c-1.29 0-2.34 1.14-2.34 2.54v2.09c0 1.4 1.05 2.54 2.34 2.54H10v1.19c0 1.4 1.05 2.54 2.34 2.54h1.92c1.3 0 2.34-1.14 2.34-2.54v-1.19h1.1c1.29 0 2.34-1.14 2.34-2.54v-2.09c0-1.4-1.05-2.54-2.34-2.54zm.29 4.63c0 .17-.14.31-.3.31h-2.11c-.57 0-1.03.5-1.03 1.12v2.3c0 .17-.13.32-.29.32h-1.92c-.16 0-.3-.15-.3-.32v-2.3c0-.62-.45-1.12-1.02-1.12H8.9c-.15 0-.29-.14-.29-.31v-2.09c0-.17.14-.31.3-.31H11c.57 0 1.03-.5 1.03-1.12v-2.3c0-.17.13-.31.3-.31h1.91c.16 0 .3.14.3.31v2.3c0 .62.45 1.12 1.02 1.12h2.12c.15 0 .29.14.29.31v2.09z" fill="#FEFEFE"/><path d="M58.85 23.54c-3.15-3.56-3.21-3.98-3.21-22.43C55.64.5 55.18 0 54.6 0H43.35a.96.96 0 00-.24.03 53.47 53.47 0 01-25.76 0 .95.95 0 00-.22-.03H5.87C5.3 0 4.84.5 4.84 1.11c0 18.45-.06 18.87-3.21 22.43C-.02 25.4-.01 27.05 0 29.14v45C0 75.18.78 76 1.73 76h23.32c.94 0 1.71-.83 1.71-1.85V70.6h6.98v3.54c0 1.02.76 1.85 1.7 1.85h23.33c.94 0 1.71-.83 1.71-1.85v-7.1c0-.61-.46-1.11-1.02-1.11-.57 0-1.03.5-1.03 1.11v6.72H35.78V53.38h22.64v8.53c0 .62.46 1.11 1.02 1.11.57 0 1.03-.5 1.03-1.11V29.13c.02-2.08.03-3.73-1.62-5.59zM24.7 51.15h-9.31c-.57 0-1.03.5-1.03 1.12 0 .61.46 1.1 1.03 1.1h9.31v20.4H2.06V53.38h8.6c.56 0 1.02-.5 1.02-1.11 0-.62-.46-1.12-1.03-1.12h-8.6v-6.07H24.7v6.07zm0-8.3H2.06V29.13c-.02-1.95-.03-2.84 1.04-4.04 3.71-4.19 3.8-5.7 3.8-22.86h9.24c.39 5.7 3.7 10.76 8.56 13v27.62zm9.7-29.41c-.4.16-.67.57-.67 1.04v53.9h-6.98v-53.9c0-.47-.27-.88-.67-1.04C21.74 11.7 18.7 7.4 18.22 2.5a57.6 57.6 0 0012.2 1.33c4 0 7.95-.44 11.83-1.32-.49 4.91-3.52 9.2-7.85 10.93zm24.02 37.71H35.78v-6.07h22.64v6.07zm0-22.04v13.74H35.78V15.24c4.85-2.25 8.17-7.31 8.55-13.01h9.26c0 17.16.08 18.67 3.79 22.86 1.06 1.2 1.06 2.08 1.04 4.02z" fill="#FEFEFE"/><path d="M50.25 28.78h-8.57c-.56 0-1.02.5-1.02 1.11 0 .62.46 1.12 1.02 1.12h8.57c.56 0 1.02-.5 1.02-1.12 0-.61-.46-1.1-1.02-1.1zm0 5.58h-8.57c-.56 0-1.02.5-1.02 1.11 0 .62.46 1.12 1.02 1.12h8.57c.56 0 1.02-.5 1.02-1.12 0-.61-.46-1.11-1.02-1.11zM17.23 58.13h-7.7c-1.33 0-2.41 1.17-2.41 2.61v5.3c0 1.45 1.08 2.62 2.4 2.62h7.71c1.33 0 2.4-1.17 2.4-2.61v-5.3c0-1.45-1.07-2.62-2.4-2.62zm.36 7.92c0 .2-.16.38-.36.38h-7.7a.37.37 0 01-.36-.38v-5.3c0-.22.16-.4.36-.4h7.7c.2 0 .36.18.36.4v5.3zm25.65-7.54c-1.32 0-2.4 1.18-2.4 2.62v5.3c0 1.44 1.08 2.61 2.4 2.61h7.71c1.33 0 2.4-1.17 2.4-2.61v-5.3c0-1.44-1.07-2.62-2.4-2.62h-7.7zm8.07 2.62v5.3c0 .2-.16.38-.36.38h-7.7a.37.37 0 01-.36-.38v-5.3c0-.21.16-.4.35-.4h7.71c.2 0 .36.19.36.4z" fill="#FEFEFE"/><path d="M14.5 62.28h-2.24c-.56 0-1.02.5-1.02 1.12 0 .61.46 1.1 1.02 1.1h2.23c.57 0 1.03-.49 1.03-1.1 0-.62-.46-1.12-1.03-1.12zm33.71.38h-2.23c-.56 0-1.02.5-1.02 1.12 0 .61.46 1.11 1.02 1.11h2.23c.57 0 1.03-.5 1.03-1.11 0-.62-.46-1.12-1.03-1.12z" fill="#FEFEFE"/></svg>