<?xml version="1.0" encoding="utf-8"?>
<svg width="18px" height="21px" viewBox="0 0 18 21" version="1.1" xmlns:xlink="http://www.w3.org/1999/xlink" xmlns="http://www.w3.org/2000/svg">
  <path d="M6 0L12 0L12 2L6 2L6 0ZM16.03 6.39001L17.45 4.97C17.02 4.45999 16.55 3.98001 16.04 3.56L14.62 4.98001C13.07 3.73999 11.12 3 9 3C4.03 3 0 7.03 0 12C0 16.97 4.01999 21 9 21C13.98 21 18 16.97 18 12C18 9.88 17.26 7.92999 16.03 6.39001L16.03 6.39001ZM10 13L8 13L8 7L10 7L10 13L10 13Z" id="Group" fill="#BA4949" fill-rule="evenodd" stroke="none" />
</svg>