<svg width="277" height="80" viewBox="0 0 277 80" fill="none" xmlns="http://www.w3.org/2000/svg">
<mask id="path-1-inside-1_221_35" fill="white">
<path fill-rule="evenodd" clip-rule="evenodd" d="M22.9999 0C17.477 0 12.9999 4.47715 12.9999 10V62.9744L0.143555 75.5H14.6469C16.4356 78.2111 19.5089 80 22.9999 80H267C272.523 80 277 75.5229 277 70V10C277 4.47715 272.523 0 267 0H22.9999Z"/>
</mask>
<path fill-rule="evenodd" clip-rule="evenodd" d="M22.9999 0C17.477 0 12.9999 4.47715 12.9999 10V62.9744L0.143555 75.5H14.6469C16.4356 78.2111 19.5089 80 22.9999 80H267C272.523 80 277 75.5229 277 70V10C277 4.47715 272.523 0 267 0H22.9999Z" fill="white"/>
<path d="M12.9999 62.9744L13.6977 63.6906L13.9999 63.3962V62.9744H12.9999ZM0.143555 75.5L-0.554281 74.7837L-2.31585 76.5H0.143555V75.5ZM14.6469 75.5L15.4816 74.9493L15.1852 74.5H14.6469V75.5ZM13.9999 10C13.9999 5.02944 18.0293 1 22.9999 1V-1C16.9248 -1 11.9999 3.92487 11.9999 10H13.9999ZM13.9999 62.9744V10H11.9999V62.9744H13.9999ZM0.84139 76.2163L13.6977 63.6906L12.302 62.2581L-0.554281 74.7837L0.84139 76.2163ZM14.6469 74.5H0.143555V76.5H14.6469V74.5ZM22.9999 79C19.8589 79 17.0931 77.3918 15.4816 74.9493L13.8122 76.0507C15.7781 79.0304 19.1588 81 22.9999 81V79ZM267 79H22.9999V81H267V79ZM276 70C276 74.9706 271.97 79 267 79V81C273.075 81 278 76.0751 278 70H276ZM276 10V70H278V10H276ZM267 1C271.97 1 276 5.02944 276 10H278C278 3.92487 273.075 -1 267 -1V1ZM22.9999 1H267V-1H22.9999V1Z" fill="#70B2C7" mask="url(#path-1-inside-1_221_35)"/>
</svg>
