<svg width="32" height="32" viewBox="0 0 32 32" fill="none" xmlns="http://www.w3.org/2000/svg">
<rect width="32" height="32" rx="4" fill="#212121"/>
<path d="M12.9697 4.33337V25.5H10.9999V4.33337H12.9697ZM21.1515 24.5627V25.5H12.8788V24.5627H21.1515ZM23 20.6015L21.2424 25.5H16.2121L17.303 24.5627C18.3737 24.5627 19.2474 24.3964 19.9242 24.0637C20.6009 23.7311 21.1515 23.2624 21.5757 22.6577C21.9999 22.0529 22.3737 21.3675 22.6969 20.6015H23ZM11.0909 23.2926V25.5H8.66663V25.1976C8.66663 25.1976 8.73232 25.1976 8.86358 25.1976C8.99491 25.1976 9.06061 25.1976 9.06061 25.1976C9.58585 25.1976 10.0353 25.0112 10.4091 24.6383C10.7828 24.2653 10.9798 23.8168 10.9999 23.2926H11.0909ZM11.0909 6.54072H10.9999C10.9798 6.0166 10.7828 5.56809 10.4091 5.19514C10.0353 4.82218 9.58585 4.63571 9.06061 4.63571C9.06061 4.63571 8.99491 4.63571 8.86358 4.63571C8.73232 4.63571 8.66663 4.63571 8.66663 4.63571V4.33337H11.0909V6.54072ZM12.8788 6.54072V4.33337H15.303V4.63571C15.2828 4.63571 15.2121 4.63571 15.0909 4.63571C14.9697 4.63571 14.9091 4.63571 14.9091 4.63571C14.3838 4.63571 13.9343 4.82218 13.5606 5.19514C13.1868 5.56809 12.9899 6.0166 12.9697 6.54072H12.8788Z" fill="#DFB53F"/>
<path d="M18.8815 16.2992C18.0455 17.6256 17.079 19.4172 15.9809 21.6835C14.8822 23.9469 14.1024 25.4717 13.6403 26.252C13.0692 27.24 12.459 28.0229 11.8111 28.6067C11.1627 29.1876 10.506 29.5477 9.8376 29.6849C9.25834 29.8038 8.75979 29.758 8.34197 29.5473C7.92475 29.3396 7.6669 29.0035 7.57142 28.5384C7.49296 28.1562 7.56807 27.798 7.79905 27.4604C8.03002 27.1227 8.34004 26.914 8.72623 26.8347C8.99951 26.7786 9.23393 26.8046 9.42295 26.9109C9.61489 27.0166 9.73281 27.1838 9.78026 27.4149C9.82891 27.652 9.79534 27.8503 9.67652 28.0106C9.55774 28.1708 9.36912 28.2774 9.10769 28.3311C8.95026 28.3634 8.76885 28.3543 8.55632 28.2992C8.34731 28.2463 8.2158 28.224 8.16233 28.2349C8.09994 28.2477 8.05255 28.2883 8.02315 28.3561C7.9961 28.4203 7.99109 28.5017 8.00994 28.5935C8.06589 28.8661 8.26248 29.0696 8.5967 29.2048C8.93452 29.3423 9.31995 29.3651 9.75663 29.2755C10.1309 29.1986 10.5066 29.0381 10.8778 28.7952C11.2466 28.5559 11.6192 28.2293 11.9967 27.8214C12.7937 26.9384 14.0679 24.6853 15.8228 21.0645C16.1363 20.4196 16.379 19.9283 16.544 19.5857C17.3488 17.9415 18.0699 16.5985 18.7045 15.5574C19.339 14.5163 19.7635 13.9753 19.9715 13.9326C20.0011 13.9265 20.0232 13.9282 20.041 13.94C20.0589 13.9517 20.0698 13.9742 20.0752 14.0008C20.0959 14.1016 20.0204 14.4876 19.8468 15.1655C19.6763 15.8427 19.5674 16.4888 19.5226 17.1C19.5029 17.4715 19.4789 18.0631 19.4528 18.8712C19.3594 21.7187 19.076 24.0031 18.5992 25.722L21.5701 20.0916C22.8766 17.6188 24.0204 15.7259 24.9962 14.4172C25.9721 13.1084 26.7835 12.3861 27.4281 12.2537C27.538 12.2312 27.6248 12.2319 27.6921 12.2582C27.7565 12.2851 27.7972 12.3324 27.8111 12.4005C27.8312 12.4983 27.7264 12.6062 27.4926 12.7191C27.2595 12.8349 27.0708 12.9415 26.9274 13.042C26.2766 13.5213 25.5855 14.2715 24.8552 15.2983C24.1248 16.3251 23.3134 17.6959 22.4209 19.4105L18.3182 27.2185C18.1544 27.5362 18.0193 27.7677 17.9117 27.9071C17.804 28.0465 17.7116 28.1242 17.6374 28.1394C17.5898 28.1492 17.5512 28.1417 17.5177 28.1146C17.4843 28.0875 17.4639 28.0484 17.453 27.9951C17.4438 27.9507 17.4835 27.7819 17.572 27.489C17.6575 27.1966 17.7282 26.9228 17.7788 26.6716C17.9152 25.9488 18.0008 25.0389 18.0351 23.9389C18.0395 23.7341 18.0453 23.5817 18.0502 23.4849L18.0589 23.301C18.157 20.6872 18.43 18.3525 18.8815 16.2992Z" fill="#FEFEFE"/>
</svg>
