<svg width="30" height="30" viewBox="0 0 30 30" fill="none" xmlns="http://www.w3.org/2000/svg">
<path d="M17.6214 17.6562C18.4079 18.0925 19.19 18.4651 19.9526 18.8639C20.7164 19.2583 21.4623 19.6652 22.1794 20.1081C22.8957 20.5513 23.5845 21.0298 24.2271 21.5733C24.8738 22.1161 25.4624 22.7282 26.03 23.4345C25.8422 22.5389 25.3717 21.7107 24.7824 21.006C24.1883 20.2997 23.4695 19.7119 22.6981 19.2374C21.9249 18.7611 21.097 18.3927 20.2456 18.1233C19.3927 17.8598 18.5165 17.6812 17.6214 17.6562V17.6562Z" fill="#57A7B3"/>
<path d="M4.49798 6.12261C4.98773 5.80895 5.48682 5.51524 5.99074 5.23212C5.99959 5.25752 6.01014 5.28335 6.02245 5.30963C6.05392 5.37691 6.09471 5.43839 6.14103 5.49331C5.59948 5.716 5.05339 5.92929 4.49798 6.12261V6.12261Z" fill="#1B75BC"/>
<path d="M7.49015 4.59753C7.46706 4.54813 7.44008 4.50316 7.40966 4.46116C7.60563 4.35966 7.80209 4.2592 7.99757 4.15664L9.19271 3.56272L10.3992 2.99298C10.8054 2.81144 11.2075 2.62156 11.6176 2.44841C12.4342 2.09486 13.2577 1.75602 14.1029 1.46344C13.3467 1.94631 12.5694 2.384 11.7853 2.80694C11.3948 3.02212 10.9967 3.22039 10.6023 3.42716L9.40761 4.02215L8.20164 4.59293C7.98862 4.68725 7.77706 4.78468 7.56516 4.88104C7.55662 4.78455 7.53294 4.68898 7.49015 4.59753V4.59753Z" fill="#1B75BC"/>
<path d="M14.6908 3.99942C14.6721 3.95946 14.6505 3.92354 14.6264 3.88746C15.151 3.66912 15.6789 3.45819 16.2133 3.26087C15.7256 3.55805 15.2326 3.84366 14.7351 4.11982C14.7232 4.07911 14.7095 4.03938 14.6908 3.99942V3.99942Z" fill="#1B75BC"/>
<path d="M7.37299 7.32818C7.84965 7.07118 8.33414 6.831 8.8147 6.58241L10.2682 5.86192L11.7334 5.16667C12.2094 4.95123 12.6819 4.72851 13.1609 4.51937C13.1737 4.5841 13.1939 4.64913 13.2229 4.71118C13.2519 4.77319 13.2883 4.82906 13.3301 4.88102C12.8688 5.128 12.4012 5.36125 11.9365 5.60088L10.4831 6.32135L9.01831 7.01767C8.5259 7.24102 8.03748 7.47278 7.54117 7.68772C6.55264 8.12597 5.5561 8.54743 4.53842 8.9237C5.46661 8.35609 6.41593 7.83371 7.37299 7.32818V7.32818Z" fill="#1B75BC"/>
<path d="M5.31757 11.3668C5.68781 11.1433 6.06146 10.9273 6.43659 10.7143C6.44695 10.7454 6.45846 10.7759 6.47273 10.8064C6.48699 10.8369 6.50302 10.8653 6.5202 10.893C6.12146 11.0555 5.72172 11.2159 5.31757 11.3668V11.3668Z" fill="#1B75BC"/>
<path d="M7.94059 10.0944C7.91453 10.0387 7.88294 9.98821 7.84701 9.94116C7.99799 9.86018 8.14887 9.77923 8.30043 9.69929C8.80163 9.43038 9.3109 9.17819 9.81615 8.91763L11.3442 8.16226L12.8836 7.43102C13.4006 7.19569 13.9137 6.95196 14.4347 6.72505C15.4727 6.26282 16.5187 5.81738 17.5851 5.41619C16.6077 6.00768 15.6084 6.55297 14.6019 7.08251C14.1006 7.35145 13.5919 7.60467 13.0867 7.8652L11.5591 8.62168L10.0197 9.35286C9.50269 9.58818 8.98949 9.83195 8.46864 10.0588C8.31216 10.1283 8.15534 10.1966 7.99848 10.2649C7.98573 10.2079 7.96667 10.1501 7.94059 10.0944V10.0944Z" fill="#1B75BC"/>
<path d="M9.63782 11.8727C10.095 11.6238 10.5611 11.3939 11.0223 11.1534L12.4196 10.4614L13.8283 9.79367C14.2072 9.62143 14.5846 9.44611 14.9647 9.27595C14.9776 9.34448 14.998 9.41201 15.0284 9.47721C15.0594 9.54344 15.0981 9.60205 15.1417 9.65442C14.7731 9.84872 14.4015 10.0367 14.0313 10.2278L12.6345 10.9208L11.2264 11.5897C10.7523 11.8029 10.2834 12.0265 9.80553 12.2312C8.85454 12.6512 7.89639 13.0554 6.91591 13.4123C7.80641 12.863 8.71832 12.36 9.63782 11.8727V11.8727Z" fill="#1B75BC"/>
<path d="M16.4964 8.76543C16.4767 8.7234 16.4526 8.68347 16.4266 8.64578C16.9917 8.40907 17.5608 8.18075 18.1378 7.96925C17.6134 8.29324 17.0807 8.59934 16.5441 8.89705C16.5318 8.85275 16.5165 8.80854 16.4964 8.76543V8.76543Z" fill="#1B75BC"/>
<path d="M9.26482 15.0954C9.56488 14.8982 9.86927 14.7106 10.1762 14.5282C10.186 14.557 10.1974 14.5863 10.2102 14.6136C10.2294 14.6546 10.2527 14.6936 10.2772 14.7294C9.94283 14.8581 9.60597 14.9815 9.26482 15.0954V15.0954Z" fill="#1B75BC"/>
<path d="M11.6781 13.9013C11.6505 13.8424 11.6166 13.7892 11.5783 13.7407C12.2113 13.4014 12.8493 13.0726 13.4952 12.7606C14.2181 12.4099 14.9495 12.0771 15.6882 11.7601C16.427 11.443 17.1731 11.1417 17.9409 10.8866C17.2621 11.332 16.5627 11.7331 15.8554 12.1175C15.1481 12.5018 14.4335 12.8704 13.7101 13.2201C13.0626 13.5367 12.4069 13.8354 11.7458 14.1226C11.7338 14.0483 11.712 13.9738 11.6781 13.9013Z" fill="#1B75BC"/>
<path d="M15.2041 15.035C15.1682 14.9583 15.1223 14.8903 15.0682 14.8301C15.3035 14.7262 15.5409 14.6265 15.7817 14.5342C16.1942 14.378 16.6132 14.2354 17.0533 14.138C16.7022 14.4257 16.3294 14.6671 15.9504 14.8949C15.7278 15.026 15.5026 15.1521 15.2746 15.2717C15.2634 15.192 15.24 15.1117 15.2041 15.035Z" fill="#1B75BC"/>
<path d="M13.4063 15.6852C13.4939 15.6337 13.582 15.5832 13.67 15.5328C13.6825 15.6054 13.7038 15.6776 13.7363 15.747C13.7687 15.8164 13.8103 15.8788 13.858 15.9343C13.7645 15.9732 13.6705 16.0111 13.5755 16.0468C13.1629 16.2031 12.744 16.3457 12.3034 16.442C12.6545 16.1544 13.0272 15.9129 13.4063 15.6852V15.6852Z" fill="#1B75BC"/>
<path d="M13.3212 23.0014C13.7246 22.731 14.1374 22.4804 14.5546 22.2394C14.567 22.2862 14.5834 22.3337 14.6045 22.3789C14.6262 22.4252 14.6521 22.4681 14.68 22.5074C14.2333 22.6854 13.7821 22.854 13.3212 23.0014Z" fill="#1B75BC"/>
<path d="M16.0724 21.6667C16.039 21.5953 15.9954 21.53 15.9454 21.4729C16.3801 21.2441 16.8186 21.0236 17.2602 20.8094C17.935 20.4834 18.6158 20.1699 19.3069 19.8786C19.9974 19.5862 20.6948 19.3085 21.4134 19.076C20.7838 19.4988 20.1327 19.8753 19.4741 20.236C18.8169 20.5999 18.149 20.9407 17.4751 21.2688C17.0335 21.483 16.5891 21.6908 16.1407 21.8903C16.1287 21.8149 16.1064 21.7393 16.0724 21.6667V21.6667Z" fill="#1B75BC"/>
<path d="M22.7232 21.263C22.7075 21.2294 22.6888 21.1971 22.6699 21.1677C23.0746 21.0036 23.4817 20.8448 23.8933 20.6954C23.5201 20.9268 23.1424 21.1487 22.7623 21.3653C22.7513 21.3307 22.739 21.2967 22.7232 21.263Z" fill="#1B75BC"/>
<path d="M15.6342 24.4811C16.0785 24.2398 16.5307 24.0153 16.979 23.7824L18.3356 23.1089L19.7039 22.4606C20.1641 22.2529 20.6207 22.0379 21.0847 21.8386C21.1212 21.8222 21.1582 21.8068 21.1947 21.7904C21.2076 21.8525 21.2274 21.9151 21.2554 21.9751C21.2835 22.035 21.3182 22.0891 21.3574 22.1384C21.3225 22.1579 21.2874 22.1775 21.2519 22.196C20.8076 22.4374 20.3554 22.6619 19.907 22.8948L18.5505 23.5683L17.1825 24.2176C16.7225 24.4253 16.2664 24.6414 15.8019 24.8396C14.8778 25.2466 13.9463 25.6378 12.9933 25.9827C13.8568 25.4465 14.7415 24.9554 15.6342 24.4811V24.4811Z" fill="#1B75BC"/>
<path d="M14.1505 28.3199C13.887 28.4258 13.622 28.5285 13.3555 28.6281C13.5994 28.4802 13.8452 28.3364 14.0915 28.1937C14.0997 28.2155 14.1081 28.2373 14.1179 28.2583C14.1278 28.2793 14.139 28.2997 14.1505 28.3199Z" fill="#1B75BC"/>
<path d="M15.5855 27.546C15.5624 27.4966 15.5343 27.4495 15.5029 27.4068C15.7856 27.2542 16.0687 27.1026 16.3529 26.9532C16.8567 26.683 17.3683 26.4297 17.8761 26.1679L19.411 25.4079L20.9583 24.6741C21.4773 24.4366 21.9934 24.1927 22.5168 23.9646C23.5598 23.5 24.6106 23.0521 25.6821 22.6485C24.6996 23.2424 23.6955 23.7901 22.684 24.322C22.1802 24.5922 21.6691 24.8466 21.1613 25.1083L19.6264 25.8684L18.0797 26.6031C17.56 26.8397 17.0446 27.0846 16.5211 27.3127C16.228 27.4432 15.9341 27.5717 15.6396 27.699C15.6268 27.6472 15.6091 27.5964 15.5855 27.546Z" fill="#1B75BC"/>
<path d="M6.96472 9.93313C7.24492 9.79722 7.58156 9.91898 7.71483 10.2039C7.84811 10.4888 7.72882 10.8317 7.44862 10.9676C7.16843 11.1035 6.83191 10.9817 6.69867 10.6968C6.56539 10.4119 6.68453 10.069 6.96472 9.93313V9.93313Z" fill="#5CA595"/>
<path d="M15.5204 8.60404C15.8006 8.46813 16.1372 8.58989 16.2705 8.87481C16.4042 9.16074 16.285 9.50367 16.0048 9.63957C15.7246 9.77548 15.388 9.65366 15.2543 9.36773C15.121 9.08281 15.2402 8.73994 15.5204 8.60404Z" fill="#5CA595"/>
<path d="M10.7021 13.7401C10.9823 13.6042 11.3189 13.726 11.4522 14.0109C11.586 14.2969 11.4667 14.6398 11.1865 14.7757C10.9063 14.9116 10.5698 14.7898 10.4361 14.5038C10.3028 14.2189 10.4219 13.876 10.7021 13.7401V13.7401Z" fill="#5CA595"/>
<path d="M14.2283 14.8737C14.5083 14.7379 14.845 14.8597 14.9783 15.1445C15.1115 15.4295 14.9922 15.7724 14.7122 15.9082C14.432 16.0441 14.0954 15.9224 13.9621 15.6375C13.8288 15.3525 13.9481 15.0096 14.2283 14.8737V14.8737Z" fill="#5CA595"/>
<path d="M13.7149 3.83814C13.9951 3.70224 14.3311 3.82298 14.4649 4.10894C14.5981 4.39386 14.479 4.73673 14.1988 4.87264C13.9186 5.00855 13.582 4.88676 13.4487 4.60187C13.3149 4.31591 13.4347 3.97405 13.7149 3.83814V3.83814Z" fill="#5CA595"/>
<path d="M6.51393 4.43532C6.794 4.29945 7.13064 4.42121 7.26391 4.70613C7.39768 4.99209 7.27839 5.33499 6.99832 5.47087C6.71813 5.60677 6.38149 5.48498 6.24775 5.19902C6.11447 4.91413 6.23373 4.57123 6.51393 4.43532V4.43532Z" fill="#5CA595"/>
<path d="M15.0965 21.5056C15.3767 21.3697 15.7132 21.4915 15.8465 21.7764C15.9802 22.0623 15.8611 22.4052 15.5809 22.5411C15.3007 22.677 14.9641 22.5553 14.8303 22.2693C14.697 21.9844 14.8163 21.6415 15.0965 21.5056Z" fill="#5CA595"/>
<path d="M21.7474 21.1016C22.0276 20.9656 22.3636 21.0864 22.4974 21.3724C22.6307 21.6573 22.5115 22.0001 22.2313 22.136C21.9511 22.2719 21.6145 22.1502 21.4813 21.8653C21.3475 21.5793 21.4673 21.2375 21.7474 21.1016V21.1016Z" fill="#5CA595"/>
<path d="M14.6098 27.3848C14.89 27.2489 15.2265 27.3707 15.3598 27.6556C15.4931 27.9405 15.3739 28.2834 15.0937 28.4193C14.8135 28.5552 14.4769 28.4334 14.3436 28.1485C14.2103 27.8636 14.3296 27.5207 14.6098 27.3848V27.3848Z" fill="#5CA595"/>
<path fill-rule="evenodd" clip-rule="evenodd" d="M13.2166 0.102591C13.9544 0.0159998 14.7079 -0.0168666 15.473 0.00815298C23.7528 0.279019 30.2538 7.2106 29.9924 15.4903C29.7314 23.7701 22.8072 30.2626 14.5268 29.9918C6.24703 29.7209 -0.253388 22.7894 0.00759127 14.5096C0.116235 11.0631 1.38004 7.92699 3.41493 5.45882C4.14004 4.5792 5.62197 3.2317 6.52206 2.61501C7.93331 1.648 9.51695 0.917239 11.2144 0.477412C11.5722 0.384675 12.8417 0.14658 13.2166 0.102591V0.102591ZM13.5285 28.6742C13.2625 27.4228 13.2928 26.1559 13.4908 24.9313C13.7323 23.4649 14.1973 22.0437 14.7753 20.6773C15.0638 19.993 15.3862 19.3233 15.7299 18.669C15.9025 18.3454 16.0869 18.0199 16.2679 17.718L16.4216 17.4628L16.5724 17.1988C16.6712 17.0231 16.7665 16.8479 16.8598 16.6711C17.5939 15.2536 18.1871 13.7636 18.5886 12.1913C18.7824 11.4034 18.9287 10.5972 19.003 9.77308C19.0712 8.95059 19.07 8.10764 18.9495 7.26703C18.8284 6.42938 18.6021 5.58978 18.2284 4.81272C18.0469 4.42357 17.8303 4.05004 17.5854 3.70452C17.3415 3.35715 17.0726 3.03227 16.7845 2.73342C16.4998 2.43045 16.1921 2.15533 15.8732 1.90242C15.5778 1.66426 15.2729 1.44413 14.9575 1.24552C15.1157 1.2453 15.2744 1.24757 15.4336 1.25277C23.0264 1.50113 28.9871 7.85732 28.7479 15.4496C28.5083 23.042 22.1592 28.9954 14.5662 28.7471C14.2167 28.7356 13.8706 28.711 13.5285 28.6742V28.6742ZM13.0197 1.38426C14.0376 2.05292 14.9655 2.82666 15.6853 3.7349C15.9047 4.00636 16.1007 4.29179 16.2716 4.58815C16.4475 4.88205 16.5987 5.18531 16.7192 5.50221C16.9631 6.13069 17.1197 6.799 17.1835 7.4878C17.2507 8.17621 17.2414 8.88369 17.159 9.59177C17.0856 10.3007 16.9511 11.0121 16.7718 11.717C16.6005 12.4243 16.3751 13.1231 16.1229 13.8143C15.8765 14.5078 15.5842 15.1874 15.2757 15.8556C15.1973 16.0213 15.1182 16.1874 15.0368 16.3507L14.9133 16.5925L14.7814 16.8357C14.5835 17.2 14.4176 17.5578 14.2529 17.9227C14.0907 18.2865 13.9358 18.6531 13.7934 19.024C13.6546 19.397 13.5199 19.7707 13.3992 20.1504C13.275 20.5279 13.1689 20.9122 13.0707 21.2991C12.9736 21.6853 12.8826 22.0739 12.8153 22.4677C12.6728 23.254 12.5835 24.0519 12.5769 24.8535C12.5722 25.6542 12.6441 26.4589 12.8276 27.2341C12.9409 27.7224 13.1007 28.1988 13.3074 28.6477C6.32575 27.7821 1.02611 21.7176 1.25221 14.5503C1.33455 11.9403 2.13887 9.52399 3.46754 7.48673C3.47388 7.84891 3.49746 8.21254 3.54255 8.57627C3.65128 9.40964 3.86238 10.2462 4.21904 11.0252C4.38691 11.4184 4.60373 11.7892 4.83507 12.1426C5.06894 12.4948 5.33614 12.8179 5.61401 13.1255C5.89037 13.4339 6.19644 13.7085 6.50736 13.9691C6.81856 14.2296 7.14418 14.4651 7.47943 14.6817C8.14785 15.1172 8.85145 15.4737 9.5695 15.7703C10.2884 16.0666 11.0233 16.3034 11.7657 16.4889C12.5081 16.6769 13.2601 16.8088 14.0146 16.8891C12.6045 16.3245 11.2367 15.7007 9.97935 14.9292C8.7264 14.162 7.57378 13.2506 6.73143 12.145C6.52314 11.868 6.32764 11.585 6.1658 11.2856C6.00381 10.9875 5.85049 10.6878 5.74218 10.3689C5.51106 9.73804 5.36597 9.07061 5.31135 8.38255C5.25878 7.69476 5.27741 6.9905 5.36399 6.2868C5.41263 5.84773 5.48455 5.40831 5.57589 4.97047C7.58844 3.07973 10.1677 1.79239 13.0197 1.38426V1.38426Z" fill="#57A7B3"/>
</svg>
