<svg width="32" height="32" viewBox="0 0 32 32" fill="none" xmlns="http://www.w3.org/2000/svg">
<path d="M31.9928 3.55877C32.0242 3.4229 31.9504 3.29145 31.8293 3.26337L27.735 2.37193C27.6138 2.34347 27.5125 2.43446 27.51 2.57589L26.998 22.6881C26.8164 22.6643 26.6002 22.6414 26.3514 22.621L26.8973 2.68323L26.5609 1.61067C26.5199 1.47979 26.3919 1.4081 26.2768 1.45461L25.4 1.80914L25.3941 22.5935C25.2496 22.5945 25.1004 22.5983 24.946 22.6041L24.9544 1.44009L24.2533 0.699351C24.1643 0.605133 23.9974 0.562095 23.8796 0.609677L22.9926 0.968374L24.6452 22.6219C24.5007 22.6332 24.3516 22.6462 24.2007 22.6637L22.5303 0.74302L21.7412 0.13461C21.6393 0.056042 21.4768 0.0646265 21.379 0.147675L20.5956 0.835597L23.8417 22.7122C23.6971 22.73 23.5491 22.7567 23.3985 22.7842L20.1766 1.06934L18.9843 0.0584412C18.8864 -0.026374 18.7302 -0.0169081 18.6379 0.0740915L17.4661 1.24383L22.899 22.8929C22.7565 22.9262 22.6113 22.9619 22.4651 23.004L16.995 1.21739L16.1272 0.811304C16.054 0.776721 15.9597 0.778172 15.8782 0.808715L15.8603 0.815972C15.8216 0.833074 15.7865 0.85674 15.759 0.886526L14.5574 2.13275L21.6552 23.2712C21.5121 23.3222 21.3708 23.3793 21.2329 23.4385L14.1154 2.23782L12.9892 2.02976C12.8693 2.00433 12.7131 2.08138 12.6436 2.19617L12.0271 3.21232L21.1008 23.4953C20.9606 23.5556 20.8208 23.6189 20.6852 23.684L11.6503 3.48544L10.255 3.14542C10.1344 3.11715 10.0099 3.20102 9.97954 3.33746L9.7934 4.11859L20.5348 23.7576C20.3943 23.8281 20.2566 23.8969 20.1228 23.968L9.3824 4.32873L8.39498 4.17166C8.2747 4.15374 8.17521 4.25061 8.17555 4.39159L8.17366 5.62715L19.9574 24.0613C19.82 24.141 19.6851 24.2185 19.553 24.2952L7.8498 5.98616L6.33549 5.82107L6.38212 7.52993L19.3563 24.4185C19.2179 24.5044 19.085 24.5882 18.959 24.6758L5.97239 7.76602L4.98941 7.95938C4.86708 7.9814 4.83751 8.0842 4.91994 8.18814L18.4508 25.0287C17.9024 25.4244 17.4838 25.7815 17.2311 26.0112L4.03173 9.26701C3.94925 9.16288 3.82014 9.16477 3.7416 9.27376L2.37402 11.1628C2.29482 11.2684 2.24296 11.4694 2.26058 11.6095L2.62574 14.8531L0.241777 16.1993C0.130952 16.2601 0.0404681 16.4245 0.0381338 16.5658C0.0276849 17.0114 0.00789816 17.9375 6.14844e-05 18.3818C-0.002384 18.5234 0.0684261 18.7125 0.157909 18.8109L12.3398 31.9217C12.4293 32.0201 12.5786 32.0263 12.6741 31.9371L16.0097 28.8645L17.9425 26.9146C22.1055 23.7559 27.3003 23.7843 27.3003 23.7843L27.4612 23.2067L27.4766 23.2175C27.4766 23.2175 27.576 22.7928 27.575 22.7897L31.9928 3.55877V3.55877ZM9.32526 21.8866L7.8762 23.3492L7.27456 22.7283L8.73757 21.2732L9.32526 21.8866V21.8866ZM1.42489 17.7459L2.29204 17.1441L2.02543 16.8405L3.46271 15.7633L4.0589 16.3859L2.64102 17.5421L2.45272 17.327L1.59636 17.9241L1.42489 17.7459V17.7459ZM2.64886 19.0154L3.4512 18.4527L3.23505 18.2061L4.71807 17.0973L5.3205 17.7105L3.84776 18.9087L3.61305 18.6385L2.81915 19.1907L2.64886 19.0154V19.0154ZM3.99376 20.4092L4.89632 19.7806L4.6954 19.5532L6.09338 18.5097L6.68942 19.1326L5.31083 20.2557L5.05544 19.9673L4.16262 20.5888L3.99376 20.4092V20.4092ZM5.57989 22.0543L7.54945 20.0335L7.71613 20.2068L5.74607 22.2255L5.57989 22.0543V22.0543ZM6.2928 22.7939L8.26325 20.7761L8.42632 20.9474L6.45815 22.9652L6.2928 22.7939ZM7.63065 24.1845L9.62728 22.2022L9.7929 22.3735L7.79783 24.3586L7.63065 24.1845V24.1845ZM8.71867 24.2768L10.1786 22.7763L10.8424 23.4722L9.33804 24.9741L8.71867 24.2768ZM10.0995 26.7451L9.93413 26.574L11.8934 24.5667L12.0563 24.7389L10.0995 26.7451ZM11.4272 28.1194L12.066 27.4871L11.7802 27.1971L13.0731 25.8008L13.8403 26.6015L12.542 27.9705L12.2344 27.6563L11.5933 28.2932L11.4272 28.1194V28.1194ZM12.3372 29.0672L14.3233 27.1061L14.4885 27.2767L12.5071 29.2402L12.3372 29.0672ZM14.4351 29.5782L14.0469 29.1868L15.226 28.0498L15.594 28.46L14.4351 29.5782V29.5782Z" fill="#2C2C2C"/>
</svg>
