<svg width="25" height="26" viewBox="0 0 25 26" fill="none" xmlns="http://www.w3.org/2000/svg">
<path d="M12.1511 25.907C12.1055 25.9069 12.0612 25.8919 12.0249 25.8643C11.9885 25.8366 11.962 25.7978 11.9494 25.7536C11.9368 25.7094 11.9387 25.6623 11.9549 25.6193C11.9711 25.5763 12.0007 25.5399 12.0393 25.5153L14.4857 23.9568L11.3004 25.8132C11.2528 25.8401 11.1967 25.8473 11.1439 25.8332C11.0912 25.8191 11.0459 25.7848 11.0177 25.7377C10.9895 25.6905 10.9807 25.6341 10.9929 25.5804C11.0052 25.5267 11.0377 25.4799 11.0835 25.45L13.9549 23.6365L10.4292 25.6893C10.3816 25.7157 10.3258 25.7225 10.2735 25.7083C10.2211 25.6941 10.1762 25.66 10.1481 25.6132C10.12 25.5663 10.111 25.5103 10.1229 25.4569C10.1348 25.4035 10.1667 25.3568 10.2119 25.3265L14.98 22.2927L9.50833 25.4814C9.46065 25.5075 9.40482 25.514 9.35252 25.4995C9.30022 25.485 9.2555 25.4506 9.22771 25.4036C9.19991 25.3566 9.1912 25.3005 9.2034 25.2472C9.2156 25.1938 9.24775 25.1473 9.29314 25.1173L11.6366 23.6607L8.84596 25.2871C8.79825 25.3128 8.74255 25.319 8.69044 25.3043C8.63833 25.2896 8.59384 25.2552 8.56622 25.2083C8.5386 25.1613 8.52999 25.1054 8.54217 25.0522C8.55435 24.999 8.58639 24.9525 8.63162 24.9226L8.75771 24.8454L8.31977 25.0999C8.27212 25.1291 8.21493 25.138 8.16078 25.1247C8.10663 25.1113 8.05996 25.0768 8.03104 25.0287C8.00211 24.9805 7.9933 24.9228 8.00654 24.8681C8.01978 24.8135 8.05399 24.7664 8.10164 24.7372L16.2635 19.4965L7.35901 24.6867C7.31121 24.7129 7.25519 24.7194 7.20273 24.7048C7.15028 24.6902 7.10549 24.6556 7.07777 24.6083C7.05006 24.5611 7.04159 24.5048 7.05414 24.4513C7.0667 24.3979 7.0993 24.3514 7.14508 24.3217L7.5847 24.0527L6.90048 24.4516C6.85266 24.4805 6.79542 24.4891 6.74135 24.4754C6.68728 24.4617 6.64081 24.4269 6.61217 24.3786C6.58352 24.3303 6.57504 24.2725 6.5886 24.218C6.60215 24.1634 6.63664 24.1164 6.68445 24.0875L12.9984 20.1414L6.24736 24.0748C6.19959 24.1015 6.14342 24.1083 6.09074 24.0939C6.03805 24.0795 5.99299 24.045 5.96508 23.9976C5.93718 23.9502 5.92862 23.8938 5.94122 23.8402C5.95382 23.7865 5.98659 23.74 6.0326 23.7103L11.479 20.3315L5.68965 23.7056C5.64172 23.7344 5.58444 23.7428 5.53041 23.7289C5.47638 23.715 5.43002 23.68 5.40154 23.6316C5.37306 23.5832 5.36479 23.5254 5.37854 23.4708C5.3923 23.4163 5.42695 23.3695 5.47488 23.3407L9.50959 20.8581L5.21767 23.3586C5.16993 23.3857 5.11358 23.393 5.06062 23.3788C5.00766 23.3646 4.96228 23.3301 4.93416 23.2826C4.90605 23.2351 4.89741 23.1784 4.91009 23.1246C4.92278 23.0708 4.95578 23.0241 5.00207 22.9945L11.7804 18.7794L4.68097 22.9177C4.63326 22.9455 4.57665 22.9532 4.52333 22.9393C4.47002 22.9254 4.42425 22.8908 4.39588 22.8432C4.36751 22.7955 4.35881 22.7385 4.37165 22.6844C4.38449 22.6304 4.41784 22.5836 4.46452 22.5541L13.388 16.948L4.08753 22.3691C4.03963 22.396 3.9832 22.403 3.93028 22.3885C3.87736 22.374 3.83214 22.3392 3.80428 22.2915C3.77642 22.2438 3.76812 22.1871 3.78115 22.1333C3.79418 22.0795 3.82751 22.033 3.87403 22.0037L4.22412 21.7916L3.77862 22.0508C3.73088 22.0762 3.67528 22.0821 3.62335 22.0673C3.57142 22.0524 3.52714 22.018 3.49969 21.9711C3.47223 21.9241 3.46372 21.8684 3.4759 21.8153C3.48808 21.7622 3.52003 21.7159 3.56512 21.6859L5.89012 20.2674L3.45249 21.6889C3.40467 21.7178 3.34743 21.7264 3.29336 21.7127C3.23929 21.699 3.19282 21.6642 3.16417 21.6159C3.13553 21.5676 3.12705 21.5098 3.1406 21.4552C3.15416 21.4007 3.18864 21.3537 3.23646 21.3248L12.1813 15.7281L2.96958 21.0974C2.92194 21.1239 2.86597 21.1307 2.81346 21.1164C2.76094 21.1021 2.71597 21.0678 2.68799 21.0207C2.66001 20.9736 2.65121 20.9174 2.66344 20.8639C2.67567 20.8103 2.70797 20.7637 2.75356 20.7337L11.7896 15.0844L2.52576 20.4834C2.47805 20.5091 2.42235 20.5153 2.37024 20.5006C2.31813 20.486 2.27364 20.4516 2.24602 20.4046C2.2184 20.3576 2.20979 20.3017 2.22197 20.2485C2.23415 20.1953 2.26619 20.1489 2.31142 20.1189L7.55612 16.8963L2.22106 20.0056C2.17326 20.0319 2.11724 20.0384 2.06479 20.0238C2.01233 20.0092 1.96754 19.9746 1.93983 19.9273C1.91211 19.88 1.90364 19.8237 1.91619 19.7703C1.92875 19.7168 1.96135 19.6704 2.00714 19.6407L4.94449 17.848L1.97561 19.5783C1.9279 19.6041 1.8722 19.6103 1.82009 19.5956C1.76798 19.5809 1.72349 19.5465 1.69587 19.4995C1.66825 19.4526 1.65964 19.3967 1.67182 19.3435C1.684 19.2902 1.71604 19.2438 1.76127 19.2139L7.77929 15.5058L1.69949 19.0497C1.65161 19.0772 1.59494 19.0846 1.54167 19.0704C1.4884 19.0562 1.44281 19.0214 1.4147 18.9735C1.38659 18.9257 1.37823 18.8686 1.3914 18.8146C1.40458 18.7606 1.43824 18.7139 1.48515 18.6847L5.81867 16.0294L1.4738 18.5621C1.45001 18.5763 1.42369 18.5856 1.39635 18.5894C1.36901 18.5933 1.34118 18.5917 1.31445 18.5848C1.28771 18.5778 1.2626 18.5656 1.24055 18.5488C1.21849 18.532 1.19992 18.511 1.18591 18.487C1.17189 18.463 1.16269 18.4364 1.15884 18.4088C1.15499 18.3812 1.15657 18.3531 1.16348 18.3261C1.17743 18.2716 1.21225 18.2249 1.2603 18.1964L1.32628 18.1569L1.30863 18.1667C1.26079 18.1925 1.2049 18.1987 1.15266 18.1839C1.10041 18.1691 1.05585 18.1345 1.02832 18.0873C1.00078 18.0401 0.992405 17.984 1.00494 17.9306C1.01747 17.8773 1.04993 17.831 1.09554 17.8013L2.46777 16.9663L1.14556 17.7385C1.09782 17.7657 1.04146 17.7729 0.988505 17.7587C0.935546 17.7445 0.890171 17.71 0.862053 17.6625C0.833934 17.6151 0.825297 17.5584 0.837981 17.5046C0.850665 17.4507 0.883667 17.4041 0.929953 17.3745L8.70517 12.5373L0.931214 17.0673C0.883569 17.0937 0.827605 17.1006 0.77509 17.0863C0.722575 17.0719 0.6776 17.0376 0.649622 16.9905C0.621645 16.9434 0.612845 16.8872 0.625073 16.8337C0.637301 16.7802 0.669604 16.7336 0.715189 16.7036L9.28012 11.3428L0.737464 16.3209C0.689933 16.3443 0.635397 16.3488 0.584742 16.3334C0.534086 16.318 0.491039 16.2839 0.464192 16.2379C0.437345 16.1919 0.428673 16.1374 0.439908 16.0852C0.451143 16.033 0.481458 15.987 0.524802 15.9564L4.99954 13.2043L0.625669 15.7532C0.578075 15.7788 0.522527 15.785 0.47053 15.7705C0.418534 15.7559 0.374074 15.7217 0.346361 15.675C0.318648 15.6282 0.309805 15.5725 0.321664 15.5194C0.333523 15.4662 0.365176 15.4197 0.410065 15.3895L8.46603 10.3402L0.513454 14.9754C0.465715 15.0025 0.40936 15.0098 0.356401 14.9956C0.303441 14.9814 0.258067 14.9469 0.229949 14.8994C0.20183 14.8519 0.193193 14.7952 0.205877 14.7414C0.218561 14.6876 0.251563 14.6409 0.297849 14.6113L7.04169 10.4051L0.452093 14.246C0.404292 14.2722 0.348273 14.2787 0.29582 14.2641C0.243368 14.2495 0.198572 14.2149 0.170858 14.1677C0.143145 14.1204 0.134674 14.0641 0.147228 14.0107C0.159782 13.9572 0.192382 13.9108 0.238169 13.8811L2.70733 12.3654L0.437803 13.6884C0.390445 13.7124 0.335882 13.7174 0.285029 13.7024C0.234176 13.6875 0.190785 13.6537 0.163537 13.6079C0.136289 13.562 0.127193 13.5075 0.13807 13.4552C0.148946 13.4028 0.178993 13.3566 0.222199 13.3257L3.65716 11.2041L0.446629 13.0762C0.398754 13.1037 0.342079 13.1112 0.288811 13.0969C0.235544 13.0827 0.189946 13.0479 0.16184 13C0.133733 12.9522 0.125367 12.8951 0.138543 12.8411C0.15172 12.7871 0.185384 12.7405 0.232285 12.7113L1.04763 12.2118L0.480252 12.5424C0.433002 12.5657 0.378822 12.5702 0.328406 12.5551C0.27799 12.5401 0.235002 12.5065 0.207927 12.461C0.180852 12.4155 0.171657 12.3614 0.182158 12.3094C0.192658 12.2573 0.222091 12.2112 0.264647 12.18L4.9054 9.28534L0.563467 11.8143C0.516021 11.8402 0.460502 11.8467 0.408412 11.8325C0.356323 11.8183 0.311658 11.7843 0.28367 11.7378C0.255683 11.6912 0.24652 11.6355 0.258079 11.5823C0.269639 11.5291 0.301034 11.4824 0.345761 11.4519L7.49854 6.86675L0.752174 10.7989C0.704681 10.8257 0.648742 10.8328 0.596126 10.8188C0.543511 10.8049 0.498321 10.7708 0.470064 10.7239C0.441806 10.6769 0.432685 10.6207 0.444618 10.5671C0.456552 10.5136 0.48861 10.4667 0.534048 10.4365L7.22031 6.1085L1.0615 9.6982C1.01392 9.72565 0.957596 9.73325 0.904543 9.71938C0.851489 9.70551 0.805903 9.67126 0.777505 9.62393C0.749107 9.57661 0.740145 9.51996 0.752528 9.46606C0.764912 9.41216 0.797662 9.36528 0.843796 9.33541L5.02854 6.66223L1.40739 8.77447C1.35981 8.80192 1.30349 8.80952 1.25043 8.79565C1.19738 8.78177 1.1518 8.74752 1.1234 8.7002C1.095 8.65288 1.08604 8.59623 1.09842 8.54233C1.1108 8.48843 1.14355 8.44155 1.18969 8.41168L4.17369 6.50227L1.83818 7.86559C1.79072 7.89286 1.73461 7.90041 1.68173 7.88664C1.62885 7.87287 1.58336 7.83885 1.55489 7.7918C1.52643 7.74474 1.51722 7.68835 1.52923 7.63456C1.54123 7.58078 1.57351 7.53382 1.61922 7.50365L4.50992 5.62097L2.45053 6.8205C2.40359 6.84726 2.34825 6.85479 2.29597 6.84151C2.24369 6.82824 2.19845 6.79519 2.16963 6.7492C2.14081 6.7032 2.13059 6.64778 2.1411 6.5944C2.15161 6.54101 2.18205 6.49375 2.2261 6.46238L5.42739 4.23092L3.66221 5.25903C3.6153 5.28621 3.55982 5.29408 3.50731 5.28101C3.4548 5.26794 3.4093 5.23493 3.38028 5.18885C3.35126 5.14278 3.34095 5.08718 3.35151 5.03362C3.36206 4.98007 3.39266 4.93269 3.43694 4.90133L4.96466 3.82612C4.94343 3.80952 4.92558 3.78891 4.91213 3.76544C4.88426 3.71672 4.87671 3.65881 4.89113 3.60446C4.90556 3.55011 4.94077 3.50377 4.98904 3.47564L7.76122 1.8607C7.80812 1.83352 7.86361 1.82565 7.91612 1.83872C7.96863 1.85179 8.01413 1.8848 8.04314 1.93088C8.07216 1.97695 8.08247 2.03255 8.07192 2.0861C8.06136 2.13966 8.03076 2.18704 7.98649 2.2184L7.72717 2.40085L9.72688 1.23569C9.77372 1.20986 9.82855 1.203 9.88022 1.21649C9.9319 1.22999 9.97655 1.26283 10.0051 1.30836C10.0337 1.35388 10.044 1.40867 10.034 1.46161C10.024 1.51454 9.99445 1.56166 9.95131 1.59338L6.75086 3.82442L11.6677 0.958609C11.7152 0.931334 11.7713 0.923783 11.8242 0.937557C11.8771 0.951332 11.9226 0.985348 11.951 1.0324C11.9795 1.07945 11.9887 1.13585 11.9767 1.18963C11.9647 1.24342 11.9324 1.29037 11.8867 1.32055L8.99727 3.20238L12.8706 0.945031C12.8942 0.930599 12.9204 0.921006 12.9477 0.916799C12.975 0.912592 13.0029 0.913854 13.0297 0.920513C13.0565 0.927172 13.0817 0.939097 13.104 0.955607C13.1262 0.972118 13.145 0.992891 13.1593 1.01674C13.1736 1.04059 13.1831 1.06705 13.1873 1.0946C13.1914 1.12216 13.1902 1.15027 13.1836 1.17734C13.177 1.20441 13.1652 1.2299 13.1488 1.25236C13.1325 1.27482 13.1119 1.29381 13.0883 1.30824L10.1043 3.21766L13.8624 1.02523C13.91 0.998839 13.9658 0.992028 14.0182 1.00622C14.0705 1.0204 14.1155 1.05449 14.1435 1.10135C14.1716 1.14821 14.1806 1.20421 14.1687 1.25764C14.1568 1.31106 14.125 1.35778 14.0797 1.38801L9.89667 4.05822L14.8304 1.18265C14.8778 1.15632 14.9334 1.14947 14.9857 1.16353C15.038 1.17759 15.0829 1.21147 15.1111 1.25811C15.1392 1.30476 15.1485 1.36057 15.1369 1.41394C15.1253 1.4673 15.0938 1.5141 15.0489 1.54459L8.36096 5.87259L15.9298 1.45972C15.9773 1.43376 16.0328 1.42723 16.0849 1.44147C16.137 1.45571 16.1816 1.48964 16.2096 1.53622C16.2376 1.58281 16.2468 1.63848 16.2352 1.69169C16.2236 1.74491 16.1922 1.7916 16.1475 1.82209L8.99306 6.41146L16.8981 1.80384C16.9459 1.77669 17.0022 1.76944 17.0552 1.78363C17.1082 1.79782 17.1535 1.83233 17.1817 1.87981C17.2098 1.92729 17.2184 1.98398 17.2057 2.0378C17.193 2.09161 17.16 2.1383 17.1138 2.1679L12.4789 5.05875L17.5643 2.0945C17.6122 2.06695 17.6688 2.0595 17.7221 2.07373C17.7754 2.08797 17.821 2.12276 17.8491 2.17061C17.8772 2.21846 17.8856 2.27554 17.8724 2.32956C17.8592 2.38357 17.8255 2.43021 17.7786 2.45941L16.9679 2.95585L18.038 2.33254C18.0857 2.30587 18.1419 2.29902 18.1946 2.31343C18.2473 2.32784 18.2923 2.36238 18.3202 2.40974C18.3481 2.4571 18.3567 2.51356 18.3441 2.56718C18.3315 2.6208 18.2987 2.66737 18.2527 2.69702L14.8064 4.82453L18.5713 2.6304C18.6189 2.60537 18.6743 2.59971 18.726 2.6146C18.7776 2.62949 18.8217 2.66379 18.8491 2.71046C18.8765 2.75712 18.8851 2.81261 18.8732 2.86551C18.8614 2.91841 18.8299 2.96471 18.7852 2.99489L16.3299 4.50248L19.0391 2.92318C19.0869 2.89432 19.1442 2.88583 19.1983 2.8996C19.2523 2.91337 19.2988 2.94825 19.3274 2.99659C19.356 3.04492 19.3644 3.10274 19.3507 3.15733C19.3371 3.21192 19.3025 3.2588 19.2547 3.28767L12.5054 7.49644L19.6346 3.34071C19.6822 3.31421 19.7382 3.3074 19.7907 3.32171C19.8432 3.33602 19.8882 3.37032 19.9162 3.41742C19.9442 3.46451 19.953 3.52073 19.9407 3.57423C19.9285 3.62774 19.8962 3.67438 19.8506 3.70434L11.7909 8.7558L20.2444 3.82867C20.2921 3.80292 20.3479 3.79675 20.4 3.81142C20.4521 3.8261 20.4966 3.8605 20.5242 3.90747C20.5518 3.95443 20.5604 4.01034 20.5482 4.06355C20.536 4.11677 20.504 4.16319 20.4588 4.19315L15.9987 6.93634L20.674 4.2114C20.7217 4.18425 20.7781 4.17699 20.831 4.19118C20.884 4.20537 20.9293 4.23989 20.9575 4.28737C20.9856 4.33485 20.9942 4.39154 20.9815 4.44535C20.9689 4.49917 20.9359 4.54585 20.8896 4.57546L12.3242 9.93666L21.2165 4.75452C21.2642 4.72842 21.32 4.72194 21.3724 4.73644C21.4247 4.75093 21.4694 4.78528 21.4972 4.83231C21.525 4.87933 21.5337 4.93538 21.5215 4.98873C21.5093 5.04208 21.4771 5.08861 21.4317 5.11858L13.6519 9.95703L21.6826 5.27643C21.7305 5.24949 21.787 5.24252 21.8399 5.257C21.8928 5.27149 21.938 5.30628 21.9659 5.35396C21.9937 5.40163 22.0021 5.45842 21.989 5.51219C21.976 5.56596 21.9427 5.61246 21.8961 5.64176L20.5222 6.47766L21.9709 5.63327C22.0189 5.60633 22.0753 5.59936 22.1282 5.61385C22.1811 5.62833 22.2263 5.66313 22.2542 5.7108C22.2821 5.75848 22.2904 5.81526 22.2773 5.86903C22.2643 5.92281 22.231 5.9693 22.1845 5.99861L22.1277 6.03298L22.229 5.97442C22.2769 5.94688 22.3336 5.93942 22.3868 5.95366C22.4401 5.96789 22.4857 6.00268 22.5138 6.05053C22.5419 6.09838 22.5503 6.15547 22.5371 6.20948C22.5239 6.2635 22.4902 6.31013 22.4433 6.33933L18.1077 8.99766L22.535 6.41741C22.5827 6.39074 22.6389 6.38389 22.6916 6.3983C22.7443 6.41271 22.7893 6.44725 22.8172 6.49461C22.8452 6.54197 22.8537 6.59843 22.8411 6.65205C22.8285 6.70567 22.7957 6.75223 22.7497 6.78189L16.7351 10.4853L22.8514 6.92107C22.8992 6.89482 22.9553 6.88832 23.0077 6.90293C23.0602 6.91753 23.105 6.95211 23.1327 6.99939C23.1604 7.04666 23.1689 7.10294 23.1563 7.15639C23.1438 7.20985 23.1112 7.2563 23.0654 7.28598L20.1192 9.08252L23.0965 7.34877C23.1442 7.32303 23.1999 7.31685 23.252 7.33153C23.3041 7.34621 23.3486 7.38061 23.3762 7.42757C23.4038 7.47454 23.4124 7.53044 23.4003 7.58366C23.3881 7.63687 23.356 7.68329 23.3108 7.71326L18.0644 10.938L23.3533 7.85201C23.401 7.82486 23.4574 7.8176 23.5103 7.8318C23.5633 7.84599 23.6086 7.8805 23.6368 7.92798C23.6649 7.97546 23.6735 8.03215 23.6608 8.08597C23.6482 8.13978 23.6151 8.18647 23.5689 8.21607L14.5353 13.8658L23.6601 8.54746C23.7077 8.52097 23.7637 8.51416 23.8162 8.52846C23.8687 8.54277 23.9137 8.57708 23.9417 8.62417C23.9696 8.67127 23.9784 8.72748 23.9662 8.78099C23.954 8.8345 23.9217 8.88114 23.8761 8.9111L14.9316 14.5065L23.9257 9.26455C23.9735 9.23831 24.0295 9.2318 24.082 9.24641C24.1344 9.26102 24.1792 9.2956 24.2069 9.34287C24.2346 9.39015 24.2431 9.44643 24.2305 9.49988C24.218 9.55333 24.1854 9.59978 24.1396 9.62946L21.8129 11.0488L24.0732 9.7313C24.1211 9.70436 24.1775 9.69739 24.2305 9.71187C24.2834 9.72636 24.3286 9.76115 24.3565 9.80883C24.3843 9.8565 24.3926 9.91329 24.3796 9.96706C24.3666 10.0208 24.3332 10.0673 24.2867 10.0966L23.9366 10.3088L24.1938 10.1594C24.2415 10.1329 24.2974 10.1261 24.3499 10.1404C24.4025 10.1547 24.4474 10.189 24.4754 10.2361C24.5034 10.2832 24.5122 10.3394 24.5 10.393C24.4877 10.4465 24.4554 10.4931 24.4098 10.5231L15.4868 16.1291L24.3649 10.9546C24.4126 10.9285 24.4684 10.922 24.5207 10.9365C24.573 10.951 24.6177 10.9854 24.6455 11.0324C24.6733 11.0794 24.682 11.1354 24.6698 11.1888C24.6576 11.2422 24.6255 11.2887 24.5801 11.3187L17.7946 15.5385L24.4725 11.6462C24.5202 11.6205 24.5759 11.6143 24.628 11.629C24.6801 11.6437 24.7246 11.6781 24.7522 11.725C24.7798 11.772 24.7884 11.8279 24.7763 11.8811C24.7641 11.9343 24.732 11.9807 24.6868 12.0107L20.6647 14.487L24.5313 12.2326C24.579 12.2065 24.6348 12.2 24.6871 12.2145C24.7394 12.229 24.7841 12.2634 24.8119 12.3104C24.8397 12.3574 24.8484 12.4135 24.8362 12.4668C24.824 12.5202 24.7919 12.5667 24.7465 12.5967L19.2929 15.981L24.5675 12.9069C24.6151 12.8804 24.6711 12.8736 24.7236 12.8879C24.7761 12.9022 24.8211 12.9365 24.849 12.9836C24.877 13.0307 24.8858 13.0869 24.8736 13.1404C24.8614 13.1939 24.8291 13.2405 24.7835 13.2705L18.4687 17.2187L24.5675 13.6651C24.6153 13.6389 24.6713 13.6324 24.7237 13.647C24.7762 13.6616 24.821 13.6962 24.8487 13.7434C24.8764 13.7907 24.8849 13.847 24.8723 13.9004C24.8598 13.9539 24.8272 14.0003 24.7814 14.03L24.3485 14.2948L24.538 14.1845C24.5616 14.17 24.5878 14.1604 24.6151 14.1561C24.6424 14.1519 24.6702 14.1531 24.697 14.1597C24.7238 14.1664 24.7491 14.1782 24.7714 14.1947C24.7936 14.2112 24.8124 14.2319 24.8268 14.2558C24.8411 14.2796 24.8506 14.306 24.8548 14.3336C24.859 14.3611 24.8578 14.3892 24.8513 14.4163C24.8447 14.4433 24.8329 14.4688 24.8166 14.4913C24.8003 14.5138 24.7798 14.5328 24.7562 14.5473L16.5943 19.7871L24.4115 15.2304C24.4592 15.2047 24.5149 15.1985 24.5671 15.2132C24.6192 15.2278 24.6637 15.2622 24.6913 15.3092C24.7189 15.3562 24.7275 15.4121 24.7153 15.4653C24.7031 15.5185 24.6711 15.5649 24.6259 15.5949L24.3472 15.7646C24.3962 15.748 24.4494 15.7502 24.4969 15.7707C24.5443 15.7912 24.5827 15.8286 24.6045 15.8758C24.6264 15.923 24.6303 15.9767 24.6155 16.0266C24.6007 16.0766 24.5682 16.1192 24.5242 16.1465L22.1803 17.6057L24.1501 16.4575C24.1976 16.4311 24.2534 16.4243 24.3058 16.4385C24.3582 16.4527 24.4031 16.4868 24.4312 16.5336C24.4593 16.5805 24.4683 16.6365 24.4564 16.6899C24.4445 16.7434 24.4126 16.7901 24.3674 16.8203L19.6006 19.8537L23.8647 17.3681C23.9125 17.3391 23.9697 17.3304 24.0238 17.3439C24.0506 17.3507 24.0759 17.3626 24.0981 17.3792C24.1203 17.3958 24.139 17.4166 24.1533 17.4404C24.1675 17.4643 24.1769 17.4908 24.1811 17.5184C24.1852 17.5459 24.1838 17.574 24.1772 17.6011C24.1705 17.6281 24.1587 17.6536 24.1423 17.676C24.1259 17.6984 24.1053 17.7174 24.0816 17.7317L21.2073 19.5491L23.5394 18.1913C23.587 18.1649 23.6428 18.1581 23.6951 18.1723C23.7475 18.1864 23.7925 18.2205 23.8205 18.2674C23.8486 18.3142 23.8576 18.3702 23.8457 18.4237C23.8338 18.4771 23.802 18.5238 23.7567 18.5541L21.3082 20.1147L23.1221 19.0539C23.1695 19.0276 23.2252 19.0207 23.2774 19.0348C23.3297 19.0488 23.3746 19.0827 23.4028 19.1294C23.431 19.176 23.4402 19.2318 23.4286 19.2852C23.4171 19.3385 23.3855 19.3853 23.3406 19.4158L20.8383 21.0397L22.5194 20.0591C22.5668 20.0332 22.6221 20.0266 22.6742 20.0407C22.7262 20.0548 22.7708 20.0885 22.7989 20.1349C22.827 20.1813 22.8364 20.2368 22.8252 20.2899C22.8139 20.3431 22.7828 20.3899 22.7384 20.4206L21.8104 21.0278C21.8576 21.0007 21.9134 20.9931 21.9661 21.0066C22.0188 21.0201 22.0642 21.0537 22.0928 21.1003C22.1215 21.1469 22.1312 21.2029 22.1198 21.2566C22.1084 21.3102 22.0769 21.3573 22.0319 21.388L20.7227 22.2833C20.7676 22.2867 20.8102 22.3044 20.8443 22.334C20.8784 22.3636 20.9022 22.4034 20.9123 22.4477C20.9223 22.4919 20.918 22.5383 20.9 22.5799C20.882 22.6215 20.8512 22.6562 20.8122 22.6788L16.2938 25.3125C16.2466 25.3407 16.1904 25.3492 16.1371 25.3362C16.0839 25.3231 16.0377 25.2896 16.0086 25.2427C15.9795 25.1958 15.9697 25.1393 15.9813 25.0852C15.9928 25.0311 16.0249 24.9837 16.0706 24.9531L16.9603 24.3455L14.6009 25.7207C14.5535 25.747 14.4978 25.7539 14.4455 25.7398C14.3933 25.7258 14.3484 25.6919 14.3202 25.6452C14.292 25.5986 14.2828 25.5428 14.2943 25.4894C14.3059 25.4361 14.3374 25.3893 14.3823 25.3588L15.3116 24.7537L13.4203 25.8569C13.3729 25.8842 13.3167 25.8917 13.2639 25.878C13.211 25.8642 13.1655 25.8302 13.137 25.7831C13.1086 25.7361 13.0994 25.6797 13.1114 25.6259C13.1234 25.5721 13.1556 25.5252 13.2013 25.495L15.7071 23.8686L12.2582 25.879C12.2257 25.8979 12.1886 25.9076 12.1511 25.907Z" fill="#AE76FF"/>
<path d="M11.2407 19.1125C11.1987 19.1125 11.1576 19.0998 11.1228 19.076C11.088 19.0522 11.061 19.0183 11.0455 18.9789C11.0299 18.9395 11.0264 18.8962 11.0354 18.8547C11.0445 18.8133 11.0656 18.7755 11.0961 18.7463L11.313 18.5388L10.5817 18.9631C10.5361 18.9897 10.4823 18.998 10.4309 18.9864C10.3795 18.9748 10.3343 18.9442 10.3042 18.9005C10.2741 18.8569 10.2614 18.8034 10.2685 18.7507C10.2756 18.6981 10.302 18.65 10.3426 18.6161L11.5513 17.6015L10.0038 18.5036C9.95703 18.5309 9.90163 18.5389 9.84914 18.5259C9.79665 18.513 9.75109 18.4802 9.72194 18.4343C9.69279 18.3884 9.68227 18.3329 9.69258 18.2793C9.70289 18.2258 9.73323 18.1783 9.7773 18.1468L10.3514 17.7364L9.64407 18.1485C9.59723 18.1753 9.54198 18.1829 9.48971 18.1698C9.43745 18.1567 9.39216 18.1239 9.3632 18.078C9.33424 18.0322 9.32382 17.9769 9.33409 17.9235C9.34436 17.8701 9.37453 17.8228 9.41838 17.7912L10.9037 16.7376L9.21286 17.7229C9.16613 17.7498 9.11094 17.7576 9.05868 17.7446C9.00642 17.7317 8.96107 17.699 8.93198 17.6533C8.90288 17.6076 8.89225 17.5524 8.90229 17.499C8.91232 17.4457 8.94225 17.3982 8.98591 17.3664L12.0851 15.1456L8.63666 17.1551C8.59318 17.1803 8.54222 17.189 8.49295 17.1796C8.44369 17.1702 8.39939 17.1433 8.36803 17.1039C8.33667 17.0644 8.32034 17.0149 8.32197 16.9643C8.3236 16.9137 8.34309 16.8653 8.37692 16.828L9.2322 15.889L8.05036 16.5772C8.00561 16.6031 7.953 16.6114 7.90254 16.6007C7.85208 16.5899 7.8073 16.5608 7.77672 16.5189C7.74614 16.477 7.73191 16.4252 7.73672 16.3733C7.74153 16.3215 7.76506 16.2732 7.80282 16.2378L8.36431 15.712L7.61579 16.1478C7.57176 16.172 7.52062 16.1795 7.47161 16.1689C7.42259 16.1583 7.37893 16.1304 7.34849 16.0902C7.31806 16.05 7.30286 16.0002 7.30563 15.9497C7.30841 15.8991 7.32897 15.8513 7.36362 15.8147L8.10416 15.062L7.18416 15.5979C7.14061 15.6231 7.08955 15.6318 7.04023 15.6222C6.99091 15.6127 6.9466 15.5857 6.91531 15.5461C6.88402 15.5064 6.86782 15.4568 6.86965 15.4061C6.87147 15.3555 6.89121 15.3072 6.92527 15.2699L7.83854 14.2787C7.80738 14.2596 7.78167 14.2326 7.76396 14.2004C7.74625 14.1683 7.73713 14.132 7.73752 14.0952C7.7379 14.0584 7.74776 14.0223 7.76614 13.9905C7.78451 13.9587 7.81077 13.9323 7.84233 13.9138L8.58664 13.4802C8.6302 13.4549 8.68126 13.4463 8.73058 13.4558C8.7799 13.4653 8.82421 13.4924 8.8555 13.532C8.88679 13.5716 8.90299 13.6213 8.90116 13.6719C8.89933 13.7226 8.8796 13.7709 8.84554 13.8082L8.1857 14.5244L9.25909 13.899C9.30323 13.8729 9.35524 13.8641 9.40539 13.874C9.45554 13.8839 9.5004 13.9119 9.53157 13.9528C9.56274 13.9936 9.57809 14.0446 9.57474 14.0961C9.57139 14.1476 9.54957 14.1961 9.51337 14.2325L8.77241 14.9852L9.77352 14.4018C9.81828 14.3755 9.87107 14.3669 9.92175 14.3775C9.97243 14.3881 10.0175 14.4172 10.0482 14.4593C10.0789 14.5014 10.0932 14.5534 10.0882 14.6054C10.0833 14.6574 10.0595 14.7058 10.0215 14.7412L9.45999 15.2669L10.2115 14.829C10.2549 14.8038 10.3059 14.7952 10.3552 14.8046C10.4044 14.814 10.4487 14.8408 10.4801 14.8803C10.5114 14.9198 10.5278 14.9693 10.5261 15.0199C10.5245 15.0705 10.505 15.1188 10.4712 15.1562L9.61591 16.0952L15.7344 12.528C15.7811 12.5011 15.8363 12.4933 15.8886 12.5062C15.9408 12.5192 15.9862 12.5519 16.0153 12.5976C16.0444 12.6433 16.055 12.6985 16.045 12.7518C16.0349 12.8052 16.005 12.8527 15.9613 12.8844L12.8613 15.1078L14.7829 13.9876C14.8297 13.9608 14.885 13.9532 14.9372 13.9663C14.9895 13.9794 15.0348 14.0122 15.0637 14.0581C15.0927 14.1039 15.1031 14.1592 15.0928 14.2126C15.0826 14.266 15.0524 14.3133 15.0086 14.3449L13.5254 15.3976L14.0717 15.079C14.1185 15.0527 14.1733 15.0454 14.2252 15.0586C14.277 15.0717 14.322 15.1043 14.3509 15.1497C14.3797 15.1952 14.3904 15.25 14.3806 15.3031C14.3708 15.3562 14.3414 15.4035 14.2983 15.4354L13.5624 15.962C13.5996 15.9584 13.6371 15.9647 13.6711 15.9805C13.7052 15.9962 13.7345 16.0207 13.7561 16.0515C13.7861 16.0951 13.7989 16.1485 13.7918 16.2012C13.7847 16.2538 13.7583 16.3018 13.7179 16.3358L12.5087 17.3507L12.6415 17.2731C12.6863 17.2451 12.7399 17.2352 12.7916 17.2452C12.8433 17.2551 12.8894 17.2844 12.9208 17.3271C12.9522 17.3697 12.9666 17.4228 12.9611 17.4756C12.9556 17.5285 12.9306 17.5774 12.8912 17.6125L12.2704 18.2066C12.2923 18.2234 12.3106 18.2445 12.3242 18.2685C12.3521 18.3172 12.3597 18.3751 12.3454 18.4294C12.331 18.4838 12.2959 18.5301 12.2477 18.5583L11.3458 19.0836C11.314 19.1026 11.2777 19.1126 11.2407 19.1125Z" fill="white"/>
<path d="M11.4808 14.7659C11.4359 14.7658 11.3922 14.7512 11.3562 14.7243C11.3201 14.6973 11.2935 14.6594 11.2803 14.6161C11.2671 14.5728 11.268 14.5264 11.2828 14.4836C11.2976 14.4408 11.3256 14.404 11.3627 14.3785L12.4134 13.6571L12.2163 13.7721C12.1693 13.7997 12.1136 13.8079 12.0608 13.7948C12.008 13.7818 11.9622 13.7487 11.9331 13.7023C11.904 13.656 11.8938 13.6001 11.9047 13.5463C11.9156 13.4925 11.9467 13.4451 11.9914 13.414L13.4506 12.3978L12.9043 12.7164C12.8574 12.7422 12.8026 12.7491 12.7509 12.7356C12.6993 12.7221 12.6546 12.6893 12.626 12.6437C12.5975 12.5982 12.5871 12.5434 12.5971 12.4905C12.6071 12.4376 12.6367 12.3904 12.6799 12.3587L13.491 11.7935C13.4433 11.8146 13.3895 11.817 13.3402 11.8003C13.2908 11.7836 13.2493 11.749 13.2238 11.7032C13.1982 11.6574 13.1905 11.6036 13.2019 11.5523C13.2134 11.5011 13.2433 11.4559 13.2859 11.4257L14.0605 10.8622C14.0211 10.869 13.9806 10.8647 13.9435 10.8497C13.9064 10.8348 13.8742 10.8097 13.8503 10.7773C13.8202 10.7339 13.8073 10.6807 13.8141 10.6282C13.8208 10.5757 13.8468 10.5276 13.8869 10.4934L14.9313 9.60238C14.8876 9.62731 14.8366 9.63564 14.7873 9.62587C14.7381 9.61609 14.6939 9.58885 14.6629 9.54908C14.6318 9.5093 14.6158 9.45961 14.6179 9.409C14.62 9.35838 14.6399 9.31018 14.6741 9.27311L15.4348 8.43849C15.4166 8.42289 15.4013 8.40423 15.3894 8.38333C15.3617 8.33464 15.3542 8.27683 15.3686 8.22259C15.383 8.16834 15.4182 8.12208 15.4663 8.09394L16.0967 7.72649C16.1402 7.70128 16.1912 7.69259 16.2404 7.702C16.2897 7.7114 16.334 7.73828 16.3654 7.77777C16.3967 7.81726 16.4131 7.86677 16.4114 7.91736C16.4098 7.96795 16.3903 8.01628 16.3565 8.05363L15.9131 8.5399L16.7629 8.04515C16.8083 8.01943 16.8615 8.01165 16.9123 8.02329C16.963 8.03494 17.0077 8.0652 17.0376 8.1082C17.0676 8.1512 17.0806 8.20388 17.0743 8.25604C17.0679 8.3082 17.0426 8.35613 17.0033 8.39054L15.9593 9.2816L17.3937 8.44528C17.4404 8.41794 17.4958 8.4098 17.5483 8.42253C17.6007 8.43527 17.6464 8.46791 17.6757 8.51369C17.7049 8.55947 17.7157 8.61487 17.7056 8.66842C17.6955 8.72196 17.6654 8.76953 17.6215 8.80127L16.9453 9.29178L17.7833 8.80382C17.8302 8.77799 17.885 8.77113 17.9367 8.78463C17.9884 8.79812 18.033 8.83097 18.0616 8.87649C18.0901 8.92202 18.1005 8.97681 18.0905 9.02974C18.0805 9.08268 18.0509 9.12979 18.0078 9.16152L17.2092 9.71779L17.7741 9.38895C17.8209 9.36312 17.8758 9.35626 17.9274 9.36976C17.9791 9.38325 18.0238 9.4161 18.0523 9.46162C18.0809 9.50714 18.0912 9.56194 18.0812 9.61487C18.0712 9.66781 18.0417 9.71492 17.9985 9.74665L16.5435 10.7586L17.097 10.4362C17.1441 10.4094 17.1995 10.402 17.2518 10.4155C17.3041 10.4289 17.3493 10.4621 17.378 10.5083C17.4067 10.5544 17.4167 10.61 17.4059 10.6634C17.3952 10.7168 17.3645 10.764 17.3202 10.7951L16.2695 11.519L16.4695 11.4027C16.5176 11.3774 16.5734 11.3717 16.6255 11.387C16.6775 11.4022 16.7217 11.4372 16.7489 11.4846C16.776 11.5319 16.7839 11.5881 16.771 11.6412C16.7582 11.6944 16.7254 11.7404 16.6797 11.7698L11.5859 14.7374C11.554 14.7562 11.5177 14.766 11.4808 14.7659Z" fill="white"/>
<path d="M24.9987 13.3745C23.3722 -7.81066 -7.65263 0.924691 1.78186 19.8847C7.9869 30.5821 25.1748 25.7818 24.9987 13.3745ZM16.6716 24.7957C-2.90428 30.3712 -5.33814 -1.12644 14.9174 1.55904C26.3654 3.8864 27.6775 20.7686 16.6716 24.7957Z" fill="#262626"/>
<path d="M16.8683 7.9097C14.893 6.81709 12.2276 13.7228 10.8184 15.1056C9.99001 14.3695 8.99856 12.7511 7.83438 13.8993C7.33383 14.3724 6.32137 15.0827 6.95599 15.8342C7.87011 16.8054 8.88046 17.6944 9.81391 18.6521C12.7945 20.8725 15.3402 12.9158 17.1663 11.1447C18.1994 9.76353 18.9084 8.74306 16.8683 7.9097ZM17.579 9.62266C15.7214 12.4923 13.836 15.356 11.9737 18.2265C10.4153 19.841 8.77371 16.4019 7.51875 15.5957C6.88412 15.129 8.4917 13.4466 8.94771 14.0631C11.7443 17.2798 11.1332 14.7581 13.3577 12.0896C14.2164 11.3233 15.5772 7.18879 16.7671 8.4541C17.1806 8.71293 17.89 9.00655 17.579 9.62266Z" fill="#262626"/>
</svg>
