<?xml version="1.0" encoding="UTF-8"?>
<!DOCTYPE svg PUBLIC "-//W3C//DTD SVG 1.1//EN" "http://www.w3.org/Graphics/SVG/1.1/DTD/svg11.dtd">
<svg xmlns="http://www.w3.org/2000/svg" xmlns:xlink="http://www.w3.org/1999/xlink">
<symbol id="apple-podcasts" viewBox="0 0 57 67">
	<path d="M22.16 28.14c0-3.696 3.004-6.7 6.7-6.7s6.7 3.004 6.7 6.7-3.004 6.7-6.7 6.7a6.706 6.706 0 0 1-6.7-6.7Zm6.7 9.38c6.537 0 12.06 3.069 12.06 6.7 0 10.892-4.06 19.355-5.751 21.049-1.104 1.101-3.401 1.73-6.309 1.73-2.908 0-5.204-.629-6.309-1.73-1.69-1.694-5.751-10.158-5.751-21.05 0-3.63 5.523-6.7 12.06-6.7Z"/>
	<path d="M28.86 0C44.377 0 57 12.623 57 28.14c0 8.98-4.334 17.479-11.596 22.74a1.34 1.34 0 1 1-1.57-2.171C50.398 43.952 54.32 36.263 54.32 28.14c0-14.038-11.422-25.46-25.46-25.46S3.4 14.102 3.4 28.14c0 8.123 3.92 15.812 10.487 20.569.6.434.737 1.27.3 1.87a1.33 1.33 0 0 1-1.085.555c-.274 0-.55-.083-.786-.254C5.054 45.619.72 37.12.72 28.14.72 12.623 13.343 0 28.86 0Z"/>
	<path d="M28.86 10.72c9.605 0 17.42 7.815 17.42 17.42 0 3.803-1.206 7.402-3.49 10.406a1.344 1.344 0 0 1-1.878.258 1.344 1.344 0 0 1-.257-1.882c1.927-2.532 2.945-5.571 2.945-8.782 0-8.126-6.614-14.74-14.74-14.74-8.126 0-14.74 6.614-14.74 14.74 0 3.21 1.019 6.25 2.946 8.782.447.59.332 1.434-.258 1.882a1.35 1.35 0 0 1-1.878-.258c-2.284-3.004-3.49-6.603-3.49-10.406 0-9.605 7.815-17.42 17.42-17.42Z"/>
</symbol>
<symbol id="arrow-right" viewBox="0 0 18 11">
	<path d="M17.343 3.998 13.903.749l-1.06 1.002 3.197 3.02L0 4.79v1.417l16.084-.02-3.242 3.061 1.06 1.002 3.441-3.249c.42-.399.657-.939.657-1.502 0-.563-.236-1.103-.657-1.502Z"/>
</symbol>
<symbol id="arrow-up-right" viewBox="0 0 14 13">
	<path d="M13.023 6.084v-3.76A2.084 2.084 0 0 0 10.988.288H7.227v1.357h3.485L.434 11.948l.96.96L11.665 2.61v3.474h1.357Z"/>
</symbol>
<symbol id="close" viewBox="0 0 24 24">
	<path d="M12 10.94 5.636 4.574l-1.06 1.061L10.938 12l-6.364 6.364 1.061 1.06L12 13.062l6.364 6.364 1.06-1.061L13.062 12l6.364-6.364-1.06-1.06L12 10.938Z"/>
</symbol>
<symbol id="comment" viewBox="0 0 17 18">
	<path d="M17 8.967A8.509 8.509 0 1 0 8.512 18h4.946A3.546 3.546 0 0 0 17 14.46V8.966Zm-1.417 5.492a2.125 2.125 0 0 1-2.125 2.125H8.512a7.113 7.113 0 0 1-6.771-4.946 7.025 7.025 0 0 1-.278-2.957 7.114 7.114 0 0 1 6.13-6.206c.306-.038.614-.058.922-.058a7.028 7.028 0 0 1 4.518 1.629 7.113 7.113 0 0 1 2.55 4.988v5.425Z"/>
	<path d="M5.666 7.375H8.5a.708.708 0 1 0 0-1.417H5.666a.708.708 0 1 0 0 1.417ZM11.333 8.792H5.666a.708.708 0 1 0 0 1.416h5.667a.708.708 0 1 0 0-1.416ZM11.333 11.625H5.666a.708.708 0 1 0 0 1.417h5.667a.708.708 0 0 0 0-1.417Z"/>
</symbol>
<symbol id="compas" viewBox="0 0 19 19">
	<path fill="#AE76FF" d="M9.5 0C4.26 0 0 4.262 0 9.5S4.26 19 9.5 19c5.238 0 9.5-4.262 9.5-9.5S14.738 0 9.5 0Zm0 17.903c-4.634 0-8.403-3.77-8.403-8.403 0-4.633 3.77-8.403 8.403-8.403 4.633 0 8.402 3.77 8.402 8.403 0 4.633-3.77 8.403-8.402 8.403Z"/>
	<path fill="#AE76FF" d="M14.73 4.493a.549.549 0 0 0-.743-.223L7.812 7.59a.549.549 0 0 0-.223.224l-3.32 6.173a.549.549 0 0 0 .734.748l.003-.001.006-.004 6.178-3.318a.548.548 0 0 0 .224-.223l3.305-6.158a.521.521 0 0 0 .02-.038l.005-.009a.548.548 0 0 0-.014-.49Zm-8.633 8.412 2.11-3.923 1.813 1.814-3.923 2.11Zm4.7-2.885L8.981 8.207l3.923-2.11"/>
</symbol>
<symbol id="fb" viewBox="0 0 12 20">
	<path d="M7.234 19.997v-9.12h3.284l.493-3.556H7.234V5.05c0-1.03.305-1.73 1.891-1.73l2.019-.001V.14C10.794.096 9.596 0 8.2 0 5.288 0 3.294 1.657 3.294 4.699V7.32H0v3.555h3.294v9.121h3.94Z"/>
</symbol>
<symbol id="google-podcast" viewBox="0 0 67 67">
	<path d="M33.5 67a3.865 3.865 0 0 1-3.865-3.865V57.98a3.866 3.866 0 0 1 7.73 0v5.154A3.865 3.865 0 0 1 33.5 67ZM3.865 39.943A3.865 3.865 0 0 1 0 36.077v-5.154a3.865 3.865 0 0 1 7.73 0v5.154a3.865 3.865 0 0 1-3.865 3.866ZM63.135 39.943a3.865 3.865 0 0 1-3.866-3.866v-5.154a3.865 3.865 0 1 1 7.73 0v5.154a3.865 3.865 0 0 1-3.864 3.866ZM33.5 12.885a3.865 3.865 0 0 1-3.865-3.866V3.865a3.865 3.865 0 0 1 7.73 0V9.02a3.865 3.865 0 0 1-3.865 3.866ZM18.683 55.404a3.865 3.865 0 0 1-3.866-3.866v-5.153a3.865 3.865 0 1 1 7.731 0v5.153a3.865 3.865 0 0 1-3.865 3.866Zm0-19.327a3.865 3.865 0 0 1-3.866-3.866V16.75a3.865 3.865 0 1 1 7.731 0V32.21a3.865 3.865 0 0 1-3.865 3.866ZM33.5 48.962a3.865 3.865 0 0 1-3.865-3.866V21.904a3.866 3.866 0 0 1 7.73 0v23.192a3.865 3.865 0 0 1-3.865 3.866ZM48.317 25.125a3.865 3.865 0 0 1-3.865-3.865v-5.154a3.866 3.866 0 0 1 7.73 0v5.154a3.865 3.865 0 0 1-3.865 3.865Zm0 29.635a3.865 3.865 0 0 1-3.865-3.866V35.433a3.866 3.866 0 0 1 7.73 0v15.461a3.866 3.866 0 0 1-3.865 3.866Z"/>
</symbol>
<symbol id="heart" viewBox="0 0 19 17">
	<path d="M13.848 0a5.063 5.063 0 0 0-4.352 2.612A5.066 5.066 0 0 0 5.144 0 5.38 5.38 0 0 0 0 5.581c0 3.6 3.787 7.531 6.964 10.197a3.935 3.935 0 0 0 5.064 0c3.177-2.666 6.964-6.597 6.964-10.197A5.385 5.385 0 0 0 13.848 0Zm-2.837 14.567a2.352 2.352 0 0 1-3.03 0C3.915 11.154 1.583 7.879 1.583 5.58a3.8 3.8 0 0 1 3.56-3.998 3.798 3.798 0 0 1 3.562 3.998.792.792 0 1 0 1.582 0 3.801 3.801 0 0 1 3.561-3.998 3.798 3.798 0 0 1 3.562 3.998c0 2.298-2.332 5.573-6.399 8.982v.004Z"/>
</symbol>
<symbol id="inst" viewBox="0 0 20 20">
	<path d="M19.947 5.88c-.047-1.062-.219-1.793-.465-2.426a4.881 4.881 0 0 0-1.157-1.774 4.922 4.922 0 0 0-1.77-1.153C15.92.281 15.192.11 14.13.063 13.059.012 12.719 0 10.003 0S6.947.012 5.88.059C4.818.105 4.087.277 3.454.524A4.88 4.88 0 0 0 1.68 1.68 4.924 4.924 0 0 0 .528 3.45C.282 4.087.11 4.814.063 5.876.013 6.947 0 7.287 0 10.002c0 2.716.012 3.056.059 4.123.047 1.062.219 1.793.465 2.426a4.932 4.932 0 0 0 1.156 1.774c.5.508 1.106.902 1.77 1.152.637.247 1.364.418 2.427.465 1.066.047 1.407.059 4.122.059s3.055-.012 4.122-.059c1.063-.047 1.793-.218 2.426-.465a5.116 5.116 0 0 0 2.927-2.926c.246-.637.418-1.364.465-2.426.047-1.067.058-1.407.058-4.123 0-2.715-.003-3.055-.05-4.122Zm-1.801 8.166c-.044.977-.207 1.505-.344 1.856a3.318 3.318 0 0 1-1.9 1.9c-.35.136-.882.3-1.855.343-1.055.047-1.372.059-4.04.059-2.669 0-2.99-.012-4.04-.059-.977-.043-1.505-.207-1.856-.344a3.077 3.077 0 0 1-1.149-.746 3.11 3.11 0 0 1-.746-1.149c-.137-.351-.301-.883-.344-1.856-.047-1.055-.059-1.371-.059-4.04 0-2.668.012-2.989.059-4.04.043-.977.207-1.504.344-1.856a3.04 3.04 0 0 1 .75-1.148 3.105 3.105 0 0 1 1.149-.747c.351-.136.883-.3 1.856-.344 1.055-.046 1.371-.058 4.04-.058 2.672 0 2.989.012 4.04.058.977.044 1.504.208 1.856.344.433.16.828.414 1.148.747.332.324.586.715.747 1.148.137.352.3.883.344 1.856.046 1.055.058 1.372.058 4.04 0 2.669-.012 2.982-.058 4.036Z"/>
	<path d="M10.003 4.864a5.14 5.14 0 0 0-5.138 5.138 5.14 5.14 0 1 0 5.138-5.138Zm0 8.471a3.333 3.333 0 1 1 0-6.667 3.333 3.333 0 0 1 0 6.667ZM16.544 4.663a1.2 1.2 0 1 1-2.4 0 1.2 1.2 0 0 1 2.4 0Z"/>
</symbol>
<symbol id="logo" viewBox="0 0 29 29">
	<path d="M14.5 0C6.504 0 0 6.504 0 14.5 0 22.495 6.504 29 14.5 29 22.495 29 29 22.495 29 14.5 29 6.504 22.495 0 14.5 0Zm0 26.583c-6.663 0-12.083-5.42-12.083-12.083S7.837 2.417 14.5 2.417 26.583 7.837 26.583 14.5 21.163 26.583 14.5 26.583ZM19.333 14.5h2.417a7.261 7.261 0 0 1-6.042 7.148v2.519h-2.416v-2.519A7.261 7.261 0 0 1 7.25 14.5h2.417a4.838 4.838 0 0 0 4.833 4.833 4.838 4.838 0 0 0 4.833-4.833Zm-7.25 0V8.458a2.416 2.416 0 1 1 4.834 0H14.5v2.417h2.417v1.208H14.5V14.5h2.417a2.416 2.416 0 1 1-4.834 0Z"/>
</symbol>
<symbol id="oval-half" viewBox="0 0 30 61">
	<path fill="#AE76FF" d="M30 .871A30.008 30.008 0 0 0 8.787 9.655 29.99 29.99 0 0 0 2.284 42.34 29.99 29.99 0 0 0 18.52 58.571 30.008 30.008 0 0 0 30 60.853V.871Z"/>
</symbol>
<symbol id="phones" viewBox="0 0 21 17">
	<path d="M17.837 8.86V7.65a7.65 7.65 0 0 0-15.3 0v1.21a4.25 4.25 0 0 0 1.7 8.14 1.7 1.7 0 0 0 1.7-1.7v-5.1a1.7 1.7 0 0 0-1.7-1.7v-.85a5.95 5.95 0 0 1 11.9 0v.85a1.7 1.7 0 0 0-1.7 1.7v5.1a1.7 1.7 0 0 0 1.7 1.7 4.25 4.25 0 0 0 1.7-8.14Zm-13.6 6.44a2.55 2.55 0 0 1 0-5.1v5.1Zm11.9 0v-5.1a2.55 2.55 0 0 1 0 5.1Z"/>
</symbol>
<symbol id="play" viewBox="0 0 11 13">
	<path d="M7 3.036c2.667 1.54 4 2.31 4 3.464 0 1.155-1.333 1.925-4 3.464l-.75.433c-2.667 1.54-4 2.31-5 1.732-1-.577-1-2.117-1-5.196v-.866c0-3.08 0-4.619 1-5.196 1-.578 2.333.192 5 1.732l.75.433Z"/>
</symbol>
<symbol id="podcast-cloud" viewBox="0 0 78 47">
	<path d="M62.814 16.136a1.634 1.634 0 0 0-.725 1.026 1.668 1.668 0 0 0 .206 1.245 18.078 18.078 0 0 1 2.69 9.496c0 3.359-.932 6.65-2.69 9.497a1.662 1.662 0 0 0 .52 2.27 1.616 1.616 0 0 0 1.228.208 1.618 1.618 0 0 0 1.014-.734A21.402 21.402 0 0 0 68.23 27.92c0-3.97-1.1-7.858-3.174-11.225a1.639 1.639 0 0 0-1.006-.753 1.605 1.605 0 0 0-1.237.194Zm10.042-5.63a1.642 1.642 0 0 0-1.035-.817 1.604 1.604 0 0 0-1.295.224 1.636 1.636 0 0 0-.708 1.12 1.667 1.667 0 0 0 .34 1.284 28.505 28.505 0 0 1 4.61 15.553c0 5.53-1.603 10.938-4.61 15.553a1.655 1.655 0 0 0-.34 1.285 1.66 1.66 0 0 0 .708 1.12 1.612 1.612 0 0 0 2.33-.594A31.828 31.828 0 0 0 78 27.87c0-6.173-1.789-12.21-5.144-17.363ZM52.87 18.934c-.273.112-.51.296-.688.534-.178.238-.288.52-.32.816a21.69 21.69 0 0 1-1.364 5.695c-.166.4-.48.72-.873.892a1.637 1.637 0 0 1-1.24.03 1.623 1.623 0 0 1-.893-.88 1.664 1.664 0 0 1-.017-1.26 18.354 18.354 0 0 0-.172-13.848C45.44 6.5 41.925 3.017 37.532 1.224h-.195A17.497 17.497 0 0 0 25.644.811a17.731 17.731 0 0 0-9.396 7.062 1.66 1.66 0 0 0 .255 2.167c.196.177.432.304.687.368a15.905 15.905 0 0 1 7.312 4.18 1.65 1.65 0 0 1 .48 1.169 1.664 1.664 0 0 1-.48 1.168 1.646 1.646 0 0 1-2.307 0 12.942 12.942 0 0 0-6.987-3.62 12.258 12.258 0 0 0-2.21-.23 12.915 12.915 0 0 0-9.19 3.856A13.254 13.254 0 0 0 0 26.24c0 3.492 1.37 6.841 3.807 9.31a12.915 12.915 0 0 0 9.191 3.857H47.12a11.24 11.24 0 0 0 6.492-2.048 11.468 11.468 0 0 0 4.169-5.441c.807-2.203.929-4.604.347-6.879a11.509 11.509 0 0 0-3.599-5.843 1.615 1.615 0 0 0-1.657-.264Z"/>
</symbol>
<symbol id="rating-star" viewBox="0 0 17 16">
	<path d="M16.12 5.775a1.112 1.112 0 0 0-.898-.756l-4.246-.617L9.078.57c-.375-.759-1.617-.759-1.993 0L5.188 4.402.952 5.02a1.113 1.113 0 0 0-.897.757c-.131.402-.022.843.28 1.138L3.409 9.91l-.725 4.225c-.07.417.1.84.443 1.088.343.248.798.28 1.171.084l3.784-1.996 3.795 1.996a1.108 1.108 0 0 0 1.172-.084c.342-.25.513-.671.442-1.088l-.723-4.225 3.072-2.994a1.11 1.11 0 0 0 .28-1.14Z"/>
</symbol>
<symbol id="search" viewBox="0 0 21 21">
	<path d="M20.756 18.604 15.78 13.63a8.346 8.346 0 1 0-1.178 1.178l4.974 4.974a.833.833 0 0 0 1.179-1.178ZM9.333 15.027A6.666 6.666 0 1 1 16 8.36a6.675 6.675 0 0 1-6.667 6.667Z"/>
</symbol>
<symbol id="soundcloud" viewBox="0 0 73 41">
	<path d="M61.5 18.222c-.798 0-1.593.084-2.373.25C58.102 8.119 49.34 0 38.722 0a2.279 2.279 0 0 0-2.278 2.278v36.444A2.279 2.279 0 0 0 38.722 41H61.5c6.282 0 11.389-5.107 11.389-11.389 0-6.277-5.107-11.389-11.389-11.389ZM29.611 4.556a2.279 2.279 0 0 0-2.278 2.277v31.89a2.279 2.279 0 0 0 4.556 0V6.832a2.279 2.279 0 0 0-2.278-2.277Zm-9.111 9.11a2.279 2.279 0 0 0-2.278 2.278v22.778a2.279 2.279 0 0 0 4.556 0V15.944a2.279 2.279 0 0 0-2.278-2.277Zm-9.111 0a2.279 2.279 0 0 0-2.278 2.278v22.778a2.279 2.279 0 0 0 4.556 0V15.944a2.279 2.279 0 0 0-2.278-2.277ZM2.278 20.5A2.279 2.279 0 0 0 0 22.778v13.666a2.279 2.279 0 0 0 4.556 0V22.778A2.279 2.279 0 0 0 2.278 20.5Z"/>
</symbol>
<symbol id="spotify" viewBox="0 0 67 67">
	<path d="M46.213 43.375c-11.15-5.153-26.756-2.873-27.415-2.774a2.69 2.69 0 0 0 .803 5.319c.146-.023 14.655-2.145 24.356 2.338a2.69 2.69 0 0 0 2.257-4.883Zm3.134-9.685c-12.663-5.852-30.42-3.258-31.17-3.145a2.69 2.69 0 0 0 .802 5.319c.168-.026 16.928-2.46 28.111 2.71a2.68 2.68 0 0 0 2.813-.345 2.69 2.69 0 0 0-.556-4.539Zm2.107-10.118c-13.987-6.464-33.632-3.596-34.462-3.47a2.689 2.689 0 0 0 .803 5.318c.187-.029 18.894-2.746 31.402 3.034a2.69 2.69 0 0 0 2.257-4.882Z"/>
	<path d="M33.5 0C15.029 0 0 15.028 0 33.5 0 51.97 15.028 67 33.5 67 51.974 67 67 51.971 67 33.5 67 15.027 51.974 0 33.5 0Zm0 61.621C17.995 61.621 5.38 49.006 5.38 33.5c0-15.506 12.615-28.12 28.122-28.12 15.506 0 28.12 12.614 28.12 28.12 0 15.507-12.614 28.122-28.12 28.122Z"/>
</symbol>
<symbol id="tw" viewBox="0 0 23 18">
	<path d="M22.35 2.023c-.831.343-1.717.57-2.64.681.95-.533 1.675-1.372 2.016-2.383a9.511 9.511 0 0 1-2.906 1.044A4.73 4.73 0 0 0 15.473 0c-2.536 0-4.579 1.938-4.579 4.314 0 .341.031.67.107.983-3.81-.175-7.18-1.893-9.445-4.51A4.149 4.149 0 0 0 .93 2.965c0 1.493.817 2.817 2.035 3.584a4.744 4.744 0 0 1-2.07-.531v.047c0 2.096 1.589 3.836 3.671 4.237-.373.096-.78.142-1.201.142-.293 0-.59-.015-.867-.073.593 1.707 2.278 2.963 4.28 3.004a9.579 9.579 0 0 1-5.68 1.839A9.11 9.11 0 0 1 0 15.155c2.03 1.233 4.435 1.936 7.03 1.936 8.43 0 13.04-6.574 13.04-12.271 0-.191-.006-.375-.016-.558a8.863 8.863 0 0 0 2.296-2.239Z"/>
</symbol>
<symbol id="youtube" viewBox="0 0 26 20">
	<path d="m17.002 11.18-5.744 3.192c-.33.184-.72.177-1.044-.018a1.065 1.065 0 0 1-.517-.922V7.103a1.066 1.066 0 0 1 1.054-1.072c.175 0 .347.044.5.129l5.744 3.137c.168.091.308.227.405.392a1.083 1.083 0 0 1-.398 1.492ZM11.22 7.9v4.73l4.293-2.386L11.22 7.9Z"/>
	<path d="m25.809 15.28-.002.012c-.022.212-.24 2.103-1.146 3.064-1.046 1.131-2.232 1.269-2.802 1.335l-.129.015-.045.005c-3.438.254-8.628.289-8.68.289h-.01c-.051 0-5.242-.035-8.71-.289l-.046-.005-.122-.015c-.564-.066-1.737-.203-2.786-1.375-.862-.951-1.11-2.801-1.136-3.01l-.003-.026A55.666 55.666 0 0 1 0 10.972V8.996c0-2.114.184-4.219.192-4.308l.001-.013c.022-.21.241-2.065 1.142-3.027C2.318.555 3.562.41 4.23.333c.105-.013.196-.023.258-.034L4.55.29C6.535.1 12.757.004 13.02 0h.016c.052 0 5.243.035 8.68.289l.045.005c.044.006.093.01.146.016.56.06 1.728.186 2.762 1.342.862.952 1.111 2.802 1.137 3.01l.003.027c.007.088.191 2.193.191 4.307v1.976c0 2.114-.184 4.219-.191 4.308Zm-1.333-6.284a54.99 54.99 0 0 0-.184-4.156c-.065-.51-.327-1.68-.747-2.143-.648-.724-1.313-.796-1.798-.848a8.118 8.118 0 0 1-.163-.018c-3.324-.244-8.32-.282-8.55-.283-.257.003-6.389.099-8.313.28a6.583 6.583 0 0 1-.317.042c-.57.066-1.35.157-1.949.827l-.014.015c-.412.436-.667 1.53-.732 2.122-.012.14-.185 2.178-.185 4.162v1.976c0 1.954.168 3.967.184 4.155.077.6.345 1.7.747 2.145.668.745 1.371.828 1.837.882l.124.015c3.373.246 8.404.282 8.584.284.18-.002 5.21-.038 8.553-.284l.134-.016c.478-.055 1.202-.139 1.866-.858l.006-.007c.412-.436.668-1.55.732-2.153a54.89 54.89 0 0 0 .185-4.163V8.996Z"/>
</symbol>
</svg>