<svg width="32" height="32" viewBox="0 0 32 32" fill="none" xmlns="http://www.w3.org/2000/svg">
<rect width="32" height="32" rx="6" fill="#70B2C7"/>
<mask id="mask0_214_24" style="mask-type:alpha" maskUnits="userSpaceOnUse" x="3" y="3" width="26" height="26">
<rect x="3.5" y="3.5" width="25" height="25" rx="6" fill="#D9D9D9"/>
</mask>
<g mask="url(#mask0_214_24)">
<path d="M21.2159 9.54545V13.1818H10.7045V9.54545H21.2159ZM13.0909 5.36364H17.9318V21.6364C17.9318 22.0833 18 22.4318 18.1364 22.6818C18.2727 22.9242 18.4621 23.0947 18.7045 23.1932C18.9545 23.2917 19.2424 23.3409 19.5682 23.3409C19.7955 23.3409 20.0227 23.322 20.25 23.2841C20.4773 23.2386 20.6515 23.2045 20.7727 23.1818L21.5341 26.7841C21.2917 26.8598 20.9508 26.947 20.5114 27.0455C20.072 27.1515 19.5379 27.2159 18.9091 27.2386C17.7424 27.2841 16.7197 27.1288 15.8409 26.7727C14.9697 26.4167 14.2917 25.8636 13.8068 25.1136C13.322 24.3636 13.0833 23.4167 13.0909 22.2727V5.36364Z" fill="white"/>
</g>
</svg>
