<svg width="177" height="62" viewBox="0 0 177 62" fill="none" xmlns="http://www.w3.org/2000/svg">
<path d="M6.6154 0.838603V33.4496H3.5872V0.838603H6.6154ZM19.194 32.0054V33.4496H6.4757V32.0054H19.194ZM22.0358 25.9025L19.3337 33.4496H11.6002L13.2774 32.0054C14.9235 32.0054 16.2667 31.7492 17.3072 31.2367C18.3476 30.7242 19.194 30.0021 19.8462 29.0704C20.4984 28.1387 21.073 27.0827 21.5699 25.9025H22.0358ZM3.727 30.0487V33.4496H0V32.9837C0 32.9837 0.101 32.9837 0.3028 32.9837C0.5047 32.9837 0.605699 32.9837 0.605699 32.9837C1.4132 32.9837 2.1042 32.6964 2.6788 32.1219C3.2534 31.5473 3.5562 30.8562 3.5872 30.0487H3.727ZM3.727 4.2394H3.5872C3.5562 3.4319 3.2534 2.7409 2.6788 2.1663C2.1042 1.5917 1.4132 1.3044 0.605699 1.3044C0.605699 1.3044 0.5047 1.3044 0.3028 1.3044C0.101 1.3044 0 1.3044 0 1.3044V0.838603H3.727V4.2394ZM6.4757 4.2394V0.838603H10.2026V1.3044C10.1716 1.3044 10.0629 1.3044 9.8765 1.3044C9.6902 1.3044 9.597 1.3044 9.597 1.3044C8.7895 1.3044 8.0984 1.5917 7.5239 2.1663C6.9493 2.7409 6.6465 3.4319 6.6154 4.2394H6.4757ZM40.1116 0.186299L53.9014 33.1701H49.9415L39.1799 4.6121L40.1116 0.186299ZM30.0954 30.0487C29.878 30.6699 29.8469 31.1979 30.0022 31.6327C30.1575 32.0675 30.4137 32.4014 30.7709 32.6343C31.128 32.8673 31.493 32.9837 31.8657 32.9837H32.285V33.4496H22.9209V32.9837C22.9209 32.9837 22.9908 32.9837 23.1306 32.9837C23.2703 32.9837 23.3402 32.9837 23.3402 32.9837C24.0545 32.9837 24.7922 32.7586 25.5531 32.3082C26.314 31.8579 26.943 31.1047 27.4399 30.0487H30.0954ZM40.1116 0.186299L40.5309 3.4474L28.8375 33.3098H26.0423L37.9686 4.9848C37.9686 4.9848 38.054 4.7907 38.2248 4.4025C38.3956 4.0143 38.5975 3.5406 38.8305 2.9816C39.0634 2.4225 39.2653 1.87901 39.4361 1.35101C39.6069 0.823006 39.6923 0.434799 39.6923 0.186299H40.1116ZM46.6804 20.7313V22.1289H32.0986V20.7313H46.6804ZM48.7768 30.0487H52.597C53.0628 31.1047 53.684 31.8579 54.4605 32.3082C55.2369 32.7586 55.9823 32.9837 56.6966 32.9837C56.6966 32.9837 56.7588 32.9837 56.883 32.9837C57.0072 32.9837 57.0693 32.9837 57.0693 32.9837V33.4496H46.5872V32.9837H47.0065C47.5966 32.9837 48.1246 32.7275 48.5905 32.215C49.0563 31.7026 49.1185 30.9805 48.7768 30.0487ZM75.1452 0.838603C78.4684 0.838603 81.3801 1.5141 83.8803 2.8651C86.3805 4.2161 88.3371 6.1184 89.7503 8.572C91.1634 11.0256 91.87 13.883 91.87 17.1441C91.87 20.4052 91.1634 23.2548 89.7503 25.6928C88.3371 28.1309 86.3805 30.0332 83.8803 31.3998C81.3801 32.7663 78.4684 33.4496 75.1452 33.4496H65.1755L65.1289 32.052C65.1289 32.052 65.4628 32.052 66.1306 32.052C66.7983 32.052 67.6369 32.052 68.6463 32.052C69.6557 32.052 70.6573 32.052 71.6512 32.052C72.645 32.052 73.4758 32.052 74.1436 32.052C74.8113 32.052 75.1452 32.052 75.1452 32.052C77.8162 32.052 80.1378 31.4308 82.11 30.1885C84.0822 28.9462 85.6195 27.2069 86.7221 24.9707C87.8247 22.7345 88.376 20.1257 88.376 17.1441C88.376 14.1625 87.8247 11.5536 86.7221 9.3174C85.6195 7.0812 84.0744 5.342 82.0867 4.0997C80.099 2.8573 77.7851 2.2362 75.1452 2.2362C75.1452 2.2362 74.7958 2.2362 74.097 2.2362C73.3982 2.2362 72.5285 2.2362 71.4881 2.2362C70.4477 2.2362 69.4072 2.2362 68.3668 2.2362C67.3263 2.2362 66.4489 2.2362 65.7346 2.2362C65.0202 2.2362 64.6631 2.2362 64.6631 2.2362V0.838603H75.1452ZM65.9675 0.838603V33.4496H62.9393V0.838603H65.9675ZM63.0791 30.0487V33.4496H59.3521V32.9837C59.3521 32.9837 59.4531 32.9837 59.6549 32.9837C59.8568 32.9837 59.9578 32.9837 59.9578 32.9837C60.7653 32.9837 61.4563 32.6964 62.0309 32.1219C62.6055 31.5473 62.9083 30.8562 62.9393 30.0487H63.0791ZM63.0791 4.2394H62.9393C62.9393 3.4319 62.6443 2.7409 62.0542 2.1663C61.4641 1.5917 60.7653 1.3044 59.9578 1.3044C59.9578 1.3044 59.8646 1.3044 59.6782 1.3044C59.4919 1.3044 59.3987 1.3044 59.3987 1.3044L59.3521 0.838603H63.0791V4.2394ZM102.632 0.838603V33.4496H99.6034V0.838603H102.632ZM99.7432 30.0487V33.4496H96.0162V32.9837C96.0162 32.9837 96.1172 32.9837 96.319 32.9837C96.5209 32.9837 96.6219 32.9837 96.6219 32.9837C97.4294 32.9837 98.1204 32.6964 98.695 32.1219C99.2696 31.5473 99.5724 30.8562 99.6034 30.0487H99.7432ZM99.7432 4.2394H99.6034C99.5724 3.4319 99.2696 2.7409 98.695 2.1663C98.1204 1.5917 97.4294 1.3044 96.6219 1.3044C96.6219 1.3044 96.5209 1.3044 96.319 1.3044C96.1172 1.3044 96.0162 1.3044 96.0162 1.3044V0.838603H99.7432V4.2394ZM102.492 30.0487H102.632C102.663 30.8562 102.965 31.5473 103.54 32.1219C104.115 32.6964 104.806 32.9837 105.613 32.9837C105.613 32.9837 105.706 32.9837 105.893 32.9837C106.079 32.9837 106.188 32.9837 106.219 32.9837V33.4496H102.492V30.0487ZM102.492 4.2394V0.838603H106.219V1.3044C106.188 1.3044 106.079 1.3044 105.893 1.3044C105.706 1.3044 105.613 1.3044 105.613 1.3044C104.806 1.3044 104.115 1.5917 103.54 2.1663C102.965 2.7409 102.663 3.4319 102.632 4.2394H102.492ZM118.378 0.838603V33.4496H115.35V0.838603H118.378ZM130.957 32.0054V33.4496H118.238V32.0054H130.957ZM128.953 16.6782V18.0758H118.238V16.6782H128.953ZM130.957 0.838603V2.2828H118.238V0.838603H130.957ZM133.799 25.9025L131.096 33.4496H123.363L125.04 32.0054C126.686 32.0054 128.029 31.7492 129.07 31.2367C130.11 30.7242 130.957 30.0021 131.609 29.0704C132.261 28.1387 132.836 27.0827 133.333 25.9025H133.799ZM128.953 17.9826V21.0574H128.488V20.3586C128.488 19.7374 128.27 19.2017 127.835 18.7513C127.4 18.301 126.873 18.0758 126.251 18.0758V17.9826H128.953ZM128.953 13.6966V16.7714H126.251V16.6782C126.873 16.6471 127.4 16.4064 127.835 15.9561C128.27 15.5058 128.488 14.97 128.488 14.3488V13.6966H128.953ZM130.957 2.143V5.87H130.491V5.03141C130.491 4.28601 130.227 3.6416 129.699 3.098C129.171 2.5545 128.519 2.2672 127.742 2.2362V2.143H130.957ZM130.957 0V1.35101L125.273 0.838603C125.956 0.838603 126.678 0.791999 127.439 0.698799C128.2 0.605599 128.907 0.496905 129.559 0.372705C130.211 0.248505 130.677 0.1242 130.957 0ZM115.49 30.0487V33.4496H111.763V32.9837C111.763 32.9837 111.864 32.9837 112.065 32.9837C112.267 32.9837 112.368 32.9837 112.368 32.9837C113.176 32.9837 113.867 32.6964 114.441 32.1219C115.016 31.5473 115.319 30.8562 115.35 30.0487H115.49ZM115.49 4.2394H115.35C115.35 3.4319 115.055 2.7409 114.465 2.1663C113.875 1.5917 113.176 1.3044 112.368 1.3044C112.368 1.3044 112.275 1.3044 112.089 1.3044C111.902 1.3044 111.809 1.3044 111.809 1.3044L111.763 0.838603H115.49V4.2394ZM147.542 0.186299C148.039 0.186299 148.574 0.217402 149.149 0.279502C149.723 0.341602 150.283 0.427003 150.826 0.535703C151.37 0.644403 151.866 0.753104 152.317 0.861904C152.767 0.970604 153.117 1.087 153.365 1.2113V6.3824H152.946C152.946 4.8916 152.433 3.7192 151.408 2.8651C150.383 2.011 149.141 1.584 147.681 1.584C145.973 1.584 144.591 2.1197 143.535 3.1912C142.479 4.2627 141.951 5.5128 141.951 6.9415C141.951 7.5316 142.083 8.2226 142.347 9.0146C142.611 9.8066 143.1 10.5442 143.815 11.2275L152.992 19.7064C153.924 20.576 154.545 21.5077 154.856 22.5016C155.166 23.4955 155.322 24.4583 155.322 25.39C155.322 27.9678 154.537 30.0643 152.969 31.6793C151.401 33.2943 149.281 34.1018 146.61 34.1018C145.865 34.1018 144.987 34.0242 143.978 33.8689C142.968 33.7136 141.99 33.4418 141.043 33.0536C140.096 32.6654 139.311 32.1607 138.69 31.5395C138.597 31.0426 138.55 30.4214 138.55 29.676C138.55 28.9306 138.613 28.1464 138.737 27.3234C138.861 26.5003 139.032 25.7472 139.249 25.0639H139.669C139.513 26.6479 139.715 28.03 140.274 29.2102C140.833 30.3904 141.648 31.2833 142.72 31.8889C143.791 32.4946 145.01 32.7663 146.377 32.7042C148.085 32.611 149.553 32.0132 150.78 30.9106C152.006 29.808 152.62 28.325 152.62 26.4615C152.62 25.5608 152.464 24.7456 152.154 24.0157C151.843 23.2858 151.393 22.6569 150.803 22.1289L141.858 13.8364C140.926 12.9668 140.274 12.0117 139.901 10.9713C139.529 9.9308 139.342 8.9603 139.342 8.0596C139.342 6.7551 139.653 5.49731 140.274 4.28601C140.895 3.07471 141.819 2.0886 143.046 1.32771C144.273 0.566805 145.771 0.186299 147.542 0.186299ZM153.365 0.652197V1.6305H149.825V0.652197H153.365Z" fill="#DFB53F"/>
<path d="M64.8901 43.8063C65.8937 42.696 66.6126 41.8347 67.0325 41.2297C67.4595 40.6248 67.6731 40.1764 67.6731 39.8845C67.6731 39.8276 67.6446 39.7849 67.5805 39.7422C67.5165 39.6995 67.4382 39.6781 67.3386 39.6781C66.7407 39.6781 66.1428 40.0198 65.5378 40.7102C64.94 41.4006 64.641 42.1052 64.641 42.8241C64.641 42.9379 64.6624 43.0803 64.7051 43.2511C64.7478 43.4291 64.8118 43.607 64.8901 43.8063ZM57.858 41.0305C56.9541 41.6995 56.0004 42.454 54.9968 43.3009C54.0004 44.155 53.431 44.575 53.2886 44.575C53.2032 44.575 53.1463 44.5465 53.1036 44.4824C53.0608 44.4184 53.0395 44.3259 53.0395 44.1977C53.0395 43.9771 53.5591 43.4291 54.6053 42.5536C55.6445 41.6781 57.3669 40.3472 59.7726 38.5749L71.7728 24.525C71.9578 24.3186 72.1215 24.1762 72.2639 24.1122C72.4133 24.041 72.6055 24.0054 72.8404 24.0054C73.2817 24.0054 73.6518 24.0552 73.9436 24.162C74.2354 24.2687 74.3778 24.404 74.3778 24.5677C74.3635 24.7243 74.2568 24.9164 74.0646 25.1513C74.0219 25.194 73.9934 25.2296 73.9792 25.2581L60.7122 40.6959C58.9613 42.7387 57.7726 44.2618 57.1534 45.2654C56.5342 46.2689 56.2281 47.1088 56.2281 47.785C56.2281 47.9843 56.3207 48.1551 56.5128 48.2974C56.6979 48.4469 56.9185 48.5181 57.1676 48.5181C57.8865 48.5181 58.8616 48.1693 60.0858 47.4718C61.31 46.7814 62.6695 45.7992 64.1713 44.5323C63.9791 44.1977 63.8296 43.8846 63.73 43.5856C63.6232 43.2867 63.5734 43.002 63.5734 42.7387C63.5734 41.7422 63.9649 40.824 64.7407 39.9913C65.5165 39.1586 66.3848 38.7386 67.3457 38.7386C67.73 38.7386 68.0432 38.8454 68.2709 39.0518C68.4987 39.2582 68.6126 39.5358 68.6126 39.8845C68.6126 40.3401 68.3991 40.9095 67.972 41.5856C67.5521 42.2618 66.7834 43.2155 65.6659 44.4469C65.8723 44.6034 66.1001 44.7173 66.335 44.7814C66.5699 44.8526 66.8261 44.8881 67.1037 44.8881C68.1357 44.8881 69.0895 44.5963 69.9649 44.0127C70.8404 43.4291 71.2816 43.1372 71.2959 43.1372C71.4098 43.1372 71.4952 43.1657 71.545 43.2084C71.6019 43.2582 71.6375 43.3294 71.6518 43.4291C71.6518 43.8063 71.1535 44.2903 70.1571 44.8881C69.1677 45.486 68.1215 45.7849 67.0183 45.7849C66.641 45.7849 66.2709 45.7422 65.9008 45.6497C65.5378 45.5572 65.1819 45.4291 64.8474 45.2654C63.0752 46.7672 61.4808 47.8988 60.0716 48.6604C58.6552 49.422 57.431 49.7992 56.3918 49.7992C55.7797 49.7992 55.2886 49.6213 54.9114 49.2654C54.5342 48.9095 54.3491 48.4327 54.3491 47.8348C54.3491 46.8882 54.6338 45.8632 55.1961 44.76C55.7584 43.6497 56.6481 42.4113 57.858 41.0305ZM79.1536 50.3615C76.1216 54.1409 73.5735 56.9737 71.5023 58.874C69.4311 60.7673 67.851 61.7139 66.7692 61.7139C66.1713 61.7139 65.7015 61.5289 65.3599 61.1587C65.0183 60.7958 64.8474 60.2904 64.8474 59.6498C64.8474 58.1409 65.9578 56.4683 68.1784 54.6533C70.3991 52.8313 73.3315 51.2441 76.9757 49.8846L77.8725 48.3971C77.1749 48.8739 76.4846 49.2298 75.787 49.4789C75.0895 49.7209 74.4276 49.8419 73.787 49.8419C73.1607 49.8419 72.6553 49.6711 72.2639 49.3223C71.8724 48.9736 71.6802 48.5181 71.6802 47.9629C71.6802 47.2939 71.9436 46.5536 72.4632 45.7422C72.9827 44.9308 73.723 44.1195 74.6838 43.3152C74.9472 43.0803 75.3102 42.7671 75.7657 42.3757C77.1394 41.2226 77.8298 40.5536 77.8298 40.3756C77.8298 40.276 77.7871 40.1906 77.6945 40.1265C77.602 40.0554 77.4952 40.0198 77.3742 40.0198C77.1465 40.0198 76.812 40.1265 76.3564 40.3401C75.908 40.5607 75.4027 40.8454 74.8475 41.2084C74.0005 41.792 73.1678 42.4397 72.3564 43.1444C71.545 43.8561 71.0753 44.212 70.9471 44.212C70.8688 44.212 70.7834 44.1693 70.698 44.0981C70.6126 44.0198 70.5699 43.9415 70.5699 43.8561C70.5699 43.7138 70.7763 43.4433 71.1749 43.0376C71.5806 42.639 72.1073 42.1835 72.7621 41.6853C74.0361 40.6959 75.1465 39.9628 76.0789 39.4931C77.0184 39.0162 77.8155 38.7813 78.4632 38.7813C78.9116 38.7813 79.2604 38.9166 79.5237 39.1799C79.7871 39.4433 79.9223 39.8062 79.9223 40.2618C79.9223 40.7671 79.7515 41.2796 79.4027 41.7991C79.0611 42.3187 78.3351 43.1088 77.2461 44.1693C76.8547 44.5251 76.3351 45.0163 75.6803 45.6284C74.1785 47.0305 73.4311 47.8917 73.4311 48.212C73.4454 48.3757 73.5308 48.5109 73.6945 48.6177C73.8511 48.7245 74.0504 48.7743 74.2852 48.7743C74.755 48.7743 75.303 48.6177 75.9223 48.2974C76.5415 47.9771 77.2177 47.4931 77.9508 46.8597L83.9722 41.6426C84.57 41.1301 85.1537 40.639 85.7302 40.1835C86.3067 39.7208 86.8761 39.3009 87.4313 38.9094H87.9508C88.3138 38.9094 88.5701 38.9379 88.7124 38.9877C88.8619 39.0447 88.9331 39.1443 88.9331 39.2796C88.9331 39.4077 87.8726 40.5251 85.7444 42.6319C83.6163 44.7387 81.5878 46.9878 79.6518 49.3793C81.0042 49.1586 82.2782 48.7956 83.4882 48.2903C84.6981 47.7778 85.9722 47.0732 87.3032 46.1693C88.143 45.5999 88.9758 44.9522 89.8085 44.2333C90.6413 43.5073 91.1181 43.1444 91.2249 43.1444C91.3388 43.1444 91.4242 43.1799 91.474 43.2369C91.5309 43.3009 91.5665 43.3935 91.5808 43.5216C91.5808 43.7138 91.289 44.0839 90.7053 44.6177C90.1217 45.1515 89.3316 45.7778 88.3281 46.5038C86.8405 47.5857 85.3601 48.4398 83.8796 49.059C82.3992 49.6782 80.8262 50.1124 79.1536 50.3615ZM76.0361 51.301C72.8475 52.7032 70.3706 54.1338 68.5841 55.5929C66.8048 57.0448 65.9151 58.3616 65.9151 59.5288C65.9151 59.8989 66.0076 60.2121 66.1855 60.4541C66.3706 60.6961 66.5912 60.8171 66.8546 60.8171C67.5806 60.8171 68.6695 60.0626 70.1286 58.5609C71.5948 57.0519 73.5593 54.632 76.0361 51.301ZM127.545 23.3506C124.997 26.0125 121.93 29.6852 118.335 34.3898C114.741 39.0874 112.229 42.2333 110.798 43.8134C109.019 45.8205 107.246 47.3366 105.481 48.3757C103.716 49.4078 102.036 49.9273 100.435 49.9273C99.047 49.9273 97.9224 49.5857 97.0612 48.9024C96.2 48.2262 95.7658 47.3294 95.7658 46.212C95.7658 45.2938 96.1075 44.5038 96.7979 43.8348C97.4883 43.1657 98.2996 42.8312 99.2249 42.8312C99.8797 42.8312 100.406 43.002 100.791 43.3365C101.182 43.671 101.374 44.1123 101.374 44.6675C101.374 45.2369 101.204 45.6782 100.855 45.9914C100.506 46.3045 100.022 46.4611 99.3957 46.4611C99.0185 46.4611 98.6057 46.3543 98.1431 46.1266C97.6875 45.9059 97.3957 45.7921 97.2676 45.7921C97.1181 45.7921 96.99 45.8632 96.8904 46.0056C96.7979 46.1408 96.748 46.3259 96.748 46.5465C96.748 47.2013 97.1039 47.7636 97.8085 48.2334C98.5203 48.7102 99.3957 48.9451 100.442 48.9451C101.339 48.9451 102.278 48.7529 103.246 48.3686C104.207 47.9914 105.218 47.4149 106.278 46.6533C108.527 44.9949 112.52 40.4041 118.264 32.888C119.289 31.5499 120.079 30.5321 120.62 29.8204C123.246 26.4111 125.538 23.6566 127.488 21.557C129.439 19.4573 130.67 18.411 131.168 18.411C131.239 18.411 131.289 18.4253 131.325 18.4609C131.36 18.4965 131.375 18.5534 131.375 18.6174C131.375 18.8594 131.019 19.7135 130.3 21.194C129.588 22.6744 129.033 24.1122 128.641 25.5001C128.421 26.3471 128.086 27.6994 127.645 29.5499C126.086 36.0696 124.357 41.2013 122.449 44.938L131.937 33.3649C136.108 28.283 139.631 24.4609 142.492 21.9057C145.353 19.3506 147.56 18.0694 149.104 18.0694C149.368 18.0694 149.567 18.1121 149.709 18.2046C149.845 18.2972 149.916 18.4253 149.916 18.589C149.916 18.8239 149.624 19.0231 149.033 19.1726C148.442 19.3292 147.958 19.4858 147.581 19.6495C145.859 20.4466 143.916 21.8488 141.752 23.8702C139.588 25.8915 137.076 28.6674 134.214 32.1976L121.097 48.2547C120.57 48.9095 120.15 49.3793 119.837 49.6497C119.524 49.9202 119.275 50.0554 119.097 50.0554C118.983 50.0554 118.898 50.0199 118.834 49.9416C118.77 49.8633 118.741 49.7636 118.741 49.6355C118.741 49.5288 118.912 49.1586 119.254 48.5252C119.588 47.8917 119.88 47.2939 120.115 46.7387C120.77 45.1373 121.396 43.0803 121.994 40.5607C122.101 40.0909 122.186 39.7422 122.243 39.5215L122.35 39.1016C123.809 33.1229 125.538 27.8702 127.545 23.3506ZM145.211 33.1799C145.211 32.7884 145.346 32.4681 145.617 32.2261C145.887 31.9841 146.25 31.8631 146.699 31.8631C147.154 31.8631 147.524 31.9841 147.795 32.2261C148.065 32.4681 148.2 32.7884 148.2 33.1799C148.2 33.5927 148.058 33.9272 147.78 34.1763C147.503 34.4254 147.14 34.5535 146.699 34.5535C146.236 34.5535 145.873 34.4254 145.61 34.1763C145.346 33.9272 145.211 33.5927 145.211 33.1799ZM136.791 41.97C136.015 42.4184 135.232 42.9451 134.449 43.5501C133.666 44.155 133.211 44.454 133.09 44.454C133.005 44.454 132.933 44.4255 132.876 44.3686C132.827 44.3187 132.798 44.2476 132.798 44.1622C132.798 43.9415 133.054 43.6355 133.56 43.244L133.581 43.2226L134.869 42.2404C136.442 41.0305 137.731 40.1337 138.734 39.5429C139.731 38.9521 140.471 38.6532 140.948 38.6532C141.574 38.6532 142.079 38.6959 142.457 38.7813C142.841 38.8596 143.033 38.9735 143.033 39.1087C143.033 39.2084 142.464 39.7351 141.332 40.6888C140.193 41.6426 139.14 42.5963 138.165 43.5572C136.926 44.7671 136.001 45.7707 135.382 46.5608C134.763 47.3579 134.449 47.9202 134.449 48.2547C134.449 48.4327 134.506 48.575 134.613 48.6675C134.727 48.7672 134.884 48.817 135.076 48.817C135.659 48.817 136.528 48.5252 137.674 47.9415C138.827 47.3579 140.051 46.5608 141.361 45.5572C141.873 45.1871 142.442 44.7387 143.062 44.212C143.674 43.6924 144.037 43.4291 144.129 43.4291C144.215 43.4291 144.286 43.4646 144.35 43.5358C144.414 43.607 144.442 43.6853 144.442 43.7636C144.442 44.034 143.788 44.6889 142.464 45.7494L142.008 46.1266C140.592 47.2796 139.211 48.1907 137.873 48.8526C136.528 49.5145 135.439 49.8419 134.592 49.8419C133.98 49.8419 133.481 49.6782 133.097 49.3437C132.72 49.0092 132.528 48.575 132.528 48.0483C132.528 47.3366 132.884 46.4825 133.588 45.4789C134.293 44.4753 135.36 43.3081 136.791 41.97ZM144.4 49.6711C143.944 49.7423 143.61 49.785 143.389 49.8063C143.175 49.8277 142.969 49.8419 142.777 49.8419C142.499 49.8419 142.279 49.8063 142.122 49.7352C141.958 49.6711 141.88 49.5786 141.88 49.4647C141.88 49.3295 142.336 48.7316 143.254 47.6924C143.51 47.4077 143.702 47.1871 143.837 47.0234L150.115 39.7208C148.613 40.6959 147.161 41.7564 145.759 42.9024C144.357 44.0483 143.602 44.6177 143.503 44.6177C143.425 44.6177 143.36 44.5892 143.318 44.5251C143.275 44.4682 143.254 44.3686 143.254 44.2476C143.254 43.97 144.022 43.2155 145.553 41.9842C147.083 40.7529 149.375 39.0589 152.435 36.9023L163.055 24.5677L163.097 24.5036C163.361 24.1976 163.66 24.0481 163.994 24.0481C164.4 24.0481 164.749 24.105 165.048 24.226C165.346 24.3399 165.496 24.4752 165.496 24.6104C165.496 24.6816 165.467 24.767 165.411 24.8737C165.354 24.9734 165.268 25.1015 165.14 25.2581L151.368 41.308C152.535 40.4397 153.553 39.7991 154.428 39.3721C155.304 38.9521 156.037 38.7386 156.62 38.7386C157.19 38.7386 157.638 38.8952 157.98 39.2084C158.321 39.5215 158.492 39.9486 158.492 40.4895C158.492 41.002 158.314 41.4362 157.958 41.792C157.603 42.1479 157.154 42.3258 156.613 42.3258C156.35 42.3258 156.129 42.2262 155.944 42.0269C155.766 41.8205 155.674 41.5856 155.674 41.308C155.674 41.0305 155.773 40.7671 155.98 40.5251C156.179 40.2831 156.499 40.0411 156.948 39.8062H156.777C156.215 39.8062 155.553 39.9842 154.805 40.3401C154.058 40.6888 153.097 41.2867 151.916 42.1194C152.542 42.3258 153.012 42.6248 153.325 43.002C153.638 43.3863 153.795 43.8561 153.795 44.4113C153.795 44.9949 153.482 45.6853 152.855 46.4682C152.229 47.2512 151.916 47.8633 151.916 48.2903C151.916 48.4469 151.966 48.5608 152.072 48.6248C152.179 48.696 152.329 48.7316 152.521 48.7316C153.119 48.7316 154.008 48.4255 155.197 47.8206C156.378 47.2156 157.645 46.4113 158.991 45.3935C159.546 44.9878 160.151 44.5109 160.798 43.9629C161.439 43.4148 161.83 43.1372 161.951 43.1372C162.051 43.1372 162.129 43.1728 162.193 43.244C162.257 43.3152 162.286 43.4077 162.286 43.5145C162.286 43.7636 161.517 44.518 159.973 45.7707L159.845 45.8775C158.307 47.1159 156.827 48.0839 155.418 48.7885C154.008 49.4932 152.855 49.8419 151.951 49.8419C151.325 49.8419 150.813 49.6497 150.414 49.2654C150.022 48.8882 149.823 48.3971 149.823 47.7992C149.823 47.2084 150.122 46.4967 150.72 45.6426C151.318 44.7956 151.617 44.1835 151.617 43.8063C151.617 43.4575 151.51 43.1871 151.297 42.9949C151.076 42.7956 150.763 42.6888 150.343 42.6604C149.261 43.7849 148.222 44.9308 147.24 46.1052C146.25 47.2725 145.304 48.4611 144.4 49.6711ZM161.446 48.0412C161.446 48.2903 161.51 48.4682 161.631 48.575C161.759 48.6818 161.951 48.7316 162.215 48.7316C162.827 48.7316 163.631 48.4469 164.635 47.8775C165.631 47.3081 166.791 46.4682 168.115 45.3508C169.254 44.3828 170.144 43.4718 170.777 42.6319C171.418 41.792 171.738 41.1159 171.738 40.6176C171.738 40.3543 171.66 40.1479 171.496 39.9913C171.339 39.8418 171.119 39.7635 170.841 39.7635C170.371 39.7635 169.724 39.9913 168.905 40.4397C168.087 40.8952 167.225 41.5073 166.322 42.2903C164.834 43.5501 163.653 44.7102 162.77 45.7565C161.887 46.8099 161.446 47.5714 161.446 48.0412ZM170.635 44.3401C168.841 46.1052 167.204 47.4433 165.717 48.3686C164.229 49.2939 162.962 49.7565 161.923 49.7565C161.197 49.7565 160.628 49.5501 160.201 49.1302C159.781 48.7102 159.567 48.1551 159.567 47.4576C159.567 46.4896 159.959 45.4504 160.741 44.3614C161.531 43.2725 162.642 42.1977 164.094 41.1586C165.176 40.3756 166.286 39.7635 167.418 39.3223C168.549 38.8739 169.546 38.6532 170.407 38.6532C171.105 38.6532 171.66 38.8383 172.087 39.2084C172.507 39.5785 172.72 40.0625 172.72 40.6603C172.72 41.066 172.599 41.5144 172.357 42.0198C172.108 42.518 171.745 43.0661 171.261 43.6497C171.411 43.97 171.624 44.2049 171.887 44.3614C172.151 44.5109 172.471 44.5892 172.841 44.5892C173.375 44.5892 173.987 44.3472 174.678 43.8703C175.375 43.3863 175.809 43.1444 175.973 43.1444C176.058 43.1444 176.122 43.1728 176.158 43.2298C176.201 43.2867 176.222 43.3721 176.222 43.4789C176.222 43.7565 175.831 44.155 175.033 44.6746C174.243 45.1871 173.51 45.4433 172.841 45.4433C172.4 45.4433 172.001 45.3579 171.645 45.18C171.29 45.0091 170.955 44.7244 170.635 44.3401Z" fill="#FEFEFE"/>
</svg>
