<svg width="342" height="49" fill="none" xmlns="http://www.w3.org/2000/svg"><path d="M25.23 28.719c1.126.61 2.245 1.132 3.337 1.69a48.086 48.086 0 013.189 1.742c1.025.62 2.011 1.29 2.931 2.052.926.76 1.77 1.616 2.582 2.605-.27-1.254-.943-2.413-1.787-3.4-.85-.988-1.88-1.811-2.984-2.476a15.921 15.921 0 00-3.511-1.56c-1.221-.368-2.476-.618-3.757-.653zM6.44 12.572c.701-.44 1.416-.85 2.137-1.247a1.132 1.132 0 00.215.366c-.775.311-1.557.61-2.352.88zM10.724 10.437a1.157 1.157 0 00-.115-.191c.28-.143.562-.283.842-.427l1.71-.831 1.728-.798c.582-.254 1.157-.52 1.745-.762 1.169-.495 2.348-.97 3.558-1.38a52.296 52.296 0 01-3.318 1.882c-.56.301-1.13.579-1.694.868l-1.71.833-1.727.8c-.305.131-.608.268-.912.403a1.153 1.153 0 00-.107-.397zM21.034 9.6a1.166 1.166 0 00-.093-.158 60.79 60.79 0 012.273-.877c-.699.416-1.405.816-2.117 1.203a1.123 1.123 0 00-.063-.169zM10.556 14.26c.683-.36 1.377-.697 2.065-1.045l2.08-1.008 2.098-.974c.682-.301 1.359-.613 2.044-.906a1.171 1.171 0 00.242.506c-.66.346-1.33.673-1.995 1.008l-2.08 1.009-2.098.975c-.705.313-1.404.637-2.115.938a74.52 74.52 0 01-4.299 1.73 74.476 74.476 0 014.058-2.233zM7.614 19.913c.53-.312 1.065-.615 1.602-.913a1.169 1.169 0 00.12.25 63.08 63.08 0 01-1.722.663zM11.37 18.132a1.164 1.164 0 00-.135-.214c.216-.114.432-.227.65-.339.717-.377 1.446-.73 2.17-1.094l2.187-1.058 2.204-1.024c.74-.329 1.475-.67 2.221-.988a83.714 83.714 0 014.51-1.832c-1.399.828-2.83 1.591-4.27 2.332-.718.377-1.447.732-2.17 1.096l-2.187 1.06-2.204 1.023c-.74.33-1.475.67-2.22.988-.225.098-.45.193-.674.289a1.152 1.152 0 00-.083-.239zM13.799 20.622c.655-.349 1.322-.67 1.982-1.007l2-.969 2.018-.935c.542-.241 1.083-.486 1.627-.725a1.155 1.155 0 00.253.53c-.527.272-1.06.535-1.59.803l-2 .97-2.015.937c-.68.298-1.35.611-2.035.898a67.766 67.766 0 01-4.137 1.653 68.833 68.833 0 013.897-2.155zM23.619 16.272a1.157 1.157 0 00-.1-.168c.81-.331 1.624-.65 2.45-.947-.75.454-1.513.882-2.282 1.299a1.167 1.167 0 00-.068-.184zM13.265 25.134c.43-.276.865-.54 1.305-.794a1.163 1.163 0 00.144.281c-.478.18-.96.353-1.45.513zM16.72 23.462a1.143 1.143 0 00-.143-.225 73.956 73.956 0 015.885-2.773 41.384 41.384 0 013.225-1.223 41.98 41.98 0 01-2.986 1.724 73.17 73.17 0 01-3.071 1.543 69.4 69.4 0 01-2.813 1.264 1.148 1.148 0 00-.097-.31zM21.769 25.049a1.162 1.162 0 00-.195-.287c.337-.145.677-.285 1.022-.414.59-.219 1.19-.418 1.82-.555-.502.403-1.036.741-1.579 1.06-.319.183-.641.36-.967.527a1.15 1.15 0 00-.101-.331zM19.195 25.96c.125-.073.251-.144.377-.214a1.152 1.152 0 00.27.562c-.135.055-.27.108-.405.157-.59.22-1.19.419-1.822.554a13.14 13.14 0 011.58-1.06zM19.073 36.202c.577-.379 1.168-.73 1.766-1.067a1.155 1.155 0 00.18.376c-.64.249-1.286.485-1.946.691z" fill="#FEFEFE"/><path d="M23.012 34.333c-.048-.1-.11-.191-.182-.27a63.697 63.697 0 014.813-2.232 37.3 37.3 0 013.016-1.125 35.909 35.909 0 01-2.777 1.624c-.94.51-1.897.987-2.862 1.446-.632.3-1.268.591-1.91.87a1.155 1.155 0 00-.098-.313zM32.534 33.768a1.148 1.148 0 00-.076-.133c.58-.23 1.162-.452 1.752-.661a51.23 51.23 0 01-1.62.937 1.137 1.137 0 00-.056-.143zM22.384 38.273c.637-.337 1.284-.652 1.926-.978l1.942-.943 1.96-.907c.658-.291 1.312-.592 1.976-.871l.158-.067a1.154 1.154 0 00.233.487l-.151.08c-.637.338-1.284.653-1.926.979l-1.942.943-1.959.909c-.658.29-1.311.593-1.976.87a65.049 65.049 0 01-4.022 1.6 64.887 64.887 0 013.781-2.102zM20.26 43.648c-.377.148-.757.292-1.138.431.349-.207.7-.408 1.054-.608a1.239 1.239 0 00.084.177zM22.315 42.564a1.158 1.158 0 00-.119-.194c.405-.214.81-.426 1.218-.636.72-.378 1.453-.732 2.18-1.099l2.198-1.064 2.215-1.027c.743-.333 1.482-.674 2.232-.994a84.506 84.506 0 014.532-1.842 82.879 82.879 0 01-4.293 2.343c-.721.378-1.453.734-2.18 1.1L28.1 40.217l-2.214 1.028c-.744.332-1.482.674-2.232.994-.42.183-.84.362-1.262.54a1.146 1.146 0 00-.077-.214zM9.972 17.906a.802.802 0 11.693 1.448.802.802 0 11-.693-1.448zM22.222 16.046a.802.802 0 11.694 1.45.809.809 0 01-1.075-.381.802.802 0 01.38-1.07zM15.323 23.236a.808.808 0 011.074.38c.191.4.02.88-.38 1.07a.809.809 0 01-1.075-.38.802.802 0 01.38-1.07zM20.372 24.823a.802.802 0 11.693 1.448.802.802 0 11-.693-1.448zM19.637 9.373a.802.802 0 11.693 1.448.808.808 0 01-1.075-.378.801.801 0 01.382-1.07zM9.326 10.21a.808.808 0 011.074.379c.192.4.021.88-.38 1.07a.809.809 0 01-1.075-.38.802.802 0 01.381-1.07zM21.614 34.108a.808.808 0 011.074.379c.192.4.021.88-.38 1.07a.809.809 0 01-1.075-.38.802.802 0 01.381-1.07zM31.137 33.542a.802.802 0 11.693 1.448.808.808 0 01-1.074-.379.8.8 0 01.381-1.069zM20.918 42.339a.802.802 0 11.693 1.448.802.802 0 11-.693-1.448z" fill="#FEFEFE"/><path fill-rule="evenodd" clip-rule="evenodd" d="M18.923 4.144a22.123 22.123 0 013.23-.133c11.855.38 21.163 10.084 20.789 21.675-.374 11.592-10.288 20.682-22.143 20.303C8.944 45.609-.363 35.905.01 24.313c.155-4.825 1.965-9.215 4.878-12.67C5.928 10.41 8.05 8.523 9.338 7.66a21.598 21.598 0 016.718-2.993c.513-.13 2.33-.463 2.867-.524zm.447 40c-.381-1.752-.338-3.526-.054-5.24.345-2.053 1.011-4.043 1.839-5.956.413-.958.874-1.895 1.366-2.811.248-.454.512-.91.77-1.332l.22-.357.217-.37c.141-.246.278-.49.411-.738 1.051-1.985 1.9-4.07 2.475-6.272.278-1.103.487-2.232.594-3.386.097-1.151.096-2.331-.077-3.508-.173-1.173-.497-2.348-1.032-3.436a9.943 9.943 0 00-.921-1.552c-.35-.486-.734-.94-1.146-1.36a12.02 12.02 0 00-1.305-1.163c-.423-.333-.86-.641-1.311-.92.226 0 .453.004.681.01C32.968 6.103 41.503 15 41.16 25.63c-.343 10.629-9.433 18.964-20.305 18.616-.5-.016-.995-.05-1.485-.102zM18.64 5.938c1.458.936 2.786 2.02 3.817 3.29.314.38.594.78.84 1.195.25.412.467.836.64 1.28.35.88.573 1.816.665 2.78.096.964.083 1.954-.035 2.945a20.386 20.386 0 01-.555 2.976c-.245.99-.568 1.968-.929 2.936a33.555 33.555 0 01-1.555 3.551l-.177.338-.189.341c-.283.51-.52 1.01-.756 1.522a31.18 31.18 0 00-.658 1.542 33.826 33.826 0 00-.564 1.577c-.178.528-.33 1.066-.47 1.608a21.4 21.4 0 00-.367 1.636 19.232 19.232 0 00-.34 3.34c-.008 1.12.095 2.247.358 3.333.162.683.391 1.35.687 1.979-9.996-1.212-17.584-9.702-17.26-19.737a18.853 18.853 0 013.172-9.889c.009.508.043 1.017.107 1.526.156 1.166.458 2.338.969 3.428.24.55.55 1.07.882 1.565a12.24 12.24 0 002.394 2.557c.446.364.912.694 1.392.997.957.61 1.964 1.11 2.992 1.524 1.03.415 2.082.747 3.145 1.006a23.54 23.54 0 003.22.56c-2.02-.79-3.978-1.663-5.778-2.743-1.794-1.074-3.444-2.35-4.65-3.898a9.643 9.643 0 01-.81-1.203c-.232-.418-.451-.837-.607-1.284a10.29 10.29 0 01-.616-2.78 14.495 14.495 0 01.075-2.934c.07-.615.173-1.23.303-1.843a19.803 19.803 0 0110.658-5.021z" fill="#FEFEFE"/><path d="M64.463 14.177c0 .852-.294 1.536-.882 2.05-.588.515-1.399.773-2.434.773h-3.999V7.368h6.33v1.067h-5.024v3.007h2.611c1.076 0 1.91.24 2.502.718.597.479.896 1.15.896 2.017zm-1.313.013c0-.551-.186-.973-.56-1.264-.374-.296-.934-.445-1.682-.445h-2.454v3.487h2.509c.747 0 1.299-.155 1.654-.465.356-.31.533-.748.533-1.313zM70.984 17v-6.501h-2.563c-.269 1.987-.476 3.33-.622 4.026-.146.693-.303 1.217-.472 1.573-.168.355-.378.617-.629.786-.246.168-.565.253-.957.253a2.26 2.26 0 01-.642-.09v-.881c.114.041.269.061.465.061.25 0 .45-.125.601-.375.155-.251.294-.684.417-1.3.128-.614.271-1.524.43-2.727l.302-2.221h4.908V17h-1.238zm5.045.137c-.742 0-1.3-.196-1.674-.588-.374-.392-.561-.93-.561-1.614 0-.765.25-1.353.752-1.763.506-.41 1.32-.629 2.44-.656l1.661-.028v-.403c0-.602-.127-1.032-.382-1.292-.256-.26-.657-.39-1.204-.39-.55 0-.952.094-1.203.28-.25.187-.4.486-.45.896l-1.286-.116c.21-1.33 1.199-1.996 2.967-1.996.93 0 1.63.214 2.099.642.469.424.704 1.04.704 1.846v3.186c0 .364.047.64.143.827.096.182.278.273.547.273.119 0 .253-.016.403-.048v.766c-.31.073-.626.11-.95.11-.456 0-.788-.12-.998-.356-.205-.242-.321-.618-.349-1.128h-.04c-.315.565-.682.966-1.101 1.203-.415.232-.92.349-1.518.349zm.28-.923a2.34 2.34 0 001.204-.308 2.22 2.22 0 00.827-.84c.205-.36.307-.73.307-1.108v-.608l-1.346.027c-.579.01-1.019.068-1.32.178-.296.11-.524.278-.683.505-.16.228-.24.527-.24.896 0 .401.108.711.322.93.219.219.529.328.93.328zm9.38-6.61v.895h-2.496V17h-1.23V9.604h3.726zm7.3 3.69c0 1.295-.285 2.26-.854 2.892-.57.634-1.397.95-2.482.95-1.08 0-1.896-.327-2.447-.984-.551-.66-.827-1.613-.827-2.857 0-2.552 1.105-3.828 3.315-3.828 1.13 0 1.962.312 2.495.936.534.62.8 1.584.8 2.892zm-1.292 0c0-1.02-.152-1.76-.458-2.22-.3-.466-.809-.698-1.524-.698-.72 0-1.242.237-1.566.71-.319.47-.478 1.206-.478 2.209 0 .975.157 1.709.472 2.201.319.488.818.731 1.497.731.738 0 1.264-.236 1.579-.71.319-.474.478-1.215.478-2.222zm1.812-3.69h5.933v.895h-2.351V17h-1.23v-6.501h-2.352v-.895zm10.028 0c.912 0 1.595.159 2.051.478.456.319.683.777.683 1.374 0 .424-.129.777-.389 1.06-.26.282-.638.471-1.135.567v.048c.588.077 1.028.264 1.319.56.297.297.445.689.445 1.176 0 .67-.251 1.194-.752 1.572-.497.374-1.185.561-2.065.561h-3.042V9.604h2.885zm-1.654 6.487h1.613c.629 0 1.071-.096 1.326-.287.255-.196.383-.506.383-.93 0-.46-.137-.784-.41-.97-.269-.192-.729-.288-1.381-.288h-1.531v2.475zm0-5.551v2.188h1.476c.584 0 .998-.082 1.245-.247.25-.164.375-.45.375-.86 0-.375-.116-.648-.348-.821-.233-.173-.624-.26-1.176-.26h-1.572zm12.27 2.755c0 1.294-.285 2.258-.854 2.891-.57.634-1.397.95-2.482.95-1.08 0-1.895-.327-2.447-.984-.551-.66-.827-1.613-.827-2.857 0-2.552 1.105-3.828 3.315-3.828 1.131 0 1.962.312 2.496.936.533.62.799 1.584.799 2.892zm-1.292 0c0-1.02-.152-1.761-.458-2.222-.3-.465-.809-.697-1.524-.697-.72 0-1.242.237-1.566.71-.319.47-.478 1.206-.478 2.209 0 .975.157 1.709.472 2.201.319.488.818.731 1.497.731.738 0 1.264-.236 1.579-.71.319-.474.478-1.215.478-2.222zm9.085-.027c0 2.579-.907 3.869-2.72 3.869-1.14 0-1.905-.429-2.297-1.285h-.034c.018.036.027.423.027 1.162v2.891h-1.231v-8.79c0-.762-.013-1.265-.041-1.511h1.19c.004.018.011.084.02.198.009.11.019.28.028.513.013.232.02.391.02.478h.028c.218-.456.508-.788.868-.998.36-.214.834-.321 1.422-.321.911 0 1.592.305 2.044.916.451.61.676 1.57.676 2.878zm-1.292.027c0-1.03-.139-1.766-.417-2.208-.278-.442-.72-.663-1.326-.663-.487 0-.87.102-1.148.307-.274.206-.483.527-.629.964-.141.433-.212.998-.212 1.696 0 .97.155 1.686.465 2.146.31.46.813.69 1.51.69.611 0 1.055-.223 1.333-.67.283-.45.424-1.205.424-2.262zm4.047-3.691v4.046l-.068 1.894 3.411-5.94h1.347V17h-1.176v-4.512c0-.164.007-.412.02-.745.019-.332.035-.57.048-.71L124.824 17h-1.312V9.604h1.189zm5.9 0h5.933v.895h-2.351V17h-1.231v-6.501h-2.351v-.895zm7.895 3.958c0 .847.176 1.501.526 1.961.351.46.864.69 1.539.69.533 0 .959-.106 1.278-.32.323-.215.542-.486.656-.814l1.08.308c-.442 1.166-1.447 1.75-3.014 1.75-1.094 0-1.928-.326-2.502-.978-.57-.651-.855-1.62-.855-2.905 0-1.221.285-2.158.855-2.81.574-.651 1.392-.977 2.454-.977 2.174 0 3.26 1.31 3.26 3.93v.165h-5.277zm4.006-.944c-.068-.78-.267-1.347-.595-1.702-.328-.36-.8-.54-1.415-.54-.597 0-1.071.2-1.422.601-.346.397-.533.944-.56 1.641h3.992zM149.898 17v-6.501h-2.563c-.269 1.987-.476 3.33-.622 4.026-.146.693-.303 1.217-.472 1.573-.168.355-.378.617-.629.786-.246.168-.565.253-.957.253-.228 0-.442-.03-.642-.09v-.881c.114.041.269.061.465.061.25 0 .451-.125.601-.375.155-.251.294-.684.417-1.3.128-.614.271-1.524.431-2.727l.301-2.221h4.908V17h-1.238zm6.098-4.266c.934 0 1.641.169 2.119.506.479.333.718.862.718 1.586 0 .702-.246 1.24-.738 1.613-.492.374-1.19.561-2.092.561h-2.919V9.604h1.23v3.13h1.682zm-1.682 3.398h1.504c.593 0 1.026-.105 1.299-.315.274-.21.41-.54.41-.99 0-.43-.132-.741-.396-.937-.264-.2-.7-.301-1.306-.301h-1.511v2.543zm7.301-6.528v3.13h3.329v-3.13h1.231V17h-1.231v-3.37h-3.329V17h-1.23V9.604h1.23zm9.297 3.13c.934 0 1.641.169 2.119.506.479.333.718.862.718 1.586 0 .702-.246 1.24-.738 1.613-.492.374-1.19.561-2.092.561h-2.796V9.604h1.231v3.13h1.558zm-1.558 3.398h1.38c.593 0 1.026-.105 1.299-.315.274-.21.41-.54.41-.99 0-.43-.132-.741-.396-.937-.264-.2-.7-.301-1.306-.301h-1.387v2.543zm5.66.868V9.604h1.23V17h-1.23zm4.361-7.396v4.046l-.068 1.894 3.411-5.94h1.346V17h-1.175v-4.512a18.248 18.248 0 01.068-1.456L179.498 17h-1.312V9.604h1.189zm1.764-.807c-1.623 0-2.459-.73-2.509-2.188h1.121c.055.907.517 1.36 1.388 1.36.87 0 1.333-.453 1.387-1.36h1.121c-.05 1.459-.886 2.188-2.508 2.188zm18.716 4.47c0 1.295-.211 2.263-.635 2.906-.42.642-1.039.964-1.86.964-1.03 0-1.725-.429-2.085-1.285h-.041c.023.396.035.783.035 1.162v2.891h-1.163v-2.891c0-.497.012-.898.035-1.204h-.035c-.209.475-.485.814-.827 1.02-.337.204-.758.307-1.264.307-.848 0-1.477-.313-1.887-.937-.406-.629-.608-1.583-.608-2.864 0-2.58.831-3.87 2.495-3.87.51 0 .934.103 1.271.308.342.205.615.531.82.978h.035l-.035-1.032V6.855h1.163v2.872l-.021 1.066h.034c.21-.474.479-.811.807-1.012.328-.205.752-.307 1.271-.307.834 0 1.459.312 1.873.936.415.62.622 1.572.622 2.858zm-9.043.028c0 1.025.123 1.764.369 2.215.25.45.645.676 1.182.676.593 0 1.028-.223 1.306-.67.278-.45.424-1.164.437-2.139v-.164c0-.962-.136-1.675-.41-2.14-.269-.465-.708-.697-1.319-.697-.551 0-.95.235-1.196.704-.246.47-.369 1.208-.369 2.215zm7.751 0c0-.994-.123-1.72-.369-2.18-.241-.461-.635-.691-1.182-.691-.429 0-.764.105-1.005.314-.242.21-.426.531-.554.964-.123.428-.184.991-.184 1.689v.157c.009.916.152 1.593.43 2.03.278.433.711.65 1.299.65.542 0 .939-.233 1.19-.698.25-.47.375-1.214.375-2.235zm9.092 0c0 1.294-.285 2.258-.854 2.891-.57.634-1.397.95-2.482.95-1.08 0-1.895-.327-2.447-.984-.551-.66-.827-1.613-.827-2.857 0-2.552 1.105-3.828 3.315-3.828 1.131 0 1.962.312 2.495.936.534.62.8 1.584.8 2.892zm-1.292 0c0-1.02-.152-1.761-.458-2.222-.301-.465-.809-.697-1.524-.697-.72 0-1.242.237-1.566.71-.319.47-.478 1.206-.478 2.209 0 .975.157 1.709.472 2.201.319.488.818.731 1.497.731.738 0 1.264-.236 1.579-.71.319-.474.478-1.215.478-2.222zm4.088-3.691v3.13h3.329v-3.13h1.231V17h-1.231v-3.37h-3.329V17h-1.23V9.604h1.23zm11.238.895h-2.091a39.92 39.92 0 01-.561 3.24c-.205.916-.453 1.705-.745 2.366h3.397v-5.606zm2.229 9.29h-1.114V17h-5.565v2.79h-1.114v-3.685h.813c.342-.57.638-1.38.889-2.427.251-1.048.481-2.407.691-4.074h4.402v6.5h.998v3.685zM65.316 38.516c2.086 0 3.536-1.047 4.348-3.141l3.012 1.137c-.649 1.593-1.602 2.781-2.86 3.562-1.25.774-2.75 1.16-4.5 1.16-2.656 0-4.71-.75-6.164-2.25-1.445-1.507-2.168-3.613-2.168-6.316 0-2.711.7-4.793 2.098-6.246 1.398-1.453 3.426-2.18 6.082-2.18 1.938 0 3.516.39 4.734 1.172 1.22.773 2.075 1.914 2.567 3.422l-3.047.832c-.258-.828-.766-1.484-1.524-1.969-.75-.492-1.636-.738-2.66-.738-1.562 0-2.75.484-3.562 1.453-.805.969-1.207 2.387-1.207 4.254 0 1.898.414 3.348 1.242 4.348.836 1 2.04 1.5 3.61 1.5zm9.633-14.028h3.457v7.02c.406 0 .84-.238 1.301-.715.469-.484 1.074-1.32 1.816-2.508l2.415-3.797h3.515l-3.105 4.746c-.97 1.477-1.637 2.352-2.004 2.625L88.027 41h-3.761l-4.383-7.5c-.156.102-.387.195-.692.281-.304.086-.57.13-.797.13V41H74.95V24.488zM101.27 41l-1.465-4.219h-6.293L92.047 41H88.59l6.023-16.512h4.078l6 16.512h-3.421zm-4.618-13.969l-.07.258c-.078.281-.172.602-.281.961-.11.36-.782 2.336-2.016 5.93h4.746l-1.629-4.746-.504-1.594-.246-.809zM114.547 41v-7.172c-.25 0-.527-.031-.832-.094-.297-.062-.516-.14-.656-.234l-4.09 7.5h-3.703l5.332-9.14c-.352-.266-.977-1.133-1.875-2.602l-2.942-4.77h3.516l2.32 3.797c.86 1.39 1.469 2.277 1.828 2.66.36.375.723.563 1.09.563v-7.02h3.328v7.02c.367 0 .731-.184 1.09-.551.359-.375.973-1.266 1.84-2.672l2.32-3.797h3.516l-2.941 4.77c-.899 1.469-1.524 2.336-1.876 2.601L127.145 41h-3.704l-4.089-7.5a3.286 3.286 0 01-1.489.328V41h-3.316zm14.086 0V24.488h3.07v9.598c0 .836-.031 1.91-.094 3.223l7.184-12.82h3.891V41h-3.071v-9.738c0-.61.032-1.602.094-2.977L132.57 41h-3.937zm37.523-11.285c0 1.062-.242 2.012-.726 2.848-.485.835-1.18 1.484-2.086 1.945-.899.453-1.969.68-3.211.68h-4.102V41h-3.457V24.488h7.418c1.977 0 3.496.457 4.559 1.371 1.07.907 1.605 2.192 1.605 3.856zm-3.48.058c0-1.734-1.024-2.601-3.071-2.601h-3.574v5.355h3.668c.953 0 1.688-.234 2.203-.703.516-.476.774-1.16.774-2.05zM178.145 41l-1.465-4.219h-6.293L168.922 41h-3.457l6.023-16.512h4.078l6 16.512h-3.421zm-4.618-13.969l-.07.258a42.64 42.64 0 01-.281.961c-.11.36-.781 2.336-2.016 5.93h4.746l-1.629-4.746-.504-1.594-.246-.809zm10.289-2.543h3.457v7.02c.407 0 .84-.238 1.301-.715.469-.484 1.074-1.32 1.817-2.508l2.414-3.797h3.515l-3.105 4.746c-.969 1.477-1.637 2.352-2.004 2.625L196.895 41h-3.762l-4.383-7.5c-.156.102-.387.195-.691.281a2.998 2.998 0 01-.797.13V41h-3.446V24.488zm17.649 16.746a6.61 6.61 0 01-1.653-.21c-.546-.133-.984-.297-1.312-.493l.961-2.883c.695.329 1.32.493 1.875.493.367 0 .68-.07.937-.211.266-.14.512-.364.739-.668.234-.313.562-.93.984-1.852l-6.516-10.922h3.598l4.547 7.969 3.492-7.969h3.504l-6.152 12.785c-.539 1.125-1.035 1.95-1.489 2.473-.445.516-.949.895-1.511 1.137-.555.234-1.223.351-2.004.351zm17.613-5.484v-2.379h24v2.379h-24zM262.016 41v-7.078h-7.196V41h-3.457V24.488h3.457v6.575h7.196v-6.575h3.457V41h-3.457zm6.691 0V24.488h12.984v2.672h-9.527v4.149h8.813v2.671h-8.813v4.348h10.008V41h-13.465zm23.461-13.84V41h-3.457V27.16h-5.332v-2.672h14.133v2.672h-5.344zm10.945 8.848h-2.695l-.375-11.52h3.445l-.375 11.52zM300.043 41v-3.164h3.375V41h-3.375z" fill="#FEFEFE"/></svg>