<svg width="115" height="43" viewBox="0 0 115 43" fill="none" xmlns="http://www.w3.org/2000/svg">
<path d="M44.7275 4.31579C44.7714 4.15102 44.6683 3.99161 44.499 3.95755L38.7749 2.87648C38.6055 2.84197 38.4638 2.95232 38.4603 3.12383L37.7445 27.5142C37.4907 27.4855 37.1884 27.4577 36.8406 27.433L37.6037 3.25401L37.1335 1.9533C37.0761 1.79457 36.8972 1.70763 36.7363 1.76404L35.5105 2.19398L35.5022 27.3995C35.3002 27.4008 35.0916 27.4053 34.8757 27.4124L34.8875 1.74643L33.9073 0.848117C33.7828 0.733857 33.5495 0.681663 33.3849 0.739367L32.1448 1.17437L34.4553 27.434C34.2533 27.4477 34.0447 27.4634 33.8337 27.4847L31.4985 0.901075L30.3952 0.163244C30.2528 0.0679633 30.0256 0.0783738 29.8889 0.179088L28.7936 1.01335L33.3319 27.5435C33.1298 27.5651 32.9228 27.5974 32.7123 27.6309L28.2079 1.29681L26.541 0.0708728C26.4042 -0.0319842 26.1858 -0.0205048 26.0567 0.0898522L24.4184 1.50842L32.0139 27.7627C31.8147 27.8031 31.6117 27.8463 31.4073 27.8974L23.7598 1.47635L22.5466 0.983884C22.4443 0.941945 22.3125 0.943704 22.1985 0.980745L22.1735 0.989545C22.1194 1.01028 22.0703 1.03899 22.0319 1.07511L20.3519 2.58643L30.2751 28.2214C30.075 28.2833 29.8774 28.3526 29.6847 28.4243L19.7341 2.71385L18.1595 2.46153C17.992 2.43069 17.7735 2.52413 17.6764 2.66334L16.8145 3.89564L29.5 28.4932C29.3039 28.5664 29.1085 28.6432 28.919 28.7221L16.2876 4.22686L14.337 3.81451C14.1685 3.78023 13.9944 3.88194 13.9519 4.0474L13.6917 4.99469L28.7087 28.8114C28.5122 28.8968 28.3198 28.9802 28.1327 29.0664L13.1171 5.24954L11.7366 5.05906C11.5685 5.03732 11.4294 5.15479 11.4298 5.32576L11.4272 6.82415L27.9015 29.1796C27.7093 29.2762 27.5208 29.3703 27.3361 29.4633L10.9744 7.25953L8.85733 7.05933L8.92252 9.1317L27.0611 29.6128C26.8675 29.7169 26.6818 29.8186 26.5057 29.9249L8.3497 9.418L6.97545 9.65249C6.80443 9.6792 6.76309 9.80387 6.87832 9.92992L25.7951 30.3528C25.0285 30.8327 24.4432 31.2657 24.0899 31.5443L5.63656 11.2383C5.52124 11.112 5.34074 11.1143 5.23095 11.2465L3.319 13.5373C3.20827 13.6654 3.13578 13.9092 3.16041 14.079L3.67091 18.0126L0.338016 19.6452C0.183077 19.7189 0.0565765 19.9183 0.053313 20.0897C0.0387049 20.6301 0.011042 21.7531 8.59582e-05 22.292C-0.00333296 22.4637 0.0956632 22.693 0.220764 22.8123L17.2516 38.7121C17.3767 38.8314 17.5855 38.8389 17.719 38.7308L22.3824 35.0045L25.0845 32.6398C30.9046 28.8093 38.1672 28.8437 38.1672 28.8437L38.3922 28.1432L38.4137 28.1563C38.4137 28.1563 38.5526 27.6412 38.5513 27.6375L44.7275 4.31579ZM13.0372 26.5423L11.0113 28.316L10.1702 27.5631L12.2156 25.7984L13.0372 26.5423ZM1.99207 21.5208L3.20439 20.791L2.83165 20.4228L4.84104 19.1165L5.67455 19.8715L3.69228 21.2737L3.42902 21.0128L2.23179 21.737L1.99207 21.5208ZM3.70324 23.0604L4.82495 22.378L4.52277 22.0789L6.5961 20.7343L7.43833 21.4779L5.37936 22.931L5.05122 22.6033L3.94132 23.2729L3.70324 23.0604ZM5.58348 24.7507L6.8453 23.9883L6.5644 23.7126L8.51886 22.4471L9.35214 23.2024L7.4248 24.5645L7.06776 24.2148L5.81955 24.9684L5.58348 24.7507ZM7.80096 26.7457L10.5545 24.295L10.7875 24.5052L8.03329 26.9533L7.80096 26.7457ZM8.79765 27.6427L11.5524 25.1955L11.7804 25.4034L9.02882 27.8503L8.79765 27.6427ZM10.668 29.329L13.4594 26.925L13.691 27.1328L10.9018 29.5402L10.668 29.329ZM12.1891 29.441L14.2302 27.6213L15.1582 28.4651L13.0551 30.2866L12.1891 29.441ZM14.1197 32.4343L13.8884 32.2268L16.6276 29.7925L16.8553 30.0013L14.1197 32.4343ZM15.9757 34.101L16.8689 33.3341L16.4693 32.9825L18.2769 31.2892L19.3494 32.2602L17.5343 33.9203L17.1043 33.5393L16.2081 34.3118L15.9757 34.101ZM17.248 35.2503L20.0247 32.8722L20.2556 33.079L17.4856 35.4601L17.248 35.2503ZM20.181 35.87L19.6383 35.3954L21.2867 34.0166L21.8013 34.514L20.181 35.87Z" fill="white"/>
<path d="M63.6227 18.4886C63.1242 19.2794 62.5601 19.9339 61.9302 20.4521C61.3002 20.9702 60.6634 21.3827 60.0196 21.6895C59.3758 21.9963 58.7493 22.2111 58.1402 22.3338C57.531 22.4565 56.9911 22.5179 56.5203 22.5179C55.8282 22.5179 55.1532 22.4157 54.4956 22.2111C53.838 22.0066 53.2219 21.7475 52.6473 21.4338C52.0728 21.1202 51.5432 20.7759 51.0587 20.401C50.5741 20.026 50.1622 19.6749 49.8231 19.3476C49.4839 19.0203 49.2174 18.7306 49.0235 18.4783C48.8297 18.2261 48.7328 18.0726 48.7328 18.0181C48.7328 17.9499 48.757 17.909 48.8055 17.8954C48.854 17.8818 48.9889 17.8408 49.2105 17.7727C49.4873 17.6908 49.7019 17.6056 49.8542 17.517C50.0065 17.4284 50.2003 17.2954 50.4357 17.1181C50.4911 17.0636 50.5533 17.0159 50.6226 16.9749C50.6918 16.9341 50.761 16.9136 50.8302 16.9136C50.941 16.9136 51.076 16.9306 51.2352 16.9648C51.3944 16.9988 51.5294 17.0295 51.6401 17.0568C52.0416 17.1113 52.5297 17.1591 53.1042 17.1999C53.6788 17.2409 54.3053 17.2749 54.9836 17.3023C55.662 17.3295 56.3646 17.3499 57.0915 17.3636C57.8183 17.3772 58.5313 17.3909 59.2305 17.4045C59.9296 17.4181 60.5941 17.4249 61.2241 17.4249C61.854 17.4249 62.4043 17.4249 62.875 17.4249C63.4566 16.3886 63.993 15.4443 64.4845 14.5921C64.976 13.7399 65.4536 12.949 65.9174 12.2195C66.3812 11.49 66.8484 10.8082 67.3192 10.1741C67.7899 9.54008 68.3022 8.9231 68.8559 8.3231C68.9943 8.1731 69.1051 8.07766 69.1882 8.03671C69.2713 7.99585 69.4097 7.95491 69.6035 7.91404C69.9358 7.83223 70.2888 7.70947 70.6626 7.54585C70.7734 7.49128 70.8426 7.45723 70.8703 7.4436C70.898 7.42998 70.9257 7.4231 70.9534 7.4231C71.0088 7.4231 71.0572 7.47085 71.0988 7.56628C71.1403 7.66179 71.168 7.77085 71.1818 7.89353C71.1957 8.01628 71.2061 8.13559 71.213 8.25154C71.2199 8.36741 71.2233 8.45266 71.2233 8.50715C71.2233 8.68447 71.2095 8.87534 71.1818 9.07991C71.1541 9.2844 71.1195 9.47534 71.0779 9.65258C71.0365 9.82983 71.0018 9.97983 70.9741 10.1026C70.9465 10.2253 70.9326 10.3003 70.9326 10.3276C70.9326 10.3685 70.8599 10.6378 70.7145 11.1354C70.5692 11.6332 70.3858 12.2366 70.1642 12.9456C69.9427 13.6547 69.7074 14.408 69.4582 15.2057C69.209 16.0034 68.9805 16.7227 68.7728 17.3636C68.8698 17.3636 69.029 17.3602 69.2505 17.3534C69.472 17.3466 69.7073 17.3363 69.9565 17.3227C70.2057 17.3091 70.4446 17.2988 70.673 17.292C70.9015 17.2852 71.0572 17.2818 71.1403 17.2818C71.168 17.2818 71.2095 17.2886 71.2649 17.3023C71.3202 17.3159 71.348 17.3568 71.348 17.4249C71.348 17.4522 71.2926 17.4931 71.1818 17.5477C71.071 17.6022 70.9672 17.6499 70.8703 17.6908L69.2297 18.3862H68.4406C68.219 19.109 68.046 19.6987 67.9214 20.1555C67.7968 20.6123 67.6999 21.0452 67.6307 21.4544C67.243 21.5634 66.9142 21.6691 66.6442 21.7713C66.3743 21.8736 66.0662 22.0134 65.7201 22.1907C65.6924 22.2179 65.644 22.2486 65.5747 22.2827C65.5055 22.3168 65.4571 22.3338 65.4293 22.3338C65.3602 22.3338 65.329 22.2997 65.3359 22.2315C65.3429 22.1634 65.3532 22.1157 65.3671 22.0884L66.4885 18.4272L63.6227 18.4886ZM66.7792 17.3636C67.3607 15.6864 67.8037 14.3637 68.1083 13.3956C68.4129 12.4274 68.5929 11.8479 68.6483 11.657C68.7867 11.2343 68.9217 10.8014 69.0532 10.3582C69.1847 9.91509 69.2782 9.48896 69.3335 9.07991C69.209 9.22991 69.074 9.4037 68.9286 9.60146C68.7832 9.79914 68.6413 10.0037 68.5029 10.2151C68.3644 10.4264 68.2294 10.6378 68.0979 10.8491C67.9664 11.0604 67.8522 11.2547 67.7553 11.4321C67.5614 11.7593 67.3157 12.1888 67.0181 12.7206C66.7204 13.2524 66.4089 13.808 66.0835 14.3876C65.7582 14.9671 65.4433 15.5261 65.1387 16.0648C64.8341 16.6034 64.5849 17.0363 64.391 17.3636H66.7792ZM52.097 18.6522C52.7201 19.2658 53.3361 19.7703 53.9453 20.1657C54.5545 20.5612 55.1325 20.8714 55.6793 21.0963C56.2262 21.3213 56.7246 21.4782 57.1745 21.5668C57.6245 21.6555 57.9948 21.6998 58.2856 21.6998C58.867 21.6998 59.3689 21.5907 59.7912 21.3725C60.2134 21.1544 60.5803 20.885 60.8918 20.5646C61.2033 20.2442 61.4629 19.8999 61.6706 19.5317C61.8783 19.1635 62.0582 18.8226 62.2105 18.509L52.097 18.6522Z" fill="white"/>
<path d="M76.3527 17.1794C76.0481 17.7657 75.7782 18.2736 75.5428 18.7032C75.3075 19.1327 75.0721 19.5247 74.8368 19.8792C74.6014 20.2338 74.373 20.544 74.1514 20.8099C73.93 21.0758 73.7015 21.3247 73.4662 21.5565C73.2585 21.7747 73.0024 21.9655 72.6978 22.1292C72.3932 22.2928 72.144 22.4019 71.9502 22.4564C71.8533 22.4837 71.746 22.5007 71.6283 22.5075C71.5106 22.5144 71.3998 22.5041 71.296 22.4769C71.1922 22.4496 71.0987 22.3916 71.0157 22.303C70.9326 22.2144 70.8772 22.0883 70.8495 21.9247C70.7803 21.6791 70.7768 21.4337 70.8391 21.1883C70.9014 20.9429 71.0087 20.7076 71.161 20.4827C71.3133 20.2577 71.5071 20.0531 71.7425 19.8691C71.9779 19.6849 72.234 19.5316 72.5109 19.4088L72.6563 19.6543C72.4902 19.7497 72.3793 19.8827 72.3239 20.0531C72.2686 20.2235 72.2513 20.3974 72.272 20.5747C72.2929 20.752 72.3482 20.9156 72.4382 21.0656C72.5282 21.2155 72.6285 21.311 72.7393 21.3519C73.0716 21.2292 73.39 21.0144 73.6946 20.7076C73.9991 20.4009 74.2899 20.0566 74.5668 19.6747C74.8991 19.1975 75.1898 18.7168 75.439 18.2328C75.6882 17.7487 75.882 17.3566 76.0205 17.0566C75.9789 17.043 75.9167 17.0566 75.8336 17.0976C75.7506 17.1384 75.664 17.1794 75.574 17.2203C75.484 17.2612 75.3941 17.2987 75.304 17.3328C75.214 17.3669 75.1414 17.3703 75.086 17.343C74.9475 17.2884 74.8991 17.2066 74.9406 17.0976L75.792 16.8112C75.792 16.7976 75.8889 16.7533 76.0828 16.6783C76.2766 16.6033 76.4981 16.5249 76.7473 16.4431C76.9965 16.3613 77.2285 16.2863 77.443 16.2181C77.6576 16.1499 77.7857 16.109 77.8272 16.0953C77.8687 16.0817 77.9345 16.0681 78.0245 16.0545C78.1145 16.0408 78.2114 16.0271 78.3152 16.0135C78.4191 15.9999 78.5125 15.9863 78.5956 15.9727C78.6786 15.959 78.7271 15.9521 78.7409 15.9521C78.7963 15.9521 78.824 15.9863 78.824 16.0545C78.824 16.0953 78.8067 16.1635 78.7721 16.259C78.7375 16.3544 78.6924 16.4635 78.6371 16.5862C78.5817 16.709 78.5229 16.8351 78.4606 16.9646C78.3983 17.0941 78.3394 17.2134 78.284 17.3226C78.1733 17.568 78.0453 17.8612 77.8999 18.2021C77.7545 18.5429 77.6195 18.8839 77.4949 19.2247C77.3703 19.5656 77.263 19.8759 77.1731 20.1554C77.0831 20.4349 77.0381 20.636 77.0381 20.7588C77.0381 20.9088 77.0727 21.0247 77.1419 21.1065C77.2111 21.1883 77.2942 21.2462 77.3911 21.2804C77.488 21.3144 77.585 21.3348 77.6819 21.3417C77.7787 21.3485 77.8618 21.3519 77.931 21.3519C78.471 21.3519 78.9556 21.2837 79.3847 21.1474V21.4337C79.2047 21.5155 78.9729 21.6144 78.689 21.7303C78.4052 21.8462 78.1007 21.9621 77.7752 22.078C77.4499 22.1939 77.1212 22.2894 76.7889 22.3644C76.4566 22.4394 76.159 22.4769 75.8959 22.4769C75.6467 22.4769 75.4321 22.3882 75.2521 22.211C75.0721 22.0337 74.9822 21.8223 74.9822 21.5769C74.9822 21.3587 75.0133 21.1303 75.0756 20.8917C75.1379 20.6531 75.2037 20.4315 75.2729 20.227L76.3527 17.1794Z" fill="white"/>
<path d="M85.7602 21.5767C85.0819 21.7813 84.3758 21.9824 83.642 22.1801C82.9082 22.3778 82.2229 22.4767 81.5861 22.4767C80.8246 22.4767 80.2639 22.296 79.904 21.9346C79.544 21.5733 79.364 21.154 79.364 20.6768C79.364 20.1586 79.5128 19.6336 79.8105 19.1018C80.1082 18.57 80.4992 18.086 80.9838 17.6496C81.4684 17.2132 82.0187 16.8553 82.6348 16.5758C83.2509 16.2962 83.8843 16.1565 84.535 16.1565C84.9919 16.1565 85.331 16.2418 85.5526 16.4122C85.774 16.5826 85.8848 16.7974 85.8848 17.0564C85.8848 17.37 85.7602 17.728 85.511 18.1303C85.2618 18.5325 84.9088 18.9041 84.4519 19.245C83.995 19.5723 83.5174 19.8518 83.019 20.0836C82.5206 20.3154 82.043 20.5268 81.5861 20.7176C81.7937 20.9222 82.036 21.0756 82.3129 21.1778C82.5898 21.2801 82.8529 21.3585 83.102 21.4131C83.3512 21.4676 83.5762 21.4983 83.777 21.5051C83.9777 21.512 84.1127 21.5153 84.1819 21.5153C84.2927 21.5153 84.4796 21.5085 84.7426 21.4949C85.0057 21.4813 85.3449 21.4199 85.7602 21.3108V21.5767ZM81.4407 20.4518C81.8145 20.3018 82.1537 20.1006 82.4583 19.8484C82.7629 19.5961 83.019 19.3268 83.2266 19.0405C83.4343 18.7541 83.597 18.4643 83.7147 18.1712C83.8324 17.878 83.8912 17.6087 83.8912 17.3632C83.8912 17.1314 83.8358 16.9576 83.7251 16.8417C83.6143 16.7258 83.4759 16.6678 83.3097 16.6678C83.0605 16.6678 82.8148 16.7633 82.5725 16.9542C82.3302 17.1451 82.119 17.3906 81.9391 17.6905C81.7591 17.9905 81.6137 18.3246 81.503 18.6927C81.3922 19.0609 81.3369 19.4291 81.3369 19.7972C81.3369 19.9472 81.3472 20.07 81.368 20.1654C81.3888 20.2608 81.413 20.3563 81.4407 20.4518Z" fill="white"/>
<path d="M93.091 21.904C92.3572 22.1632 91.8068 22.3233 91.4399 22.3847C91.0731 22.4461 90.7858 22.4768 90.5781 22.4768C90.2182 22.4768 89.917 22.412 89.6748 22.2825C89.4325 22.1529 89.2387 21.9893 89.0933 21.7915C88.9479 21.5938 88.8406 21.3791 88.7714 21.1473C88.7022 20.9155 88.6676 20.6905 88.6676 20.4723C88.6676 20.4041 88.6745 20.2439 88.6883 19.9916C88.7022 19.7394 88.7645 19.4632 88.8753 19.1632C88.6814 19.3678 88.505 19.6201 88.3457 19.9201C88.1865 20.22 88.055 20.5132 87.9512 20.7995C87.8473 21.0859 87.7677 21.3382 87.7123 21.5564C87.6569 21.7745 87.6292 21.8972 87.6292 21.9245C87.6154 21.9926 87.5981 22.0336 87.5773 22.0472C87.5566 22.0608 87.5047 22.0814 87.4215 22.1086C87.1863 22.1495 86.9543 22.1938 86.7259 22.2415C86.4974 22.2893 86.2656 22.3472 86.0302 22.4154C85.961 22.4427 85.9056 22.4563 85.8641 22.4563C85.7948 22.4563 85.7637 22.4358 85.7706 22.395C85.7775 22.354 85.7879 22.3268 85.8018 22.3131L87.7123 16.6066C87.7261 16.5793 87.8127 16.5486 87.9719 16.5145C88.1311 16.4805 88.273 16.4498 88.3976 16.4225C88.7576 16.3406 89.0552 16.2656 89.2906 16.1975C89.4429 16.1566 89.5398 16.1293 89.5814 16.1156C89.6229 16.102 89.6575 16.0952 89.6852 16.0952C89.7267 16.0952 89.7475 16.1156 89.7475 16.1566C89.7475 16.1838 89.7198 16.2862 89.6644 16.4634L88.5638 19.1632C88.9791 18.5496 89.3875 18.0486 89.789 17.66C90.1905 17.2713 90.5608 16.9679 90.9001 16.7497C91.2392 16.5316 91.5403 16.3816 91.8034 16.2998C92.0664 16.218 92.2672 16.177 92.4056 16.177C92.6825 16.177 92.8868 16.2623 93.0182 16.4327C93.1498 16.6031 93.2155 16.7906 93.2155 16.9952C93.2155 17.0906 93.2017 17.2133 93.174 17.3633C93.1463 17.5133 93.0875 17.6838 92.9975 17.8747C92.9075 18.0656 92.769 18.2735 92.5822 18.4985C92.3952 18.7235 92.1495 18.9519 91.8449 19.1838L91.7619 18.9382C91.8034 18.8974 91.838 18.8496 91.8657 18.7951C91.8934 18.7406 91.9072 18.6383 91.9072 18.4883C91.9072 18.2156 91.8103 17.9531 91.6165 17.7008C91.4227 17.4486 91.1458 17.3225 90.7858 17.3225C90.5089 17.3225 90.3013 17.4383 90.1628 17.6701C90.0244 17.9019 89.9551 18.1951 89.9551 18.5496C89.9551 18.9724 90.0417 19.3849 90.2147 19.7871C90.3878 20.1894 90.6162 20.5405 90.9001 20.8405C91.1838 21.1405 91.5161 21.3689 91.8968 21.5257C92.2776 21.6825 92.6756 21.7268 93.091 21.6586V21.904Z" fill="white"/>
<path d="M97.348 18.7746C97.5834 18.6655 97.7461 18.5087 97.8361 18.3042C97.9261 18.0997 97.9711 17.8815 97.9711 17.6497C97.9711 17.3633 97.933 17.1554 97.8568 17.0259C97.7807 16.8963 97.7011 16.7906 97.6181 16.7088C97.2166 16.9679 96.8877 17.2542 96.6316 17.5679C96.3755 17.8815 96.1748 18.1917 96.0294 18.4985C95.884 18.8053 95.7837 19.0985 95.7283 19.378C95.6729 19.6575 95.6452 19.8928 95.6452 20.0837C95.6452 20.52 95.7837 20.878 96.0605 21.1575C96.3375 21.437 96.8497 21.5768 97.5973 21.5768C97.9018 21.5768 98.2652 21.5563 98.6875 21.5154C99.1098 21.4745 99.4801 21.42 99.7985 21.3518V21.6177C99.4663 21.7131 99.1167 21.812 98.7498 21.9143C98.383 22.0165 98.0126 22.1086 97.6388 22.1904C97.265 22.2722 96.8982 22.3404 96.5382 22.395C96.1783 22.4494 95.8321 22.4768 95.4998 22.4768C94.8768 22.4768 94.4027 22.354 94.0773 22.1086C93.752 21.8631 93.5893 21.5222 93.5893 21.0859C93.5893 20.5132 93.7554 19.9337 94.0877 19.3474C94.42 18.761 94.8423 18.2326 95.3545 17.7622C95.8667 17.2917 96.4343 16.9099 97.0574 16.6167C97.6804 16.3236 98.2757 16.177 98.8433 16.177C99.051 16.177 99.2759 16.2248 99.5182 16.3202C99.7605 16.4156 99.8816 16.627 99.8816 16.9543C99.8816 17.227 99.8124 17.4656 99.674 17.6701C99.5355 17.8747 99.352 18.0587 99.1236 18.2224C98.8952 18.386 98.6356 18.5326 98.3449 18.6621C98.0541 18.7917 97.7565 18.911 97.4519 19.02L97.348 18.7746Z" fill="white"/>
<path d="M106.382 21.5767C105.703 21.7813 104.997 21.9824 104.264 22.1801C103.53 22.3778 102.844 22.4767 102.208 22.4767C101.446 22.4767 100.885 22.296 100.525 21.9346C100.165 21.5733 99.9855 21.154 99.9855 20.6768C99.9855 20.1586 100.134 19.6336 100.432 19.1018C100.73 18.57 101.121 18.086 101.605 17.6496C102.09 17.2132 102.64 16.8553 103.256 16.5758C103.872 16.2962 104.506 16.1565 105.157 16.1565C105.613 16.1565 105.953 16.2418 106.174 16.4122C106.396 16.5826 106.506 16.7974 106.506 17.0564C106.506 17.37 106.382 17.728 106.133 18.1303C105.883 18.5325 105.53 18.9041 105.073 19.245C104.617 19.5723 104.139 19.8518 103.641 20.0836C103.142 20.3154 102.665 20.5268 102.208 20.7176C102.415 20.9222 102.658 21.0756 102.934 21.1778C103.211 21.2801 103.474 21.3585 103.724 21.4131C103.973 21.4676 104.198 21.4983 104.399 21.5051C104.599 21.512 104.734 21.5153 104.803 21.5153C104.914 21.5153 105.101 21.5085 105.364 21.4949C105.627 21.4813 105.966 21.4199 106.382 21.3108V21.5767ZM102.062 20.4518C102.436 20.3018 102.775 20.1006 103.08 19.8484C103.384 19.5961 103.641 19.3268 103.848 19.0405C104.056 18.7541 104.219 18.4643 104.336 18.1712C104.454 17.878 104.513 17.6087 104.513 17.3632C104.513 17.1314 104.457 16.9576 104.347 16.8417C104.236 16.7258 104.097 16.6678 103.931 16.6678C103.682 16.6678 103.436 16.7633 103.194 16.9542C102.952 17.1451 102.741 17.3906 102.561 17.6905C102.381 17.9905 102.235 18.3246 102.125 18.6927C102.014 19.0609 101.958 19.4291 101.958 19.7972C101.958 19.9472 101.969 20.07 101.99 20.1654C102.01 20.2608 102.035 20.3563 102.062 20.4518Z" fill="white"/>
<path d="M114.502 21.4542C114.335 21.5223 114.093 21.6143 113.775 21.7303C113.456 21.8461 113.131 21.9586 112.799 22.0677C112.466 22.1768 112.155 22.2723 111.864 22.3541C111.573 22.4359 111.359 22.4768 111.22 22.4768C111.054 22.4768 110.892 22.4155 110.732 22.2927C110.573 22.17 110.494 21.9995 110.494 21.7814C110.494 21.5496 110.552 21.27 110.67 20.9428C110.788 20.6155 110.923 20.2542 111.075 19.8587C110.84 20.1723 110.584 20.4996 110.307 20.8405C110.03 21.1814 109.67 21.495 109.227 21.7814C108.964 21.9586 108.666 22.1188 108.334 22.262C108.002 22.4052 107.683 22.4768 107.379 22.4768C107.157 22.4768 106.967 22.412 106.808 22.2825C106.648 22.153 106.569 21.9723 106.569 21.7405C106.569 21.645 106.576 21.5564 106.589 21.4746C106.603 21.3928 106.631 21.2871 106.673 21.1575C106.714 21.028 106.773 20.8575 106.849 20.6462C106.925 20.4348 107.033 20.1519 107.171 19.7973L108.313 16.9134C108.369 16.7771 108.414 16.6918 108.448 16.6578C108.483 16.6236 108.569 16.5929 108.708 16.5657C108.763 16.5521 108.881 16.5248 109.061 16.4839C109.241 16.443 109.421 16.4021 109.601 16.3612C109.933 16.2793 110.158 16.218 110.276 16.1771C110.393 16.1362 110.438 16.1498 110.411 16.218C110.411 16.2316 110.366 16.3407 110.276 16.5453C110.186 16.7497 110.078 17.0021 109.954 17.3021C109.829 17.602 109.687 17.9361 109.528 18.3042C109.369 18.6724 109.227 19.027 109.102 19.3679C108.978 19.7087 108.87 20.019 108.78 20.2985C108.69 20.578 108.645 20.786 108.645 20.9223C108.645 21.045 108.673 21.1507 108.728 21.2393C108.784 21.328 108.881 21.3723 109.019 21.3723C109.158 21.3723 109.338 21.3007 109.559 21.1575C109.781 21.0143 110.019 20.7723 110.276 20.4314C110.532 20.0905 110.805 19.6508 111.096 19.1122C111.387 18.5735 111.677 17.902 111.968 17.0975C112.037 16.8793 112.107 16.7464 112.176 16.6986C112.245 16.6509 112.39 16.5998 112.612 16.5453C112.667 16.5316 112.774 16.5043 112.934 16.4634C113.093 16.4225 113.256 16.3782 113.422 16.3305C113.588 16.2828 113.737 16.2419 113.868 16.2078C114 16.1737 114.072 16.1566 114.086 16.1566C114.114 16.1566 114.128 16.1771 114.128 16.218C114.128 16.2316 114.117 16.2725 114.097 16.3407C114.076 16.4089 114.052 16.4703 114.024 16.5248L112.778 19.511C112.667 19.7973 112.574 20.053 112.498 20.278C112.421 20.503 112.383 20.6701 112.383 20.7792C112.383 20.9018 112.418 21.0007 112.487 21.0757C112.556 21.1507 112.643 21.2053 112.747 21.2393C112.851 21.2735 112.961 21.2939 113.079 21.3007C113.197 21.3075 113.297 21.311 113.38 21.311C113.588 21.311 113.806 21.3007 114.034 21.2803C114.263 21.2598 114.419 21.236 114.502 21.2086V21.4542ZM115 12.2091C114.917 12.4272 114.813 12.659 114.688 12.9045C114.564 13.15 114.398 13.3783 114.19 13.5897C113.982 13.801 113.73 13.9852 113.432 14.142C113.134 14.2988 112.771 14.3976 112.342 14.4385C111.677 14.4931 111.172 14.3738 110.826 14.0806C110.48 13.7874 110.286 13.4295 110.244 13.0068L111.553 12.3114C111.567 12.4204 111.594 12.5636 111.636 12.7408C111.677 12.9182 111.75 13.0886 111.854 13.2522C111.958 13.4158 112.096 13.5522 112.269 13.6613C112.442 13.7703 112.653 13.8113 112.903 13.784C113.193 13.7703 113.442 13.6988 113.65 13.5692C113.858 13.4397 114.031 13.2897 114.169 13.1193C114.308 12.9488 114.419 12.7682 114.502 12.5772C114.585 12.3864 114.647 12.2091 114.688 12.0454L115 12.2091Z" fill="white"/>
<path d="M58.0064 37.5977C57.6049 37.7749 57.1757 37.9351 56.7189 38.0783C56.262 38.2215 55.8224 38.3442 55.4002 38.4465C54.9778 38.5487 54.5902 38.6272 54.2372 38.6817C53.8841 38.7362 53.6038 38.7635 53.3961 38.7635C52.7869 38.7635 52.2401 38.634 51.7555 38.3749C51.271 38.1158 50.8349 37.7749 50.4472 37.3522C50.0596 36.9295 49.7169 36.4454 49.4192 35.9C49.1216 35.3546 48.8585 34.7989 48.6301 34.233C48.4017 33.6671 48.2078 33.1114 48.0486 32.566C47.8894 32.0207 47.7544 31.5297 47.6437 31.0934L46.2108 31.9525C46.0585 32.2797 45.8958 32.6308 45.7228 33.0058C45.5497 33.3808 45.3351 33.7728 45.079 34.1819C44.8229 34.5909 44.5217 35.0034 44.1756 35.4193C43.8295 35.8352 43.421 36.234 42.9504 36.6159C42.1473 37.2704 41.2301 37.7988 40.1987 38.201C39.1674 38.6033 38.1117 38.8044 37.0318 38.8044C36.9072 38.8044 36.7238 38.7976 36.4815 38.784C36.2392 38.7703 35.9934 38.7465 35.7442 38.7123C35.495 38.6783 35.2804 38.6305 35.1005 38.5692C34.9205 38.5078 34.8305 38.4362 34.8305 38.3544C34.8305 38.3272 34.8444 38.2931 34.872 38.2522C34.8997 38.2113 34.9828 38.1499 35.1212 38.0681C35.1905 38.0272 35.2597 37.9795 35.3289 37.9249C35.3982 37.8703 35.4812 37.7988 35.5781 37.7102C35.675 37.6215 35.7927 37.5159 35.9311 37.3931C36.0696 37.2704 36.2426 37.1136 36.4503 36.9227C36.5196 36.8545 36.5784 36.8102 36.6269 36.7897C36.6753 36.7693 36.7895 36.7318 36.9695 36.6772C37.191 36.6227 37.4125 36.5511 37.634 36.4625C37.8556 36.3739 38.1082 36.2546 38.392 36.1046C38.6758 35.9546 39.0116 35.7704 39.3992 35.5523C39.7869 35.3341 40.2576 35.0682 40.8114 34.7546L43.9264 32.9956L44.8817 29.948C44.9371 29.7844 44.9993 29.5764 45.0686 29.3242C45.1378 29.0719 45.214 28.7992 45.297 28.506C45.3801 28.2128 45.4701 27.9129 45.567 27.6061C45.6639 27.2993 45.7677 27.0026 45.8785 26.7163L44.9232 26.9822C45.0063 26.8868 45.1413 26.7197 45.3282 26.4811C45.5151 26.2424 45.7123 25.9936 45.92 25.7345C46.1277 25.4755 46.3249 25.2368 46.5119 25.0186C46.6988 24.8005 46.8268 24.671 46.8961 24.63C46.9515 24.5892 47.0934 24.5243 47.3218 24.4357C47.5502 24.3471 47.789 24.2585 48.0383 24.1698C48.2875 24.0812 48.5159 24.0028 48.7236 23.9346C48.9313 23.8664 49.0351 23.8323 49.0351 23.8323C49.1458 23.8323 49.2012 23.8733 49.2012 23.9551C49.2012 23.996 49.1631 24.088 49.087 24.2312C49.0108 24.3743 48.9589 24.48 48.9313 24.5482C48.7928 24.821 48.6716 25.0698 48.5678 25.2948C48.4639 25.5198 48.3671 25.7413 48.2771 25.9595C48.1871 26.1777 48.1005 26.4061 48.0175 26.6447C47.9344 26.8833 47.8375 27.1526 47.7268 27.4526L46.4184 31.4615L47.5607 30.7866L47.4775 30.2752L49.305 29.6003C50.731 28.4276 51.9735 27.4799 53.0327 26.7572C54.0918 26.0345 54.9778 25.4755 55.6908 25.08C56.4038 24.6846 56.9542 24.4187 57.3418 24.2823C57.7295 24.146 57.9717 24.0778 58.0687 24.0778C58.0964 24.0778 58.1344 24.0846 58.1829 24.0982C58.2313 24.1119 58.2556 24.1528 58.2556 24.221C58.2556 24.3164 58.1968 24.4698 58.079 24.6811C57.9614 24.8925 57.7503 25.1448 57.4457 25.438C57.1411 25.7311 56.7292 26.0584 56.2101 26.4198C55.6908 26.7811 55.0367 27.1526 54.2476 27.5344C54.1091 27.6026 53.8703 27.7151 53.5311 27.8719C53.1919 28.0287 52.8354 28.1958 52.4616 28.3731C52.0878 28.5503 51.7348 28.7139 51.4025 28.8639C51.0703 29.0139 50.8418 29.1162 50.7172 29.1707C50.5234 29.2799 50.3088 29.3957 50.0734 29.5185C49.838 29.6412 49.6788 29.723 49.5958 29.7639C49.7204 30.2275 49.8346 30.6537 49.9384 31.0423C50.0422 31.4308 50.1531 31.8025 50.2707 32.157C50.3884 32.5115 50.5165 32.8558 50.6549 33.1899C50.7933 33.5239 50.9594 33.8683 51.1533 34.2228C51.3887 34.6727 51.6655 35.0989 51.984 35.5011C52.3024 35.9034 52.6693 36.2546 53.0846 36.5545C53.4999 36.8545 53.9603 37.0931 54.4656 37.2704C54.9709 37.4477 55.5351 37.5363 56.1581 37.5363C56.5596 37.5363 56.9092 37.5022 57.2068 37.434C57.5045 37.3659 57.7433 37.3045 57.9233 37.2499L58.0064 37.5977ZM43.8434 33.4046L41.1436 35.0819C40.5483 35.4364 39.9842 35.7943 39.4511 36.1557C38.9181 36.517 38.4578 36.834 38.0701 37.1067C38.2086 37.134 38.4024 37.1647 38.6516 37.1988C38.9008 37.2329 39.1431 37.2499 39.3785 37.2499C39.42 37.2499 39.5239 37.2499 39.69 37.2499C39.8561 37.2499 40.0568 37.2397 40.2922 37.2192C40.5275 37.1988 40.7872 37.1647 41.0709 37.117C41.3548 37.0692 41.6213 37.0045 41.8705 36.9227C42.0504 36.8681 42.2097 36.8 42.3481 36.7181C42.4866 36.6363 42.6216 36.5 42.7531 36.309C42.8846 36.1182 43.0161 35.8591 43.1477 35.5318C43.2792 35.2046 43.428 34.7683 43.5942 34.2228L43.8434 33.4046Z" fill="white"/>
<path d="M64.4649 37.0457C64.5203 37.0184 64.6207 36.9809 64.766 36.9332C64.9114 36.8854 65.0672 36.8343 65.2333 36.7797C65.3995 36.7253 65.5517 36.6741 65.6902 36.6264C65.8286 36.5786 65.9255 36.5411 65.9809 36.5139L66.0432 36.8003C65.9047 36.8684 65.7455 36.9365 65.5656 37.0047C65.3856 37.0729 65.2126 37.1377 65.0464 37.1991C64.8802 37.2604 64.7314 37.315 64.5999 37.3627C64.4684 37.4104 64.3819 37.4411 64.3404 37.4547C64.1881 37.932 64.0461 38.341 63.9146 38.682C63.7831 39.0228 63.6204 39.3398 63.4266 39.633C63.2328 39.9262 62.987 40.2228 62.6893 40.5228C62.3917 40.8228 61.9937 41.1568 61.4953 41.525C61.3292 41.6477 61.1145 41.7943 60.8515 41.9648C60.5884 42.1352 60.3081 42.2988 60.0105 42.4556C59.7128 42.6124 59.4151 42.7454 59.1174 42.8545C58.8198 42.9636 58.5602 43.0113 58.3387 42.9977C58.228 42.9977 58.1207 42.9602 58.0168 42.8852C57.913 42.8102 57.868 42.6909 57.8818 42.5273C57.8957 42.3227 58.0029 42.0499 58.2037 41.7091C58.4044 41.3682 58.6952 40.9966 59.0759 40.5943C59.4567 40.1921 59.9205 39.783 60.4673 39.3672C61.0142 38.9512 61.6338 38.5592 62.3259 38.191L63.0113 36.2889C62.8728 36.4389 62.6721 36.6503 62.409 36.9229C62.146 37.1957 61.8449 37.4684 61.5056 37.7411C61.1664 38.0138 60.8065 38.2524 60.4258 38.457C60.045 38.6615 59.6678 38.7638 59.294 38.7638C59.1002 38.7638 58.9306 38.699 58.7852 38.5695C58.6398 38.4399 58.5671 38.266 58.5671 38.0478C58.5671 37.9388 58.581 37.8229 58.6087 37.7002C58.6364 37.5774 58.7056 37.4002 58.8163 37.1684L60.4154 33.0777C60.4292 33.0367 60.45 32.9993 60.4777 32.9652C60.5054 32.9311 60.5815 32.9004 60.7061 32.8731L62.1598 32.4845C62.229 32.4572 62.2706 32.4436 62.2844 32.4436C62.2983 32.4436 62.3121 32.4436 62.3259 32.4436C62.3675 32.4436 62.3882 32.464 62.3882 32.505C62.3882 32.5322 62.3433 32.655 62.2533 32.8731C62.1633 33.0913 62.056 33.3606 61.9314 33.681C61.8068 34.0015 61.6648 34.3526 61.5056 34.7344C61.3464 35.1162 61.2045 35.4809 61.08 35.8287C60.9553 36.1764 60.848 36.49 60.758 36.7696C60.6681 37.0491 60.6231 37.2434 60.6231 37.3525C60.6231 37.4206 60.6404 37.5024 60.675 37.5979C60.7096 37.6934 60.803 37.7411 60.9553 37.7411C61.0522 37.7411 61.2011 37.6729 61.4018 37.5366C61.6026 37.4002 61.831 37.1854 62.0871 36.8922C62.3433 36.599 62.6132 36.2207 62.897 35.7571C63.1808 35.2934 63.4542 34.7276 63.7173 34.0595C63.7312 34.0185 63.7623 33.9402 63.8107 33.8242C63.8592 33.7083 63.9077 33.5856 63.9561 33.456C64.0046 33.3265 64.0496 33.2106 64.0911 33.1083C64.1327 33.0061 64.1603 32.9549 64.1742 32.9549C64.1881 32.9413 64.2884 32.9106 64.4753 32.8629C64.6622 32.8152 64.8664 32.7606 65.0879 32.6993C65.3095 32.6379 65.5102 32.5833 65.6902 32.5357C65.8702 32.4879 65.9671 32.464 65.9809 32.464C66.0086 32.464 66.0225 32.4845 66.0225 32.5254C66.0225 32.539 66.0121 32.5765 65.9913 32.6379C65.9706 32.6993 65.9532 32.7436 65.9394 32.7708L64.4649 37.0457ZM62.139 38.682C61.6268 38.941 61.1907 39.2172 60.8307 39.5103C60.4708 39.8035 60.1766 40.0762 59.9481 40.3285C59.7197 40.5807 59.5501 40.7954 59.4394 40.9728C59.3286 41.15 59.2732 41.2591 59.2732 41.3C59.2594 41.3682 59.3286 41.4091 59.4808 41.4227C59.6331 41.4364 59.7509 41.45 59.8339 41.4636C59.8893 41.4636 59.9862 41.4602 60.1247 41.4534C60.2631 41.4466 60.412 41.4329 60.5712 41.4125C60.7304 41.3921 60.8758 41.3648 61.0072 41.3307C61.1388 41.2966 61.2253 41.2454 61.2668 41.1773C61.3499 41.0682 61.4745 40.7886 61.6407 40.3387C61.8068 39.8887 61.9729 39.3365 62.139 38.682Z" fill="white"/>
<path d="M69.1998 38.3544C69.4628 38.3136 69.7051 38.1976 69.9266 38.0067C70.1482 37.8158 70.3074 37.5909 70.4043 37.3317C70.5012 37.0727 70.515 36.8102 70.4458 36.5443C70.3766 36.2784 70.1897 36.05 69.8851 35.8591C69.7328 35.7636 69.5632 35.6682 69.3763 35.5728C69.1894 35.4773 69.0198 35.4023 68.8675 35.3478C69.1444 35.2796 69.4213 35.1773 69.6982 35.041C69.9751 34.9046 70.2277 34.758 70.4562 34.6012C70.6846 34.4444 70.875 34.2808 71.0273 34.1103C71.1796 33.9399 71.2627 33.7728 71.2765 33.6092C71.318 33.3501 71.2661 33.132 71.1207 32.9547C70.9754 32.7774 70.7712 32.6888 70.5081 32.6888C70.2312 32.716 70.0028 32.8047 69.8228 32.9547C69.6428 33.1047 69.5009 33.2717 69.3971 33.4558C69.2932 33.6399 69.2275 33.8205 69.1998 33.9978C69.172 34.1751 69.179 34.3047 69.2205 34.3865L69.2829 34.4887C69.3105 34.5569 69.2898 34.591 69.2205 34.591C69.1929 34.6183 69.1513 34.6148 69.0959 34.5808C69.0406 34.5466 68.9367 34.4615 68.7845 34.3251C68.3968 34.066 68.1234 33.8819 67.9642 33.7728C67.8049 33.6637 67.7045 33.5751 67.663 33.5069C67.6076 33.2888 67.6872 33.091 67.9018 32.9138C68.1164 32.7365 68.4141 32.5934 68.7948 32.4842C69.1755 32.3752 69.5978 32.3138 70.0616 32.3002C70.5254 32.2865 70.9926 32.3274 71.4634 32.4229C71.7265 32.4774 71.9722 32.5627 72.2006 32.6785C72.4291 32.7945 72.609 32.9342 72.7406 33.0978C72.8721 33.2615 72.9482 33.4388 72.969 33.6297C72.9898 33.8205 72.917 34.0183 72.7509 34.2228C72.6679 34.3455 72.5329 34.4615 72.346 34.5705C72.159 34.6796 71.9583 34.7716 71.7437 34.8466C71.5292 34.9216 71.3042 34.9796 71.0688 35.0205C70.8334 35.0614 70.6258 35.0887 70.4458 35.1023C70.695 35.1432 70.9407 35.2012 71.183 35.2762C71.4253 35.3512 71.6399 35.4466 71.8268 35.5625C72.0137 35.6785 72.1625 35.8079 72.2733 35.9511C72.3841 36.0943 72.4325 36.2546 72.4187 36.4318C72.391 36.7045 72.301 36.9738 72.1487 37.2398C71.9964 37.5056 71.7853 37.7545 71.5153 37.9863C71.2453 38.2181 70.9234 38.409 70.5497 38.559C70.1758 38.709 69.7605 38.7908 69.3036 38.8044C69.0544 38.8454 68.7741 38.859 68.4625 38.8454C68.151 38.8317 67.8533 38.7976 67.5696 38.743C67.2857 38.6885 67.0504 38.6237 66.8635 38.5487C66.6766 38.4737 66.5831 38.3885 66.5831 38.2931C66.5831 38.2658 66.5589 38.1874 66.5104 38.0579C66.462 37.9283 66.507 37.7817 66.6454 37.6181C66.8669 37.2636 67.0504 36.9977 67.1957 36.8204C67.3411 36.6432 67.4518 36.517 67.528 36.442C67.6041 36.367 67.663 36.3261 67.7045 36.3193C67.746 36.3125 67.7876 36.3091 67.8292 36.3091C67.8707 36.3091 67.9087 36.3022 67.9433 36.2886C67.978 36.275 67.9814 36.2818 67.9537 36.3091C67.9261 36.3909 67.9122 36.4454 67.9122 36.4727C67.9122 36.5 67.8914 36.5409 67.8499 36.5954C67.8222 36.8136 67.843 37.0284 67.9122 37.2398C67.9814 37.4511 68.0784 37.642 68.2029 37.8124C68.3276 37.9829 68.4764 38.1226 68.6494 38.2317C68.8225 38.3408 69.0059 38.3817 69.1998 38.3544Z" fill="white"/>
<path d="M81.826 37.6594C81.6461 37.7413 81.4142 37.8401 81.1304 37.956C80.8465 38.0719 80.542 38.1844 80.2166 38.2935C79.8912 38.4026 79.5625 38.498 79.2302 38.5798C78.8979 38.6616 78.6003 38.7026 78.3372 38.7026C78.088 38.7026 77.8735 38.614 77.6934 38.4366C77.5135 38.2594 77.4235 38.048 77.4235 37.8026C77.4235 37.5845 77.4546 37.356 77.517 37.1174C77.5792 36.8788 77.645 36.6572 77.7142 36.4527L78.088 35.4914H76.3644L75.6167 37.7617C75.5475 37.9526 75.4956 38.0753 75.461 38.1298C75.4264 38.1844 75.3468 38.2322 75.2221 38.273C75.0976 38.314 74.9453 38.3616 74.7653 38.4162C74.5853 38.4708 74.4088 38.5219 74.2357 38.5697C74.0627 38.6173 73.9104 38.6583 73.7789 38.6923C73.6473 38.7265 73.5677 38.7435 73.54 38.7435C73.4846 38.7435 73.457 38.7162 73.457 38.6616C73.457 38.6344 73.4708 38.573 73.4985 38.4776C73.5262 38.3822 73.5539 38.314 73.5816 38.273L75.4299 32.9347C75.4437 32.9074 75.506 32.8835 75.6167 32.8631C75.7275 32.8427 75.8383 32.8188 75.949 32.7915C76.1151 32.7506 76.3366 32.6995 76.6136 32.6381C76.8904 32.5767 77.1327 32.512 77.3404 32.4438C77.3542 32.4438 77.3785 32.437 77.4131 32.4233C77.4477 32.4096 77.472 32.4028 77.4858 32.4028C77.5273 32.4028 77.548 32.4234 77.548 32.4642C77.3542 32.887 77.1743 33.3062 77.0081 33.7221C76.842 34.138 76.6828 34.5573 76.5305 34.98H78.2957L79.0433 33.0574C79.0433 33.0438 79.0952 33.0199 79.1991 32.9858C79.3029 32.9517 79.4205 32.921 79.5521 32.8938C79.6836 32.8665 79.8117 32.8392 79.9362 32.812C80.0609 32.7846 80.1439 32.7642 80.1855 32.7506C80.227 32.737 80.2927 32.7131 80.3828 32.679C80.4728 32.6449 80.5662 32.6142 80.6631 32.587L80.9538 32.4847C81.0369 32.4574 81.0854 32.4438 81.0992 32.4438C81.1546 32.4438 81.1823 32.4778 81.1823 32.546C81.1823 32.6142 81.12 32.7881 80.9954 33.0676C80.8708 33.3472 80.7531 33.596 80.6423 33.8141C80.5316 34.0596 80.407 34.3391 80.2686 34.6528C80.1301 34.9664 80.002 35.2766 79.8843 35.5834C79.7667 35.8902 79.6698 36.1697 79.5936 36.422C79.5175 36.6742 79.4794 36.8617 79.4794 36.9845C79.4794 37.1345 79.514 37.2504 79.5832 37.3322C79.6525 37.414 79.7355 37.472 79.8324 37.506C79.9293 37.5401 80.0263 37.5606 80.1232 37.5674C80.2201 37.5742 80.3031 37.5776 80.3724 37.5776C80.8846 37.5776 81.3692 37.5095 81.826 37.3731V37.6594Z" fill="white"/>
<path d="M88.243 37.8638C87.5647 38.0684 86.8586 38.2695 86.1249 38.4672C85.391 38.6649 84.7058 38.7638 84.0689 38.7638C83.3074 38.7638 82.7467 38.5831 82.3868 38.2217C82.0268 37.8604 81.8469 37.4411 81.8469 36.9639C81.8469 36.4457 81.9957 35.9207 82.2933 35.389C82.591 34.8571 82.9821 34.3731 83.4666 33.9367C83.9512 33.5003 84.5016 33.1424 85.1176 32.8629C85.7337 32.5833 86.3671 32.4436 87.0178 32.4436C87.4747 32.4436 87.8139 32.5289 88.0354 32.6993C88.2569 32.8697 88.3677 33.0845 88.3677 33.3435C88.3677 33.6571 88.243 34.0151 87.9939 34.4174C87.7447 34.8196 87.3916 35.1912 86.9348 35.5321C86.4779 35.8594 86.0002 36.1389 85.5019 36.3707C85.0035 36.6025 84.5258 36.8139 84.0689 37.0047C84.2766 37.2093 84.5188 37.3627 84.7958 37.4649C85.0726 37.5672 85.3357 37.6456 85.5849 37.7002C85.8341 37.7547 86.0591 37.7854 86.2598 37.7922C86.4605 37.7991 86.5956 37.8024 86.6647 37.8024C86.7755 37.8024 86.9624 37.7956 87.2254 37.782C87.4885 37.7684 87.8277 37.707 88.243 37.5979V37.8638ZM83.9235 36.7389C84.2974 36.5889 84.6366 36.3878 84.9411 36.1355C85.2457 35.8832 85.5018 35.6139 85.7095 35.3276C85.9172 35.0412 86.0799 34.7515 86.1975 34.4583C86.3152 34.1651 86.3741 33.8958 86.3741 33.6503C86.3741 33.4185 86.3187 33.2447 86.2079 33.1288C86.0971 33.0129 85.9587 32.9549 85.7925 32.9549C85.5433 32.9549 85.2976 33.0504 85.0554 33.2413C84.8131 33.4322 84.6019 33.6777 84.4219 33.9776C84.242 34.2776 84.0966 34.6117 83.9859 34.9798C83.8751 35.348 83.8197 35.7162 83.8197 36.0843C83.8197 36.2343 83.8301 36.3571 83.8509 36.4525C83.8716 36.5479 83.8959 36.6434 83.9235 36.7389Z" fill="white"/>
<path d="M96.3629 37.741C96.2106 37.8091 96.0029 37.8909 95.7399 37.9864C95.6707 38.0546 95.6083 38.1364 95.5529 38.2318C95.3868 38.5181 95.2968 38.8045 95.283 39.0909C95.2692 39.3772 95.2415 39.6602 95.1999 39.9397C95.1585 40.2193 95.065 40.4851 94.9196 40.7374C94.7742 40.9896 94.487 41.2249 94.0578 41.4431C93.8639 41.5385 93.6632 41.6203 93.4555 41.6885C93.2479 41.7567 92.9848 41.8249 92.6664 41.893L92.6041 41.9135C92.4933 41.8862 92.4588 41.8453 92.5003 41.7907C92.5418 41.7362 92.5557 41.7226 92.5418 41.7499C92.8325 41.6817 93.0402 41.6135 93.1648 41.5453C93.2894 41.4771 93.4071 41.3953 93.5178 41.2999C93.684 41.1226 93.7635 40.9351 93.7566 40.7374C93.7497 40.5397 93.7566 40.3147 93.7775 40.0625C93.7982 39.8101 93.8882 39.534 94.0474 39.2341C94.2066 38.9341 94.5493 38.5931 95.0753 38.2114C94.8815 38.2795 94.6808 38.3477 94.4731 38.4159C94.2654 38.4841 94.0716 38.5455 93.8917 38.6C93.7116 38.6545 93.5524 38.6955 93.414 38.7227C93.2756 38.75 93.1648 38.7637 93.0817 38.7637C92.9156 38.7637 92.7529 38.7023 92.5937 38.5795C92.4345 38.4568 92.3549 38.2863 92.3549 38.0682C92.3549 37.8364 92.4138 37.5569 92.5314 37.2296C92.6491 36.9024 92.7841 36.541 92.9364 36.1455C92.701 36.4592 92.4449 36.7864 92.168 37.1274C91.8911 37.4682 91.5312 37.7819 91.0881 38.0682C90.8251 38.2455 90.5274 38.4056 90.1952 38.5488C89.8629 38.692 89.5445 38.7637 89.2399 38.7637C89.0183 38.7637 88.828 38.6988 88.6688 38.5693C88.5095 38.4398 88.43 38.2591 88.43 38.0273C88.43 37.9318 88.4369 37.8432 88.4507 37.7614C88.4646 37.6796 88.4923 37.5739 88.5338 37.4443C88.5754 37.3149 88.6342 37.1444 88.7103 36.9331C88.7865 36.7217 88.8938 36.4387 89.0323 36.0842L90.1744 33.2003C90.2298 33.0639 90.2748 32.9786 90.3094 32.9446C90.344 32.9105 90.4305 32.8798 90.569 32.8525C90.6244 32.8389 90.742 32.8117 90.922 32.7707C91.102 32.7298 91.282 32.6889 91.4619 32.648C91.7942 32.5661 92.0192 32.5048 92.1368 32.4639C92.2546 32.423 92.2996 32.4367 92.2718 32.5048C92.2718 32.5185 92.2268 32.6275 92.1368 32.8321C92.0469 33.0366 91.9396 33.2889 91.8149 33.5889C91.6904 33.8888 91.5485 34.2229 91.3893 34.5911C91.2301 34.9592 91.0881 35.3138 90.9635 35.6547C90.8389 35.9956 90.7316 36.3058 90.6416 36.5853C90.5516 36.8649 90.5067 37.0728 90.5067 37.2092C90.5067 37.3319 90.5343 37.4375 90.5897 37.5262C90.6451 37.6148 90.742 37.6591 90.8805 37.6591C91.0189 37.6591 91.1989 37.5875 91.4204 37.4443C91.6419 37.3012 91.8807 37.0592 92.1368 36.7182C92.3929 36.3774 92.6664 35.9376 92.9571 35.399C93.2479 34.8604 93.5386 34.1888 93.8294 33.3843C93.8986 33.1661 93.9678 33.0332 94.037 32.9855C94.1062 32.9378 94.2516 32.8867 94.4731 32.8321C94.5285 32.8185 94.6357 32.7911 94.795 32.7503C94.9542 32.7093 95.1169 32.665 95.283 32.6173C95.4491 32.5696 95.598 32.5287 95.7295 32.4946C95.861 32.4605 95.9337 32.4435 95.9475 32.4435C95.9753 32.4435 95.9891 32.4639 95.9891 32.5048C95.9891 32.5185 95.9787 32.5593 95.9579 32.6275C95.9372 32.6957 95.9129 32.7571 95.8853 32.8117L94.6392 35.7979C94.5285 36.0842 94.435 36.3399 94.3589 36.5649C94.2827 36.7899 94.2447 36.9569 94.2447 37.066C94.2447 37.1887 94.2793 37.2875 94.3485 37.3625C94.4177 37.4375 94.5043 37.4921 94.6081 37.5262C94.7119 37.5603 94.8227 37.5807 94.9403 37.5875C95.0581 37.5943 95.1585 37.5978 95.2415 37.5978C95.4491 37.5978 95.6672 37.5875 95.8956 37.5671C96.1241 37.5467 96.2799 37.5228 96.3629 37.4955V37.741Z" fill="white"/>
<path d="M102.531 32.996C102.808 32.996 102.984 32.9995 103.06 33.0063C103.136 33.0131 103.174 33.0506 103.174 33.1188C103.174 33.2006 103.126 33.3096 103.029 33.446C102.932 33.5823 102.849 33.6846 102.78 33.7528C102.863 34.3801 102.766 34.9936 102.489 35.5936C102.212 36.1936 101.835 36.7288 101.357 37.1992C100.88 37.6697 100.343 38.048 99.748 38.3344C99.1526 38.6208 98.5919 38.764 98.0658 38.764C97.5951 38.764 97.2109 38.631 96.9132 38.3651C96.6156 38.0992 96.4667 37.7276 96.4667 37.2503C96.4667 36.8141 96.5533 36.4118 96.7263 36.0436C96.8994 35.6754 97.1313 35.3311 97.422 35.0107C97.7128 34.6902 98.045 34.4005 98.4189 34.1414C98.7927 33.8823 99.1803 33.6505 99.5818 33.446C99.5126 33.4187 99.4365 33.3778 99.3534 33.3233C99.2703 33.2687 99.2288 33.2074 99.2288 33.1392C99.2288 33.0574 99.2807 32.9995 99.3845 32.9653C99.4884 32.9313 99.7064 32.8801 100.039 32.812C100.149 32.7846 100.246 32.7608 100.329 32.7403C100.412 32.7199 100.53 32.6824 100.682 32.6278C100.932 32.5188 101.105 32.454 101.202 32.4335C101.299 32.4131 101.395 32.4028 101.492 32.4028C101.783 32.4028 102.012 32.4778 102.178 32.6278C102.344 32.7778 102.462 32.9006 102.531 32.996ZM100.475 33.7323C100.253 33.7051 100.052 33.6437 99.8725 33.5483C99.7202 33.671 99.5576 33.8312 99.3845 34.029C99.2114 34.2266 99.0522 34.4551 98.9069 34.7141C98.7615 34.9732 98.6369 35.2527 98.5331 35.5527C98.4293 35.8527 98.3773 36.1663 98.3773 36.4936C98.3773 36.6572 98.3946 36.8277 98.4293 37.0049C98.4639 37.1822 98.5227 37.3424 98.6057 37.4856C98.6888 37.6288 98.803 37.7447 98.9484 37.8333C99.0938 37.9219 99.2842 37.9662 99.5195 37.9662C100.032 37.9662 100.412 37.7242 100.662 37.2402C100.911 36.756 101.036 36.1527 101.036 35.43C101.036 35.3618 101.032 35.2561 101.025 35.1129C101.018 34.9698 100.997 34.8164 100.963 34.6528C100.928 34.4891 100.873 34.3221 100.797 34.1516C100.72 33.9812 100.613 33.8414 100.475 33.7323Z" fill="white"/>
<path d="M110.505 26.2664C110.505 28.0254 110.239 29.5219 109.706 30.756C109.173 31.99 108.255 32.9342 106.954 33.5888C107.023 33.5751 107.092 33.5615 107.162 33.5479C107.231 33.5342 107.307 33.5138 107.39 33.4865C107.653 33.4183 107.83 33.3706 107.92 33.3433C108.01 33.3161 108.11 33.3024 108.221 33.3024C108.262 33.3024 108.328 33.3058 108.418 33.3127C108.508 33.3195 108.612 33.3501 108.73 33.4047C108.847 33.4592 108.972 33.5376 109.103 33.6399C109.235 33.7422 109.363 33.8819 109.488 34.0592C109.557 34.0729 109.668 34.0967 109.82 34.1308C109.972 34.1648 110.048 34.1955 110.048 34.2229C110.048 34.2637 109.976 34.3319 109.83 34.4273C109.685 34.5228 109.578 34.591 109.508 34.6319C109.508 34.7683 109.502 34.9285 109.488 35.1125C109.474 35.2967 109.415 35.5046 109.311 35.7364C109.207 35.9682 109.048 36.2239 108.834 36.5034C108.619 36.783 108.304 37.0795 107.889 37.3931C107.584 37.6522 107.155 37.9181 106.601 38.1908C106.283 38.3544 105.947 38.4908 105.594 38.5999C105.241 38.709 104.877 38.7636 104.504 38.7636C103.618 38.7636 103.174 38.3544 103.174 37.5363C103.174 37.3045 103.202 37.0931 103.258 36.9023C103.313 36.7113 103.389 36.4795 103.486 36.2068C103.638 35.6478 103.801 35.1262 103.974 34.6421C104.147 34.158 104.317 33.6979 104.483 33.2615C104.967 31.9797 105.462 30.9196 105.968 30.081C106.473 29.2424 106.926 28.564 107.328 28.0459C107.799 27.4459 108.249 26.9754 108.678 26.6346C108.899 26.5936 109.097 26.5391 109.27 26.4709C109.443 26.4027 109.598 26.3311 109.737 26.2561C109.875 26.1812 110 26.1164 110.111 26.0618C110.221 26.0073 110.318 25.98 110.401 25.98C110.457 25.98 110.488 25.9937 110.495 26.0209C110.502 26.0482 110.505 26.13 110.505 26.2664ZM106.643 33.9979C106.601 33.9705 106.494 33.9842 106.321 34.0387C106.148 34.0933 106.013 34.1205 105.916 34.1205L105.376 35.716C105.307 35.9205 105.237 36.1284 105.168 36.3398C105.099 36.5511 105.064 36.7591 105.064 36.9636C105.064 37.3181 105.182 37.5636 105.417 37.6999C105.653 37.8363 105.895 37.9045 106.144 37.9045C106.379 37.9045 106.56 37.8772 106.684 37.8227C106.864 37.7545 107.003 37.6488 107.099 37.5056C107.196 37.3624 107.286 37.1886 107.369 36.9841C107.48 36.7386 107.574 36.4557 107.65 36.1353C107.726 35.8148 107.764 35.5114 107.764 35.225C107.764 34.9114 107.684 34.6796 107.525 34.5297C107.366 34.3797 107.072 34.2023 106.643 33.9979ZM108.782 26.9414C108.698 26.9959 108.577 27.1936 108.418 27.5345C108.259 27.8754 108.082 28.2845 107.889 28.7617C107.695 29.239 107.494 29.7469 107.286 30.2855C107.079 30.8241 106.888 31.3218 106.715 31.7786C106.542 32.2354 106.404 32.6172 106.3 32.9241C106.196 33.2308 106.151 33.391 106.165 33.4047L106.04 33.8137C106.276 33.7319 106.528 33.5376 106.798 33.2308C107.068 32.9241 107.328 32.5559 107.577 32.1263C107.826 31.6968 108.055 31.2298 108.262 30.7253C108.47 30.2208 108.636 29.7265 108.761 29.2424C108.885 28.7583 108.955 28.3152 108.968 27.9129C108.982 27.5106 108.92 27.1868 108.782 26.9414ZM106.04 33.8547L106.02 33.8342V33.8547H106.04Z" fill="white"/>
</svg>
