<svg width="604" height="94" fill="none" xmlns="http://www.w3.org/2000/svg"><circle cx="47" cy="47" r="47" fill="#F9F9F9"/><path fill-rule="evenodd" clip-rule="evenodd" d="M49.25 47.144V26.37c10.067 1.187 17.858 9.734 17.858 20.062 0 11.158-9.109 20.18-20.375 20.18-.376 0-.72-.033-1.047-.064-.299-.028-.585-.055-.87-.055v-17.45c0-.118.12-.237.24-.237h2.516c.959 0 1.678-.712 1.678-1.662zm-2.996 7.835a2.52 2.52 0 002.517 2.492c1.438 0 2.636-1.187 2.516-2.492a2.52 2.52 0 00-2.517-2.493c-1.318 0-2.516 1.068-2.516 2.493zm8.509 2.492a2.52 2.52 0 01-2.517-2.492c0-1.425 1.199-2.493 2.517-2.493a2.52 2.52 0 012.517 2.493 2.52 2.52 0 01-2.517 2.492zm3.476-2.492a2.52 2.52 0 002.517 2.492 2.52 2.52 0 002.516-2.492 2.52 2.52 0 00-2.517-2.493c-1.318 0-2.516 1.068-2.516 2.493z" fill="#00985F"/><path fill-rule="evenodd" clip-rule="evenodd" d="M27.117 46.432c0-11.159 9.108-20.18 20.374-20.18v19.824c0 .118-.12.237-.24.237h-2.517c-.838.119-1.557.831-1.557 1.662v18.162c-9.229-1.9-16.06-9.971-16.06-19.705zm13.902-6.054a2.52 2.52 0 002.517 2.493 2.52 2.52 0 002.517-2.493 2.52 2.52 0 00-2.517-2.493c-1.318 0-2.517 1.068-2.517 2.493z" fill="#00985F"/><circle cx="149" cy="47" r="47" fill="#F9F9F9"/><path fill-rule="evenodd" clip-rule="evenodd" d="M128.72 51.68c.78 3.38 2.34 6.5 4.42 8.84 10.14.78 21.84.78 31.46 0 2.08-2.6 3.64-5.46 4.42-8.84-13.52.26-26.78.26-40.3 0z" fill="url(#paint0_linear)"/><path fill-rule="evenodd" clip-rule="evenodd" d="M169.02 41.8c-.78-3.12-2.34-5.98-4.68-8.58-9.88-.78-20.8-.78-30.94 0a19.32 19.32 0 00-4.42 8.58c13.52-.26 26.52-.26 40.04 0z" fill="url(#paint1_linear)"/><path d="M164.6 33.22l-.26-.26-.78-.78c-.26-.26-.52-.52-.78-.52-.26-.26-.52-.52-1.04-.78-.26-.26-.52-.26-.78-.52s-.78-.52-1.04-.78-.52-.26-.78-.52-.78-.26-1.04-.52-.52-.26-.78-.26c-.26-.26-.78-.26-1.04-.52-.26 0-.52-.26-.78-.26-.52-.26-.78-.26-1.3-.26-.26 0-.52-.26-.78-.26-.52 0-1.04-.26-1.56-.26h-.78c-.52-.52-1.3-.52-2.08-.52h-2.86c-.52 0-1.04.26-1.3.26-.52.26-.78.26-1.04.52-.52 0-.78.26-1.3.26-.26 0-.52.26-.78.26-.26.26-.78.26-1.04.52-.26 0-.52.26-.78.52-.52 0-.78.26-1.3.52-.26 0-.52.26-.52.26-.52.26-.78.52-1.04.78s-.52.26-.78.52-.52.52-1.04.78c0 .26-.26.26-.52.52l-1.04 1.04-.26.26c10.14-.78 21.06-.78 31.2 0zm-31.46 27.3c0 .26.26.26.52.52s.52.52.78 1.04c.26.26.52.26.52.52.26.26.52.52 1.04.78.26.26.52.26.78.52s.78.52 1.04.78.52.26.78.52.78.26 1.04.52.52.26.78.52.78.26 1.04.52c.26 0 .52.26.78.26.52.26.78.26 1.3.26.26 0 .52.26.78.26.52 0 1.04.26 1.56.26h6.24c.52 0 1.04-.26 1.56-.26.26 0 .52-.26.78-.26.52 0 .78-.26 1.3-.26.26 0 .52-.26.78-.26.52-.26.78-.26 1.04-.52.26 0 .52-.26.78-.26.26-.26.78-.26 1.04-.52s.52-.26.78-.52.78-.52 1.04-.78.52-.26.78-.52.78-.52 1.04-.78.52-.26.52-.52l1.04-1.04.26-.26c-9.88.26-21.32.26-31.72-.52zm36.4-15.86v-.78c0-.52-.26-1.04-.26-1.56v-.52c-13.78-.26-26.78-.26-40.3 0v.26c-.26.52-.52 1.3-.52 1.82v.78c-.26.78-.26 1.56-.26 2.34v2.86c0 .52.26 1.04.26 1.56v.26c13.26.26 26.78.52 40.56 0v-.26c0-.52.26-1.04.26-1.3V47c.52-.78.52-1.56.26-2.34z" fill="#231F20"/><circle cx="251" cy="47" r="47" fill="#F9F9F9"/><path fill-rule="evenodd" clip-rule="evenodd" d="M232.355 41c-.909 0-1.987.86-2.876 2.306-.926 1.497-1.479 3.35-1.479 4.96 0 2.357 1.344 4.733 4.356 4.733 3.008 0 4.355-2.376 4.355-4.733 0-1.61-.552-3.463-1.475-4.96-.897-1.446-1.975-2.306-2.881-2.306zm23.519 3.536h3.049v7.82h3.267v-7.82h3.047v-2.894h-9.363v2.893zm16.332 0h4.791v-2.894h-4.791c-4.401 0-6.752 2.154-6.752 5.357 0 3.204 2.351 5.358 6.752 5.358h4.791v-2.893h-4.791c-2.037 0-3.376-.717-3.376-2.464 0-1.748 1.339-2.464 3.376-2.464zm-22.976-2.894l-1.741 6.395-1.741-6.395h-5.77v10.715h3.265v-8.715l2.373 8.715h3.746l2.374-8.72v8.72h3.267V41.642h-5.773z" fill="#E30613"/><circle cx="353" cy="47" r="47" fill="#F9F9F9"/><path fill-rule="evenodd" clip-rule="evenodd" d="M372.383 40.405c-.976-.922-2.408-1.3-3.973-1.075v3.379c.634-.036 1.148.2 1.376.673.362.747-.011 1.867-.891 2.906-1.357 1.602-4.967 4.88-4.967 4.88l5.182-.17c3.167-3.093 4.304-4.971 4.508-7.315a4.008 4.008 0 00-1.235-3.278zm-14.592 3.83v-3.047l4.501-.633v3.184l-4.501.495zm-3.665-2.532v13.244h3.089V41.27l-3.089.434zm-12.199 4.28V43.42l3.402-.478v2.665l-3.402.374zm-2.795-2.169v11.133h2.356V43.483l-2.356.331zm-6.932 3.238v-2.264l6.107-.858v2.45l-6.107.672zm1.949 7.895V47.19l2.236-.229v7.986h-2.236zm7.778-7.059v2.608l2.233-.122v-2.678l-2.233.193zm0 7.06v-2.572l3.402-.103v2.674h-3.402zm15.864-8.423v3.103l2.95-.16v-3.195l-2.95.252zm0 8.422v-3.05l4.501-.137v3.187h-4.501zm-11.562-12.13v12.13h2.683V42.44l-2.683.378zm3.184 12.13V52.15l3.896-.118v2.915h-3.896zm24.387-3.535v3.535l-10.51-3.219 10.51-.316zm-10.511.316l10.511 3.219h-10.509l-.002-3.219zm0 0h.001-.001zm10.511 3.219zm-10.374-8.98c-.173-3.665 1.326-5.911 4.38-6.561l.001 3.44c-.64.27-1.274.762-1.125 2.833l-3.256.289z" fill="#141414"/><circle cx="455" cy="47" r="47" fill="#F9F9F9"/><path d="M443.625 55.675c.65-.65 1.3-.65 1.3-1.95-.975.325-3.9.325-4.875-1.3-.325-.325 0-.65.325-.325.65.975 2.275.65 2.925.325 0-.325-.325-.65-.65-.975.325 0 .65-.325.975-.975-.325 0-1.625-.325-1.625-.325.325-.325.325-.325.325-.975-1.3.325-2.6 0-2.925-.65-.325-.325 0-.65.325-.65.65.65 3.575 1.625 4.55.325-.325 0-.975-.325-.975-.65.975 0 1.95-.65 1.95-1.3-.65 0-1.625 0-1.95-.325.325-.325.65-.325.975-.975-1.95 0-1.95-1.625-1.95-1.625 1.3.65 3.25.325 2.925-1.3-.975 0-1.95-1.625.65-3.25 2.6-1.3 5.2-2.925 5.2-5.2-.65-1.625-2.925-2.6-3.25-3.25-1.3.325-1.3.975-.975 1.95 0 0-2.275.325-2.6-1.3 0-.65.325-1.3.975-1.625-.325 0-1.95-.65-2.6.975-.975-.65-1.95-.65-2.6 0 .975.65 1.95 2.925 3.575 3.575-1.3.65-3.25.325-4.55-1.625-.975 1.625-1.625 3.25.65 5.2C435.5 39.425 435.5 43 431.6 44.95c.325.975 1.3.975 2.275.975-1.625 1.95-.325 4.225-2.925 5.2.325.975.65 1.625 1.625 1.3 0 .325-.325.325-.65.975 1.3.975 3.25.325 3.575-2.6 0-.65.65-.325.65.325-1.625 3.25 2.6 5.85.975 8.45 1.3 0 2.275 0 2.925-.65.325.65.325.975.325 1.625.65 0 .975-.65.975-.975.325 1.3 1.95 2.925 4.875 2.925-1.95-2.6-.325-4.55-2.6-6.825zm-2.6 2.6l-.65.975c-.325-.65-.65-1.3-.65-1.625-.325.975-1.3.975-1.95.975 0-2.275-2.6-4.55-1.3-7.15.325-.65 0-.975-.325-1.3-1.95-.975-.975 2.925-2.925 3.25.325-.975.325-1.95.325-1.95-.325 0-1.3.65-1.625 0 .975-.65 1.3-1.625 1.625-2.275.325-1.3.325-1.625.65-2.275 0-.65.325-.975 1.3-1.95-.325 0-2.275.325-2.925 0 3.9-2.275 2.925-4.875 8.45-7.475-1.3-1.3-2.925-1.95-1.95-4.225 1.625 1.95 4.55 1.3 6.175.325-1.625-.325-3.575-1.625-3.9-3.25.65 0 1.3.65 1.95.975.325-.65.325-1.3.975-1.3-1.3 1.95.65 2.925 2.275 2.925h1.3c0-.65-.65-1.625-.325-1.95.65.325.975.65 1.3.975 3.25 2.6-1.625 4.875-3.575 6.175-3.25 1.625-2.275 3.9-.975 4.225 0 .325 0 .325-.325.325-.975.65-1.95-.325-2.6-.65 0 1.3 0 2.6 1.3 3.25l-.975.325c.975.65.975.975 1.95.975 0 .325-.65.325-1.3.325 0 .325.325.975.65 1.3-2.275.325-2.925-.975-3.575-.975-1.3 0-1.3 2.6 1.95 2.6l-.325.65s.65.325 1.3.325l-.65.65.65.325c-1.625.65-1.95-.975-2.925-.325-1.3.975 1.625 3.25 4.55 2.925-.325.325-.975.65-1.3.975 2.6 2.275 1.3 4.55 2.275 5.85-1.95 0-3.575-1.625-3.9-2.925zm-3.575-8.125c.65.65.975.65 2.275.65-1.3 0-1.95-.325-2.275-1.3v-1.3c0-1.3.325-2.925 1.3-4.55 0 .975.975 2.6 2.6 2.925-1.95-.975-2.925-2.6-2.275-4.225.325-.65.65-.975 1.3-1.625.325-.325.325-.65.65-.65-.325.65.65 1.625 1.3 1.625-.325-.325-1.3-1.3.65-3.25-.65 0-.975.325-1.625.65 3.25-3.575 5.85-3.575 7.15-5.2-1.625 1.3-6.5 1.95-8.45 1.3 1.3.65 3.9.65 4.55.65-2.275 2.275-7.15 4.55-8.125 6.5 1.3-1.3 1.95-1.625 2.925-1.95-.65 1.3-1.3 2.275-1.95 3.575-1.3 2.925-2.925 2.925-3.25 5.2.65-1.95 1.95-2.275 2.6-3.575 0 .65-.325 1.625-.325 2.6 0 .975.325 1.95.65 2.925 0 1.3 0 3.25 1.3 4.55-.65-1.3-.975-2.925-.65-3.9.975 1.95 3.9 4.875 5.525 6.825-1.625-2.6-5.2-5.2-5.85-8.45zm33.15-9.75c.975.325 1.95.65 2.925 1.95-.975-1.95-5.85-4.225-8.125-6.5.65 0 3.575.325 4.55-.65-1.95.65-6.5 0-8.45-1.3 1.3 1.625 3.9 1.95 7.15 5.2-.325-.325-.975-.65-1.3-.65 1.625 1.95.975 2.925.65 3.25.65 0 1.625-.975 1.3-1.95.325.325.325.65.65.65.325.65.975 1.3 1.3 1.625.65 1.625-.325 3.25-1.95 3.9A3.007 3.007 0 00471.9 43c.975 1.625 1.3 3.25 1.3 4.55v1.3c-.325.975-.975.975-2.275 1.3.975 0 1.625 0 2.275-.65-.65 3.25-4.225 6.175-5.85 8.45 1.3-1.95 4.55-4.55 5.525-6.825 0 .65 0 2.6-.975 3.9 1.3-1.3 1.3-3.25 1.3-4.55.325-.975.65-1.625.65-2.925 0-.975 0-1.95-.325-2.6.975 1.3 1.95 1.625 2.6 3.575 0-2.275-1.95-2.275-3.25-5.2-.975-.65-1.625-1.625-2.275-2.925zm5.525 5.2c.975 0 1.95 0 2.275-.975-3.9-1.95-3.9-5.525-8.125-7.475 2.275-1.625 1.625-3.575.65-5.2-1.3 1.95-3.25 2.275-4.55 1.625 1.625-.65 2.275-2.925 3.575-3.575-.65-.65-1.625-.65-2.6 0-.325-1.3-2.275-.65-2.6-.65.325.325.975.975.975 1.625-.325 1.3-2.6 1.3-2.6 1.3.325-.975.325-1.625-.65-1.95-.325.65-2.925 1.95-2.925 3.25-.325 2.275 2.6 3.9 5.2 5.2 2.6 1.625 1.625 3.25.65 3.25-.65 1.625 1.3 1.95 2.6 1.3 0 .325 0 1.625-1.95 1.625 0 .65.325.65.975.975-.325.325-1.3.325-1.95.325 0 .65.975 1.3 1.95 1.3 0 .325-.65.65-.975.65.975.975 3.9.325 4.55-.325.325-.325.65 0 .325.65-.325.325-1.95.975-2.925.65 0 .65 0 .975.325.975 0 0-1.3 0-1.625.325 0 .65.65.65.975.975-.325.325-.325.65-.65.975.65.325 1.95.65 2.925-.325.325-.325.65 0 .325.325-1.3 1.625-3.9 1.625-4.875.975 0 1.3.65 1.625 1.3 1.95-1.95 2.275-.65 4.225-1.95 6.175 2.6 0 4.225-1.3 4.875-2.925 0 .325.325.975.975.975 0-.65 0-.975.325-1.625.65.325 1.625.65 2.925.65-1.3-2.6 2.6-4.875.975-8.45-.325-.65.325-.975.65-.325.325 2.925 1.95 3.575 3.575 2.6-1.3.325-1.3.325-1.625 0 .975.325 1.3-.325 1.625-1.3-2.6-.975-1.3-3.25-2.925-5.525zm.325 5.85s.325.975.65 1.625c-1.95 0-.975-4.225-2.925-3.25-.65.325-.65.975-.325 1.3 1.3 2.6-1.625 4.875-1.3 7.15-.65 0-1.3 0-1.95-.975-.325.325-.65.975-.65 1.625l-.975-.975c-.325 1.625-1.95 2.925-3.9 3.25.975-1.625-.325-3.575 2.275-5.85-.325-.325-.975-.65-1.3-.975 2.925.325 5.85-1.95 4.55-2.925-.975-.65-1.3.65-2.6.65l.325-.65-.65-.65c.65 0 1.3-.325 1.3-.325l-.325-.65c3.25 0 3.575-2.6 1.95-2.6-.65 0-1.625.975-3.575.975.325-.325.325-.65.65-1.3-.65 0-.975 0-1.625-.325.975 0 1.3-.325 1.95-.975l-.975-.325c1.3-.65 1.3-1.95 1.3-3.25-.65.325-1.625.975-2.6.65-.325 0-.325-.325-.325-.325 1.625-.325 2.6-2.6-.65-4.225-1.95-.975-7.15-3.575-3.575-6.175.325-.325.975-.65 1.3-.975.65.325-.325 1.3-.325 1.625h1.3c1.625 0 3.575-.975 2.6-2.925.65 0 .65.65.975 1.3.325-.325 1.3-.975 1.95-.975-.65 1.625-2.6 2.925-3.9 3.25 1.625.975 4.55 1.625 6.175-.325.975 1.95-.325 2.925-1.95 4.225 5.2 2.925 4.55 5.525 8.125 7.8-.325.325-2.6 0-2.6 0 .65.975 1.3 1.625 1.3 1.95.325.325.325.975.65 2.275.325.975.65 1.95 1.625 2.275-.65.65-1.625 0-1.95 0zm-26.65 6.175l.65-.65v-.65l.325-.325h.325l1.3.325h-1.3c-.325 0-.325 0-.65.325v.325l-.325.975c0 .325-.325.65 0 .975l.325.325-.65.975h.325l.325-.65s.65-.65.65-.975l-.325-.325v-.325h2.925c.325-.325.325-.325.65-.325h.65c.975 0 1.95 0 2.275-.325 0 .325.325.65.65.65v.325l-.65 1.95h1.3l.65-1.625s0-.325.325-.325l-1.3 1.625h.975l.65-1.95c0-.325 0-.65-.325-.65-.325-.325-.325-1.3-.65-1.625h.325c.325 0 .325.65.65.975.65.975 1.3 1.625 2.275.325l-.325-.325-.325-.325-1.3-1.3c-.325-.65-1.3-.65-1.625-.325-.975-.65-1.95 0-2.275 0h-1.95.325c0-1.3-.65-2.275-1.95-2.6 0 0 0-.325-.325-.325l-.325.325h-.325l-1.625-.325 1.3 1.3-.65.975v.65h1.3c0 .325 0 .65-.325.975h-1.3l-.975.65c-.325.325-.325.65-.325.975l.65.325zm8.45.325l-.65 1.625h-.325l.65-1.625c0-.325 0-.325-.325-.65.325.325.65.325.65.65zm-6.825-3.9c-.325.325-.325.325-.65 0v-.325l.975-.975-.65-.65.975.325.325-.325v.325c.325 0 1.625.65 1.625 1.95 0 0 .325.325.65.325h1.625c.325 0 .975-.65 1.95 0h.975c.975 0 1.3.65 1.95.975.325.325.65.975.65.975-.325.325-.325.325-.65.325s-.325-.325-.325-.65-.65-.65-.65-.65c0 .325.325.65.325.975-.65-.65-.975-1.625-1.3-1.625-.325 0-.325 0-.65.325.325.65.325 1.3.65 1.625l.325.325c.325 0 0 .325 0 .65l-.325 1.625h-.325l.325-1.625c0-.65-1.3-.65-1.95-1.3-.65.65-2.275.65-2.925.325-.325 0-.65 0-.65.325h-.325l-1.625-.325c-.325 0-.325 0-.325.325l-.65.65v.325c0 .325-.325.325-.325.325l-.325-.325v-.65l.325-.975s0-.325.325-.325h1.625l-.65-.975c-.325-.65.325-1.625 0-2.275.65 1.3 0 .975-.325.975zm-1.625 2.275l.65-.65s.325-.325.325 0h.975c0 .325.325.65.325.65l-1.3-.325h-.325l-.65.325v.65l-.325.325v-.325c0-.325 0-.65.325-.65zm3.25-21.125c.325 0 1.3.325 1.3.325V35.2l-1.625-.65s0 .325.325.65zm1.3-.65v-.65l-1.95-.65.65.65c.325.325 1.3.65 1.3.65zm0-1.3v-.325l-2.275-.975s.325.325.975.65c.325.325 1.3.65 1.3.65zm5.85 6.825h1.95c0-.325-.325-.65-.975-.65-.65 0-.975.325-.975.65zm-2.275-8.125l-2.275.975v.65l1.3-.65.975-.975zm-.325 2.6l-1.95.65v.65l1.3-.65c.65-.325.65-.65.65-.65zm0-1.3l-1.95.65v.65l1.3-.65c.65-.325.65-.65.65-.65zm-8.775 6.175c-.65 0-.975.325-.975.65h1.95c0-.325-.325-.65-.975-.65z" fill="#DEDFE1"/><path d="M459.225 30.65c0-1.3-1.95-2.275-4.225-2.275-2.275 0-4.225.975-4.225 2.275v.325l.975 5.2-4.225 2.275c-.325.325-.975.975-.975 1.625h.65c0-.65.65-1.625 1.625-1.625s1.625.65 1.95 1.625v.325l.325.325h-5.85c.65.975.975 1.95.975 2.925v12.675c0 3.25 2.6 4.875 5.2 4.875 1.95 0 2.275 0 3.575.975 1.3-.975 1.625-.975 3.575-.975 2.6 0 5.2-1.625 5.2-4.875V43.65c0-.975.325-1.95.975-2.925h-6.175l.325-.325v-.325c.65-.975.975-1.3 1.95-1.625.975 0 1.625.65 1.625 1.625h.65c0-.65-.65-1.3-.975-1.625l-3.9-2.6.975-5.2zm-7.475.65l3.25.975v4.875l-2.6-1.3-.65-4.55zm.65 10.4c.325.65.975.975 1.95.975 0 .325.325.65.65.975 0 .975.325 1.625 1.3 1.95 0 .325.325.65.975.975l-.975.65c-.325.325-.65.325-.975.325l-2.925-.325c0-.325-.325-.65-.975-.65l.975-3.25-.65-1.3-1.3.975v3.25h-.65c-.65-.325-.975.975-.325.975h.325v.325s-.325.325 0 .325v.65c0 .325-.325.65.325.975.325 0 .65-.325.65-.65l4.55 1.3c.65.325.975 0 1.625-.325l1.3-.975c0 .65 0 1.3.65 1.625v.975h-11.7v-7.8c0-.65-.325-1.3-.325-1.95h5.525zm4.875 2.6c-.325.65-.325.975 0 1.625v.325c-.975 0-1.3-1.3-1.3-1.3v.325c-.325-.325-.65-.975-.65-1.3.325 0 .325.325.65.325v-.325c-.65-.325-.975-.65-1.3-1.3h1.3c.325.325.65.65.975.65 0 .325.325.65.325.975zm1.3 3.575s0 .325-.325.325l-.325.325c0-.65-.325-1.625-.65-1.95l.65-.65c-.325.975 0 1.625.65 1.95zm-2.275-.325l.325-.325c.325.325.975.975.65 1.625l-.325.65s-.325 0-.325.325c.325-.975 0-1.95-.325-2.275zm-.975.325h.325c.65.325.65 1.3.325 1.95h-.65c.325-.65.325-1.3 0-1.95zm-.975 0h.65c0 .325 0 1.3-.325 1.625l-.65-.325c.325-.325.65-.975.325-1.3zm-.975-.325h.65c0 .325 0 .975-.325 1.625l-.65-.325c.325-.325.325-.975.325-1.3zm-2.6 0c-.325 0-.325 0-.325-.325.65-.325.975 0 .975 0l.65.65c-.325 0-.325.325-.65.65-.65 0-.65-.65-.325-.975 0 0-.325-.325-.325 0zm-.65.975h.325c0 .325 0 .325-.325 0 0 .325 0 .325 0 0zm-.65-1.625v-.325c.325 0 .325.325.65.325h-.65zm.65 1.3h.65c-.325.325-.65.325-.65 0zm.65-.325c-.325 0-.65 0-.65-.325.325.325.65.325.65.325zm.325-3.25l-.65 1.95.325-3.25.975-.65.325.975-.975 3.25v-2.275c0-.325.325-.325 0 0zm0 2.275h.65v.325l-.65-.325zm.975.65h.65c0 .325 0 .975-.325 1.3h-.325v-1.3zm11.05 8.775c0 1.625-.65 2.6-1.95 3.25l.325-.975h-.325l-.65.975c-.65.325-1.3.325-1.95.325-2.275 0-2.6 0-3.575.975-.65-.65-1.3-.975-3.575-.975-.65 0-1.3 0-1.95-.325l.65-.975h-.325l-.65.975s-.325 0-.325-.325l.325-.65h-.325l-.325.975c-.975-.65-1.625-1.625-1.625-3.25V51.45H462.8l.325 4.875zm.325-14.625c-.325.65-.325 1.3-.325 1.95v7.475h-.975c-.325-.325-.65-1.625-.65-1.625-.325.325 0 1.3 0 1.625h-.975c-.325-.325-.65-1.625-.65-1.625-.325.325 0 1.3 0 1.625h-.65v-.975c-.325 0-.65-.325-.65-.65.325.325.325.325.65.325l.325-.325c-.975-.325-.975-1.3-.325-1.95-.65 0-1.3-.65-.975-1.3-.65-.325-.975-1.3-.325-1.95-.325-.325-.325-.975 0-1.625-.325 0-.975-.325-1.3-.325.325 0 .65-.325.975-.65h5.85zm-3.25-3.575c-.975 0-1.625 1.3-2.275 2.275h-.65c0 .65-.65 1.625-2.275 1.625-.65 0-1.3 0-1.625-.325-.325-.325-.325-.65-.65-.975V40.4h-.65c-.65-1.3-1.3-2.275-2.275-2.275l2.275-1.3 2.925 1.3 2.925-1.625 2.275 1.625zm-2.6-2.275l-2.275 1.3v-4.875l3.25-.975-.975 4.55zm-2.6-4.225l-3.25-1.3c.325-.65 1.625-1.3 3.25-1.3s3.25.65 3.25 1.3l-3.25 1.3zm7.475 14.625v-.325c-.975 0-1.3-1.3-1.3-1.3-.325.975.65 1.625 1.3 1.625zm-1.3 2.6v-.325c-.975 0-1.625-1.625-1.625-1.625-.325 1.3.65 1.95 1.625 1.95zm.65-1.625c-1.3.325-1.625-1.3-1.625-1.3 0 .65.325 1.625.975 1.625-.325.975.65 1.625 1.625.975V48.2a.718.718 0 01-.975-.975zm-.65-3.9V43c-1.625-.325-1.3-1.3-1.3-1.3-.325.975.325 1.625 1.3 1.625z" fill="#DEDFE1"/><path d="M451.425 58.925l-.65.975h.325l.65-.975h-.325zm.65 0l-.325.975h.325l.65-.975h-.65zm3.575 0l-.65.975h.325l.65-.975h-.325zm.65 0l-.65.975h.325l.65-.975h-.325zm-1.625 0l-.65.975h.325l.65-.975h-.325zm4.875.975h.325l.65-.975h-.325l-.65.975zm-6.5-.975l-.65.975h.325l.65-.975h-.325zm.975 0l-.65.975h.325l.65-.975h-.325zm-1.95-6.175s-.325.325 0 0 0 .325 0 0zM455 27.725c1.625 0 3.25.65 3.9.975 0 0 .325-1.3.975-2.6h-1.3l-.65-1.3-1.625.975-1.3-1.625-1.3 1.625-1.3-.975-.65 1.625h-1.3c.65.975.975 2.275.975 2.275.65-.325 1.95-.975 3.575-.975zm-3.25-.65l.65-1.3 1.3.65L455 24.8l1.3 1.3 1.3-.65.65 1.625h.65c0 .325-.325.65-.325.975-.975-.325-2.275-.975-3.575-.975-1.3 0-2.6.65-3.575.975 0-.325-.325-.975-.65-1.3l.975.325zm4.55-2.275c.325 0 .325 0 .325-.325s-.325-.65-.325-.65v.65c-.325.325 0 .325 0 .325zm2.275.975h.65v-.65h-.65v.65zM453.7 24.8c.325 0 .325-.325.325-.325 0-.325-.325-.65-.325-.65l-.325.65c0 .325 0 .325.325.325zm-2.275.975c.325 0 .325-.325 0-.65 0-.325-.65-.325-.65-.325v.65c.325.325.325.325.65.325zm26.975 12.35c.65-.325.975-.65.975-.975-1.3-.325-4.55-1.625-7.15-.325.975-.975 1.95-.975 1.95-2.6.325.325.975.325 1.625-.325-.325-.975-.975 0-.975-.325s.975 0 .975-.975c-.65-.325-.975.325-1.3.325 0 0 .65-.325 0-1.3-.65.325 0 .975-.325.975s0-.65-.975-.65c0 .975.975.975.65 1.3-.325.325-.325-.65-.975-.325 0 .65.65 1.3 1.3.975 0 1.625-1.625 1.3-2.6 2.925 2.275.975 3.25 2.925 4.55 4.225.325-.325 1.3-1.625 1.3-1.625 1.3.975 2.6 0 2.6 0-.975-.325-.975-.65-1.625-1.3zm-1.95.325c0 .325.325 1.625-.325 2.275-.65-1.625-1.95-2.925-2.925-3.575-.325 0 0-.325.65-.325 1.625-.325 3.575.325 4.55.65-.325.325-.65.325-1.3.65.65.325 1.3.975 1.625 1.3-.65.325-.975-.325-2.275-.975zm-21.775 26.325h-.975v.325h.325l.65-.325c-.325.65-.975 1.3-.975 1.625 0 .325.325.325.325.325.325 0 .325 0 .325-.325 0-.975.325-1.3.325-1.625zm.65.325l.975-.325v-.325h-.975v.65c.325 0 .65.325.65.65 0 0 0 .325-.325.325v-.325s0-.325-.325 0c0 0-.325 0-.325.325s.325.325.65.325.65-.325.65-.65-.65-.65-.975-.65zm1.625-.65c-.325 0-.65.325-.65.65s.65.65.975.325v.65s0-.325-.325 0v.325c0 .325.325.325.325.325.65 0 .65-.325.65-.65 0-.975-.325-1.625-.975-1.625zm.325.975c-.325 0-.325-.325-.325-.65.325 0 .325.65.325.65z" fill="#DEDFE1"/><path d="M453.05 64.45l-.65.65h.325l-.325.975h.975l-.325-1.625zm9.425-.975v-1.95c-1.3.65-3.25 1.3-5.525 1.3v.65h.65c-.975 0-1.95.325-2.6.325-.65 0-1.625 0-2.6-.325h.65v-.65c-2.275-.325-4.225-.65-5.525-1.3v1.95l-1.95.65c1.3.65 2.925 1.3 4.875 1.95l-.325.65c.975.325 2.925.65 4.55.65 1.95 0 3.575-.325 4.55-.65l-.325-.65c1.95-.65 3.575-.975 4.875-1.95l-1.3-.65zm-15.6.65l1.3-.65V61.85c.975.325 1.95.65 3.575.975l-.65 2.275c-1.95 0-3.25-.325-4.225-.975zM455 67.05c-1.625 0-2.925-.325-4.225-.65l.975-2.6c.65 0 1.95.325 3.25.325 1.625 0 2.925 0 3.25-.325l.65 2.6c-.975.325-2.275.65-3.9.65zm4.225-1.625l-.65-2.275c1.625-.325 2.6-.65 3.575-.975V63.8l1.3.65c-1.3.325-2.6.65-4.225.975zM432.9 39.75s.65 1.3 1.3 1.625c1.3-1.3 2.275-3.25 4.55-4.225-1.3-1.95-2.6-1.625-2.6-2.925.65.325 1.3-.325 1.3-.975-.975-.65-.975.325-1.3 0 0 0 .65-.325.65-1.3-.975 0-.65.65-.975.65 0 0 .325-.65-.325-.975-.65.975 0 .975 0 1.3 0 0-.325-.65-1.3-.325.325.975 1.3.65 1.3.975 0 .325-.65-.325-.975.325.325.65.975.65 1.3.325 0 1.3.975 1.625 1.95 2.6-2.6-1.3-5.85 0-7.15.325.325.325.65.975.975.975-.65.65-.65.975-1.3 1.625 0 0 .975.975 2.6 0zm-1.625-.325L432.9 37.8c-.65 0-.975 0-1.3-.325.975-.325 2.925-.975 4.55-.65.65 0 .975.325.65.325-.975.65-1.95 1.95-2.925 3.575-.65-.975-.325-1.95-.325-2.275-1.3.65-1.625 1.3-2.275.975zm22.75-.65v.65c.325-.325.975-.325.975-.325v1.3s0 .65-.325.975h1.3c-.65-.325-.65-.975-.65-.975v-1.3s.65 0 .65.325v-.65h-1.95z" fill="#DEDFE1"/><path d="M480.35 39.1l-.325-.325s0-.325-.325-.325c.325-.325.325-.65.65-.65l.65-1.625-1.3-.325c-.325 0-.65 0-.975-.325-.975.325-1.95 0-2.925-.325.325 0 .65-.325.975-.975l.325-.325s0-.65-.325-.65c0 0 0-.325.325-.65v-.65l-.975-.325h-.325s0-.325-.325-.65l-.65-.975-.975.65c-.325 0-.325.325-.65.325h-1.3l-.65-.65-.975-.975c-.325-.65-1.3-.65-2.6-.325-.325-.325-.975-.65-1.95-.65h-.65s-1.3.325-2.275.975l-.975-.65A3.497 3.497 0 01460.2 30c0-.325-.325-.65-.325-.65v-.325s.325-1.3.975-2.275l.975-1.625H460.2v-1.95l-1.3.65s-.325 0-.325.325l-.325-.65-.65.325s0-.325-.325-.65l-.65-.975-.65.975-.325.325-.65-.65-.65.65s0-.325-.325-.325l-.65-.975-.65 1.3c0 .325-.325.325-.325.65l-.65-.65v.65s-.325 0-.325-.325l-1.3-.325v1.95l-1.95-.325.975 1.625c.65.975.975 2.275.975 2.275v.325c0 .325 0 .65-.325.65 0 0-.975-.325-1.625-1.3l-.975.65c-.975-.65-1.625-.975-2.925-.975-.975 0-1.625.325-1.95.65-.975-.325-2.275 0-2.925.65l-.975.975-.65.65h-1.3s-.325-.325-.65-.325l-.975-.65-.325.975c0 .325 0 .325-.325.65h-.975l.325.975c0 .325 0 .325.325.65v.65l.325.325c-.65.325-.325.65 0 .65-.975.325-1.95.65-2.925.65-.325 0-.65.325-.975.325H429l.325.65.325.65c0 .325.325.65.65.65 0 0-.325.65-.65.65l-.65.975.65.65s.65.975 1.95.975h.975c0 .325.65.65.975.975-.65.65-1.3 1.3-2.275 1.625l-.975.325.325.975c.325.65.65 1.3 1.625 1.625-.325.325-.325.975-.325 1.3-.325 1.3-.325 1.625-1.3 1.95l-.65.325v.975c.325.65.65 1.3.975 1.625l-.65.325s1.3.975 2.6 1.3c0 0 1.3 0 1.625-.65L435.5 56c.65 1.3.975 1.95.65 2.6l-.975 1.625h1.95c.65 0 1.625 0 2.275-.325v1.3h.975c.325 0 .325 0 .325-.325.975.975 2.6 1.95 4.875 1.95l-2.6.975 2.275 1.3c1.3.65 2.6 1.3 4.225 1.625l-.325.65.975.325c.65 0 2.6.65 4.875.65s4.225-.65 4.875-.65l.975-.325-.325-.65c1.625-.325 2.925-.975 4.225-1.625l1.95-.975-2.6-.975c2.275 0 3.9-.975 4.875-1.95 0 0 .325 0 .325.325l1.625.325v-1.3c.65 0 1.3.325 2.275.325h1.95l-.975-1.625c-.325-.65 0-1.3.65-2.6l.975-1.95c.325.325.65.325.975.65h.65c.65 0 1.3-.325 1.625-.65l.975-.65-.65-.65c.325-.325.65-.65.975-1.625l.325-.975-.975-.325c-.975-.325-.975-.65-1.3-1.95 0-.325 0-.975-.325-1.625.975-.325 1.3-.975 1.625-1.3l.325-.975-.65-.325c-.975-.325-1.625-.975-2.275-1.625.325-.325.65-.65.975-1.3h.975c.975 0 1.95-.65 1.95-.975v-.65l-.65-.65z" fill="#fff"/><path d="M447.2 51.125V43.65c0-.65-.325-1.3-.325-1.95h5.85c.325.65 1.3.975 2.275.975.975 0 1.95-.65 2.6-1.3h5.85c-.325.65-.325 1.3-.325 1.95V50.8l-15.925.325zM455 61.2c-.65-.65-1.3-.975-3.575-.975-2.6 0-4.225-1.625-4.225-3.9V51.45h15.925v4.875c0 2.6-1.625 3.9-4.225 3.9-2.6 0-2.925.325-3.9.975z" fill="#FAE420"/><path d="M448.175 62.175V63.8l-1.3.65c.975.65 2.6.975 3.9 1.3l.65-2.275c-1.625-.65-2.6-.975-3.25-1.3zm6.825 1.95c-1.625 0-2.925 0-3.25-.325l-.65 2.6c1.3.325 2.6.65 4.225.65 1.3 0 2.925-.325 4.225-.65l-1.3-2.6c-.325.325-1.625.325-3.25.325zm7.15-1.95c-.975.325-1.95.65-3.575.975l.65 2.275c1.625-.325 2.925-.975 3.9-1.3l-1.3-.65.325-1.3zm-16.9-24.05c2.275-.975 7.15-3.575 3.575-6.175-.325-.325-.975-.65-1.3-.975-.65.325.325 1.3.325 1.95h-1.3c-1.625 0-3.575-.975-2.6-2.925-.65 0-.65.65-.975 1.3-.325-.325-1.3-.975-1.95-.975.65 1.625 2.6 2.925 4.225 3.25-1.625.975-4.55 1.625-6.175-.325-.975 2.275.65 2.925 1.95 4.225-5.525 2.6-4.875 5.2-8.45 7.475.65.325 2.6 0 2.925 0-.975.975-1.3 1.3-1.625 1.95 0 .325-.325.975-.325 1.95-.325.975-.65 1.95-1.625 2.6.325.65 1.3 0 1.625 0 0 0-.325.975-.65 1.625 1.95 0 .975-4.225 2.925-3.25.65.325.65.975.325 1.3-1.3 2.6 1.625 4.875 1.3 7.15.65 0 1.3 0 1.95-.975.325.325.65.975.65 1.625l.65-.975c.325 1.625 1.95 2.925 3.9 3.25-.975-1.625.325-3.575-2.275-5.85.325-.325.975-.65 1.3-.975-2.6.325-5.525-1.625-4.225-2.925.975-.65 1.3.975 2.6.65l-.325-.65s.325-.325.65-.325c-.65 0-1.3-.325-1.3-.325l.325-.65c-3.25 0-3.575-2.6-1.95-2.6.65 0 1.625.975 3.575.975-.325-.65-.65-1.3-.65-1.625.65 0 .975 0 1.625-.325-.975 0-1.3-.325-1.95-.975l.975-.325c-1.3-.65-1.3-1.95-1.3-3.25.325.325 1.3 1.3 2.275.975.325 0 .325-.325.325-.325-1.3-.65-2.275-2.925.975-4.55zm-2.275.325c-1.95 1.95-.975 2.925-.65 3.25-.65 0-1.625-.975-1.625-1.625l-.65.65c-.325.65-.65 1.3-.975 1.625-.65 1.625.325 3.25 1.95 3.9-1.625 0-2.6-1.625-2.6-2.925-.975 1.625-1.3 3.25-1.3 4.55v1.3c.325.65.975.975 2.275 1.3-.975 0-1.625 0-2.275-.65.65 3.25 4.225 6.175 5.85 8.45-1.3-1.625-4.225-4.55-5.2-6.5 0 .65 0 2.6.975 3.9-1.3-1.3-1.3-3.25-1.3-4.55-.325-.975-.65-1.625-.65-2.925 0-.975 0-1.95.325-2.6-.975 1.3-2.275 1.625-2.925 3.575 0-2.275 1.95-2.275 3.25-5.2.65-1.3 1.3-2.275 2.275-3.575-1.3.325-1.95.65-3.25 1.95.975-1.95 5.85-4.225 8.125-6.5-.65 0-3.575 0-4.55-.65 1.95.65 6.825 0 8.45-1.3-1.3 1.625-3.9 1.95-7.15 5.2.65 0 .975-.325 1.625-.65zm33.8 10.4c-.325-1.3-.325-1.625-.65-2.275-.325-.65-.65-.975-1.3-1.95.325 0 2.275.325 2.925.325-3.575-2.275-2.925-5.2-8.45-7.8 1.625-.975 2.925-1.95 1.95-4.225-1.95 2.275-4.875 1.625-6.5.65 1.625-.325 3.575-1.625 3.9-3.25-.65 0-1.3.65-1.95.975-.325-.65-.325-1.3-.975-1.3.975 1.95-.975 2.925-2.6 2.925h-1.3c.325-.325.975-1.3.325-1.625 0 0-.65.325-.975.65-3.25 2.6 1.625 4.875 3.575 6.175 3.25 1.625 2.275 3.9.975 4.225 0 .325 0 .325.325.325.975.325 1.95-.325 2.6-.65 0 1.3 0 2.6-1.3 3.25l.975.325c-.975.65-.975.975-1.95.975.325.325.975.325 1.625.325 0 .325-.325.975-.65 1.3 1.95.325 2.925-.975 3.575-.975 1.3 0 1.3 2.6-1.95 2.6l.325.65s-.65.325-1.3.325c0 .325.325.65.325.65l-.325.65c1.3.325 1.625-1.3 2.6-.65 1.3.975-1.625 3.25-4.55 2.925.325.325.975.65 1.3.975-2.275 2.275-1.3 4.225-2.275 5.85 1.95 0 3.575-1.625 3.9-3.25l.65.975c.325-.65.65-1.3.65-1.625.325.975 1.3.975 1.95.975 0-2.275 2.6-4.55 1.3-7.15-.325-.65 0-.975.325-1.3 1.95-.975.975 2.925 2.925 3.25 0-.65-.325-1.625-.325-1.625.325 0 1.3.65 1.95 0-1.3-.65-1.625-1.625-1.625-2.6zM473.2 45.6c0 .65.325 1.625.325 2.6 0 .975-.325 1.95-.65 2.925 0 1.3 0 3.25-1.3 4.55.975-1.3.975-2.925.975-3.9-.975 1.95-3.9 4.875-5.525 6.825 1.3-2.275 4.875-5.2 5.85-8.45-.65.65-.975.65-2.275.65 1.3 0 1.95-.325 2.275-1.3v-1.3c0-1.3-.325-2.925-1.3-4.55 0 .975-.975 2.6-2.6 2.925 1.625-.65 2.6-2.275 1.95-3.9-.325-.65-.65-.975-1.3-1.625-.325-.325-.325-.65-.65-.65.325.325-.65 1.3-1.3 1.3.325-.325.975-1.625-.65-3.25.65.325.975.65 1.3.975-3.25-3.575-5.85-3.575-7.15-5.2 2.275.975 6.825 1.625 8.775.975-1.3.65-3.9.65-4.55.65 2.275 2.275 7.15 4.55 8.125 6.5-1.3-1.3-1.95-1.625-2.925-1.95.65 1.3 1.3 2.275 1.95 3.575 1.3 2.925 3.25 2.925 3.25 5.2-.65-1.625-1.95-2.275-2.6-3.575z" fill="#fff"/><path d="M457.6 41.7c-.65.65-1.3.975-2.6.975h-.65c0 .325.325.65.65.975 0 .975.325 1.625 1.3 1.95 0 .325.325.65.975.975l-.975.65c-.325.325-.65.325-.975.325l-2.925-.325c0-.325-.325-.65-.975-.65l.975-3.25-.65-1.3-1.3.975v3.25h-.65c-.65-.325-.975.975-.325.975h.325v.325s-.325.325 0 .325c0 0-.325.325 0 .325 0 .325-.325.65.325.975.325 0 .65-.325.65-.65l4.55 1.3c.65.325.975 0 1.625-.325l1.3-.65c0 .65 0 1.3.65 1.625v.975h4.225v-7.8c0-.65.325-1.3.325-1.95h-5.85zm-6.825 12.35c.325.325.325.325.325 0h.325s.975.325.975-.325c0 .65-.65 1.625 0 2.275l.65.975h-1.625c-.325 0-.325 0-.325.325l-.65.65v.65l.325.325.325-.325v-.325l.325-.65c0-.325.325-.325.325-.325l1.3.325h.325c0-.325.325-.325.65-.325.65 0 2.275.325 2.925-.325.65.975 1.95.975 1.95 1.3l-.325 1.625h.325l.65-1.95v-.65l-.325-.325c-.325-.325-.325-.975-.65-1.625.325-.325.65-.325.65-.325.65 0 .65.975 1.3 1.625 0-.325 0-.65-.325-.975 0 0 .65.325.65.65s0 .325.325.65c0 0 .325 0 .65-.325 0 0-.325-.65-.65-.975-.65-.325-.975-.975-1.95-.975-.325 0-.65 0-.65.325-.975-.65-1.625 0-1.95 0H455c-.325 0-.65-.325-.65-.325 0-1.625-1.3-1.95-1.625-1.95v-.325h-.65l-.975-.325.65.65-.975 1.3z" fill="#fff"/><path d="M449.8 56.325c-.325.325-.325.325 0 .65v.325l.325-.325v-.65l.65-.325h.325l1.3.325s-.325-.325-.325-.65h-1.3l-.975.65zm7.475 3.25h.325l.65-1.625c-.325 0-.65-.325-.65-.325.325 0 .325.325.325.325l-.65 1.625zm.325-23.725l.65-4.55-3.25.975v4.875l2.6-1.3zm-1.95-2.925l2.275-.975s-.325.325-.975.65c-.325.325-1.3.65-1.3.65v-.325zm0 .975l1.95-.65-.65.65c-.325.325-1.3.65-1.3.65v-.65zm0 1.3l1.625-.65s0 .325-.65.65l-.975.325V35.2zm-3.575 4.875h.65v.325c0 .325.325.65.65.975.325.65.975.65 1.625.65 1.625 0 2.275-.975 2.275-1.625h.65c.65-.975 1.3-1.95 2.275-2.275l-2.275-1.625L455 38.125l-2.925-1.625-2.275 1.625c.975 0 1.625.975 2.275 1.95z" fill="#fff"/><path d="M454.675 37.15v-4.875l-2.925-.975.975 4.875 1.95.975zm-.325-1.625l-1.3-.65c-.325 0-.325-.325-.325-.325l1.625.65v.325zm0-2.6v.65l-1.3-.65c-.325-.65-.975-.975-.975-.975l2.275.975zm0 .975v.65l-1.3-.65-.65-.65 1.95.65zm.65-4.875c-1.625 0-3.25.65-3.25 1.3l3.25 1.3 3.25-1.3c0-.65-1.3-1.3-3.25-1.3zm0-1.95c1.3 0 2.6.325 3.575.975 0-.325.325-.975.65-1.3l-.975.325-.65-1.3-1.3.65-1.3-1.3-1.3 1.3-1.3-.65-.65 1.3h-.65c.325.325.325.65.65 1.3.65-.65 1.95-1.3 3.25-1.3zM477.1 37.8c.325 0 .65-.325 1.3-.65-.975-.325-2.925-.975-4.55-.65-.65 0-.975.325-.65.325.975.65 1.95 1.95 2.925 3.575.65-.975.325-1.95.325-2.275 1.3.975 1.625 1.3 2.275.975-.325 0-.975-.65-1.625-1.3zm-43.225 2.925c.65-1.625 1.95-2.925 2.925-3.575.325 0 0-.325-.65-.325-1.625-.325-3.575.325-4.55.65.65.325.975.325 1.3.65-.65.325-1.3.975-1.625 1.3.65.325.975 0 2.6-.975-.325.325-.65 1.3 0 2.275z" fill="#fff"/><path d="M443.625 55.675c.65-.65 1.3-.65 1.3-1.95-.975.325-3.9.325-4.875-1.3-.325-.325 0-.65.325-.325.65.975 2.275.65 2.925.325 0-.325-.325-.65-.65-.975.325 0 .65-.325.975-.975-.325 0-1.625-.325-1.625-.325.325-.325.325-.325.325-.975-1.3.325-2.6 0-2.925-.65-.325-.325 0-.975.325-.65.65.65 3.575 1.3 4.55.325-.325 0-.975-.325-.975-.65.975 0 1.95-.65 1.95-1.3-.65 0-1.625 0-1.95-.325l.975-.975c-1.95 0-2.275-1.625-2.275-1.625 1.3.65 3.25.325 2.925-1.3-.975 0-1.95-1.625.65-3.25 2.6-1.3 5.2-2.925 5.2-5.2-.325-1.625-2.6-2.6-2.925-3.25-1.3.325-1.3.975-.975 1.95 0 0-2.275.325-2.6-1.3 0-.65.325-1.3.975-1.625-.325 0-1.95-.65-2.6.975-.975-.65-1.95-.65-2.6 0 .975.65 1.95 2.925 3.575 3.575-1.3.65-3.25.325-4.55-1.625-.975 1.625-1.625 3.25.65 5.2C435.5 39.425 435.5 43 431.6 44.95c.325.975 1.3.975 2.275.975-1.625 1.95-.325 4.225-2.925 5.2.325.975.65 1.625 1.625 1.3 0 .325-.325.325-.65.975 1.3.975 3.25.325 3.575-2.6 0-.65.65-.325.65.325-1.625 3.25 2.6 5.85.975 8.45 1.3 0 2.275 0 2.925-.65.325.65.325.975.325 1.625.65 0 .975-.65.975-.975.325 1.3 1.95 2.925 4.875 2.925-1.95-2.6-.325-4.55-2.6-6.825zm-2.6 2.6l-.65.975c-.325-.65-.65-1.3-.65-1.625-.325.975-1.3.975-1.95.975 0-2.275-2.6-4.55-1.3-7.15.325-.65 0-.975-.325-1.3-1.95-.975-.975 2.925-2.925 3.25.325-.975.325-1.95.325-1.95-.325 0-1.3.65-1.625 0 .975-.65 1.3-1.625 1.625-2.275.325-1.3.325-1.625.65-2.275 0-.65.325-.975 1.3-1.95-.325 0-2.275.325-2.925 0 3.575-2.275 2.925-4.875 8.45-7.475-1.3-1.3-2.925-1.95-1.95-4.225 1.625 1.95 4.55 1.3 6.175.325-1.625-.325-3.575-1.625-4.225-3.25.65 0 1.3.65 1.625.975.325-.65.325-1.3.975-1.3-.65 1.95 1.3 2.925 2.925 2.925h1.3c0-.325-.65-1.625-.325-1.95.325.325.975.65 1.3.975 3.25 2.6-1.625 4.875-3.575 6.175-3.25 1.625-2.275 3.9-.975 4.225 0 .325 0 .325-.325.325-.975.65-1.95-.325-2.6-.65 0 1.3 0 2.6 1.3 3.25l-.975.325c.975.65.975.975 1.95.975-.325.325-.65.325-1.3.325 0 .325.325.975.65 1.3-2.275.325-2.925-.975-3.575-.975-1.3 0-1.3 2.6 1.95 2.6l-.325.65s.65.325 1.3.325l-.65.65.325.65c-1.3.325-1.625-1.3-2.6-.65-1.3.975 1.625 3.25 4.55 2.925-.325.325-.975.65-1.3.975 2.6 2.275 1.3 4.55 2.275 5.85-1.95 0-3.575-1.625-3.9-2.925zm-3.575-8.125c.65.65.975.65 2.275.65-1.3 0-1.95-.325-2.275-1.3v-1.3c0-1.3.325-2.925 1.3-4.55 0 .975.975 2.6 2.6 2.925-1.95-.975-2.925-2.6-2.275-4.225.325-.65.65-.975 1.3-1.625.325-.325.325-.65.65-.65-.325.65.65 1.625 1.3 1.625-.325-.325-1.3-1.3.65-3.25-.65 0-.975.325-1.625.65 3.25-3.575 5.85-3.575 7.15-5.2-1.625 1.3-6.5 1.95-8.45 1.3 1.3.65 3.9.65 4.55.65-2.275 2.275-7.15 4.55-8.125 6.5 1.3-1.3 1.95-1.625 2.925-1.95-.65 1.3-1.3 2.275-1.95 3.575-1.3 2.925-2.925 2.925-3.25 5.2.65-1.95 1.95-2.275 2.6-3.575 0 .65-.325 1.625-.325 2.6 0 .975.325 1.95.65 2.925 0 1.3 0 3.25 1.3 4.55-.65-1.3-.65-2.925-.65-3.9.975 1.95 3.9 4.875 5.525 6.825-1.625-2.6-5.2-5.2-5.85-8.45zm33.15-9.75c.975.325 1.95.65 2.925 1.95-.975-1.95-5.85-4.225-8.125-6.5.65 0 3.575.325 4.55-.65-1.95.65-6.5 0-8.45-1.3 1.3 1.625 3.9 1.95 7.15 5.2-.325-.325-.975-.65-1.3-.975 1.625 1.95.975 2.925.65 3.25.65 0 1.625-.975 1.3-1.95.325.325.325.65.65.65.325.65.975 1.3 1.3 1.625.65 1.625-.325 3.25-1.95 3.9a3.007 3.007 0 002.6-2.925c.975 1.625 1.3 3.25 1.3 4.55v1.3c-.325.65-.975.975-2.275 1.3.975 0 1.625 0 2.275-.65-.65 3.25-4.225 6.175-5.85 8.45 1.3-1.95 4.55-4.55 5.525-6.825 0 .65 0 2.6-.975 3.9 1.3-1.3 1.3-3.25 1.3-4.55.325-.975.65-1.625.65-2.925 0-.975 0-1.95-.325-2.6.975 1.3 1.95 1.625 2.6 3.575 0-2.275-1.95-2.275-3.25-5.2-.975-.325-1.625-1.3-2.275-2.6zm5.525 5.2c.975 0 1.95 0 2.275-.975-3.9-1.95-3.9-5.525-8.125-7.475 2.275-1.625 1.625-3.575.65-5.2-1.3 1.95-3.25 2.275-4.55 1.625 1.625-.65 2.275-2.925 3.575-3.575-.65-.65-1.625-.65-2.6 0-.325-1.3-2.275-.65-2.6-.65.325.325.975.975.975 1.625-.325 1.3-2.6 1.3-2.6 1.3.325-.975.325-1.625-.65-1.95-.325.65-2.925 1.95-2.925 3.25-.325 2.275 2.6 3.9 5.2 5.2 2.6 1.625 1.625 3.25.65 3.25-.65 1.625 1.3 1.95 2.6 1.3 0 .325 0 1.625-1.95 1.625 0 .65.325.65.975.975-.325.325-1.3.325-1.95.325 0 .65.975 1.3 1.95 1.3 0 .325-.65.65-.975.65.975.975 3.9.325 4.55-.325.325-.325.65 0 .325.65-.325.325-1.95.975-2.925.65 0 .65 0 .975.325.975 0 0-1.3 0-1.625.325 0 .65.65.65.975.975-.325.325-.325.65-.65.975.65.325 1.95.65 2.925-.325.325-.325.65 0 .325.325-1.3 1.625-3.9 1.625-4.875.975 0 1.3.65 1.625 1.3 1.95-1.95 2.275-.65 4.225-1.95 6.175 2.6 0 4.225-1.3 4.875-2.925 0 .65.325.975.975.975 0-.65 0-.975.325-1.625.65.325 1.625.65 2.925.65-1.3-2.6 2.6-4.875.975-8.45-.325-.65.325-.975.65-.325.325 2.925 1.95 3.575 3.575 2.6-1.3.325-1.3.325-1.625 0 .975.325 1.3-.325 1.625-1.3-2.6-.975-1.3-3.25-2.925-5.525zm.325 5.85s.325.975.65 1.625c-1.95 0-.975-4.225-2.925-3.25-.65.325-.65.975-.325 1.3 1.3 2.6-1.625 4.875-1.3 7.15-.65 0-1.3 0-1.95-.975-.325.325-.65.975-.65 1.625l-.65-.975c-.325 1.625-1.95 2.925-3.9 3.25.975-1.625-.325-3.575 2.275-5.85-.325-.325-.975-.65-1.3-.975 2.925.325 5.85-1.95 4.55-2.925-.975-.65-1.3.65-2.6.65v-.65l-.325-.325c.65 0 1.3-.325 1.3-.325l-.325-.65c3.25 0 3.575-2.6 1.95-2.6-.65 0-1.625.975-3.575.975.325-.325.325-.65.65-1.3-.65 0-.975 0-1.625-.325.975 0 1.3-.325 1.95-.975l-.975-.325c1.3-.65 1.3-1.95 1.3-3.25-.65.325-1.625.975-2.6.65-.325 0-.325-.325-.325-.325 1.3-.65 2.275-2.925-.975-4.55-1.95-.975-6.825-3.575-3.575-6.175.325-.325.975-.65 1.3-.975.65.325-.325 1.3-.325 1.625h1.3c1.625 0 3.575-.975 2.6-2.925.65 0 .65.65.975 1.3.325-.325 1.3-.975 1.95-.975-.65 1.625-2.6 2.925-3.9 3.25 1.625.975 4.55 1.625 6.175-.325.975 1.95-.325 2.925-1.95 4.225 5.2 2.925 4.55 5.525 8.125 7.8-.325.325-2.6 0-2.6 0 .65.975 1.3 1.625 1.3 1.95.325.325.325.975.65 2.275.325.975.65 1.95 1.625 2.275-.65.65-1.625 0-1.95 0zm-26.65 6.175l.65-.65v-.65l.325-.325h.325l1.3.325h-1.3c-.325 0-.325 0-.65.325v.325l-.325.975c0 .325-.325.65 0 .975l.325.325-.65.975h.325l.325-.65s.65-.65.65-.975l-.325-.325v-.325h2.925c.325-.325.325-.325.65-.325h.65c.975 0 1.95 0 2.275-.325 0 .325.325.65.65.65v.325l-.65 1.95h1.3l.65-1.625s0-.325.325-.325l-1.3 1.625h.975l.65-1.95c0-.325 0-.65-.325-.65-.325-.325-.325-1.3-.65-1.625h.325c.325 0 .325.65.65.975.65.975 1.3 1.625 2.275.325l-.325-.325-.325-.325-1.3-1.3c-.325-.65-1.3-.65-1.625-.325-.975-.65-1.95 0-2.275 0h-1.95.325c0-1.625-.65-2.6-1.95-2.6 0 0 0-.325-.325-.325l-.325.325h-.325l-1.625-.65 1.3 1.3-.65.975v.975h1.3c0 .325 0 .65-.325.975h-1.3l-.975.65c-.325.325-.325.65-.325.975l.65.325zm8.45.325l-.65 1.625h-.325l.65-1.625c0-.325 0-.325-.325-.65.325.325.65.325.65.65zm-6.825-3.9c-.325.325-.325.325-.65 0v-.325l.975-.975-.65-.65.975.325.325-.325v.325c.325 0 1.625.65 1.625 1.95 0 0 .325.325.65.325h1.625c.325 0 .975-.65 1.95 0 .325 0 .65-.325.65-.325.975 0 1.3.65 1.95.975.325.325.65.975.65.975-.325.325-.325.325-.65.325s-.325-.325-.325-.65-.65-.65-.65-.65c0 .325.325.65.325.975-.65-.65-.975-1.625-1.3-1.625-.325 0-.325 0-.65.325.325.65.325 1.3.65 1.625l.325.325c.325 0 0 .325 0 .65l-.325 1.625.325-1.3c0-.65-1.3-.65-1.95-1.3-.65.65-2.275.65-2.925.325-.325 0-.65 0-.65.325h-1.95c-.325 0-.325 0-.325.325l-.65.325v.325c0 .325-.325.325-.325.325l-.325-.325v-.65l.325-.975s0-.325.325-.325h1.625l-.65-.975c-.325-.65.325-1.625 0-2.275.65 1.3 0 .975-.325.975zm-1.625 2.275l.65-.65s.325-.325.325 0h.975c0 .325.325.65.325.65l-1.3-.325h-.325l-.65.325v.65l-.325.325v-.325c0-.325 0-.65.325-.65zm3.25-21.125c.325 0 1.3.325 1.3.325V35.2l-1.625-.65s0 .325.325.65zm1.3-.65v-.65l-1.95-.65.65.65c.325.325 1.3.65 1.3.65zm0-1.3v-.325l-2.275-.975s.325.325.975.65c.325.325 1.3.65 1.3.65zm5.85 6.825h1.95c0-.325-.325-.65-.975-.65-.65 0-.975.325-.975.65zm-2.275-8.125l-2.275.975v.65l1.3-.65.975-.975zm-.325 2.6l-1.95.65v.65l1.3-.65c.65-.325.65-.65.65-.65zm0-1.3l-1.95.65v.65l1.3-.65c.65-.325.65-.65.65-.65zm-8.775 6.175c-.65 0-.975.325-.975.65h1.95c0-.325-.325-.65-.975-.65z" fill="#000"/><path d="M459.225 30.65c0-1.3-1.95-2.275-4.225-2.275-2.275 0-4.225.975-4.225 2.275v.325l.975 5.2-4.225 2.275c-.325.325-.975.975-.975 1.625h.65c0-.65.65-1.625 1.625-1.625s1.625.65 1.95 1.625v.325l.325.325h-5.85c.65.975.975 1.95.975 2.925v12.675c0 3.25 2.6 4.875 5.2 4.875 1.95 0 2.275 0 3.575.975 1.3-.975 1.625-.975 3.575-.975 2.6 0 5.2-1.625 5.2-4.875V43.65c0-.975.325-1.95.975-2.925h-6.175l.325-.325v-.325c.65-.975.975-1.3 1.95-1.625.975 0 1.625.65 1.625 1.625h.65c0-.65-.65-1.3-.975-1.625l-3.9-2.275.975-5.525zm-7.475.65l3.25.975v4.875l-2.6-1.3-.65-4.55zm.65 10.4c.325.65.975.975 1.95.975 0 .325.325.65.65.975 0 .975.325 1.625 1.3 1.95 0 .325.325.65.975.975l-.975.65c-.325.325-.65.325-.975.325l-2.925-.325c0-.325-.325-.65-.975-.65l.975-3.25-.65-1.3-1.3.975v3.25h-.65c-.65-.325-.975.975-.325.975h.325v.325s-.325.325 0 .325v.65c0 .325-.325.65.325.975.325 0 .65-.325.65-.65l4.55 1.3c.65.325.975 0 1.625-.325l1.3-.975c0 .65 0 1.3.65 1.625v.975h-11.7v-7.8c0-.65-.325-1.3-.325-1.95h5.525zm4.875 2.6c-.325.65-.325 1.3 0 1.625v.325c-.975 0-1.3-1.3-1.3-1.3v.325c-.325-.325-.65-.65-.65-1.3.325 0 .325.325.65.325v-.325c-.65-.325-.975-.65-1.3-1.3h1.3c.325.325.65.65.975.65 0 .325.325.65.325.975zm1.3 3.575s0 .325-.325.325l-.325.325c0-.65-.325-1.625-.65-1.95l.65-.65c-.325.975 0 1.625.65 1.95zm-2.275-.325l.325-.325c.325.325.975.975.65 1.95l-.325.325s-.325 0-.325.325c.325-.975 0-1.95-.325-2.275zm-.975.325h.325c.65.325.65 1.3.325 1.95h-.65c.325-.65.325-1.3 0-1.95zm-.975 0h.65c0 .325 0 1.3-.325 1.625h-.65c.325-.65.65-1.3.325-1.625zm-.975-.325h.65c0 .325 0 .975-.325 1.625l-.65-.325c.325-.325.325-.975.325-1.3zm-2.6 0c-.325 0-.325 0-.325-.325.65-.325.975 0 .975 0l.65.65c-.325 0-.325.325-.65.65-.65 0-.65-.65-.325-.975 0 0-.325-.325-.325 0zm-.65.975h.325c0 .325 0 .325-.325 0 0 .325 0 .325 0 0zm-.65-1.625v-.325c.325 0 .325.325.65.325h-.65zm.65 1.3h.65c-.325.325-.65.325-.65 0zm.65-.325c-.325 0-.65 0-.65-.325.325.325.65.325.65.325zm.325-3.25l-.325 1.95.325-3.25.65-.65.325.975-.975 3.25v-2.275c0-.325.325-.325 0 0zm0 2.275h.65v.325l-.65-.325zm.975.65h.65c0 .325 0 .975-.325 1.3h-.325v-1.3zm11.05 8.775c0 1.625-.65 2.6-1.95 3.25l.325-.975h-.325l-.65.975c-.65.325-1.3.325-1.95.325-2.275 0-2.6 0-3.575.975-.65-.65-1.3-.975-3.575-.975-.65 0-1.3 0-1.95-.325l.65-.975h-.325l-.65.975s-.325 0-.325-.325l.325-.65h-.325l-.325.975c-.975-.65-1.625-1.625-1.625-3.25V51.45H462.8l.325 4.875zm.325-14.625c-.325.65-.325 1.3-.325 1.95v7.475h-.975c-.325-.325-.65-1.625-.65-1.625-.325.325 0 1.3 0 1.625h-.975c-.325-.325-.65-1.625-.65-1.625-.325.325 0 1.3 0 1.625h-.65v-.975c-.325 0-.65-.325-.65-.65.325.325.325.325.65.325l.325-.325c-.975-.325-.975-1.3-.325-1.95-.65 0-1.3-.325-.975-1.3-.65-.325-.975-1.3-.325-1.625-.325-.325-.325-.975 0-1.625-.325 0-.975 0-1.3-.325l.975-.975h5.85zm-3.25-3.575c-.975 0-1.625 1.3-2.275 2.275h-.65c0 .65-.65 1.625-2.275 1.625-.65 0-1.3 0-1.625-.325-.325-.325-.325-.65-.65-.975V40.4h-.65c-.65-1.3-1.3-2.275-2.275-2.275l2.275-1.3 2.925 1.3 2.925-1.625 2.275 1.625zm-2.6-2.275l-2.275 1.3v-4.875l3.25-.975-.975 4.55zm-2.6-4.225l-3.25-1.3c.325-.65 1.625-1.3 3.25-1.3s3.25.65 3.25 1.3l-3.25 1.3zm7.475 14.625v-.325c-1.3 0-1.3-1.3-1.3-1.3-.325.975.65 1.625 1.3 1.625zm-1.3 2.6v-.325c-.975 0-1.625-1.625-1.625-1.625-.325 1.3.65 1.95 1.625 1.95zm.65-1.625c-1.3.325-1.625-1.3-1.625-1.3 0 .65.325 1.625.975 1.625-.325.975.65 1.625 1.625.975V48.2a.718.718 0 01-.975-.975zm-.65-3.9V43c-1.625-.325-1.3-1.3-1.3-1.3-.325.975.325 1.625 1.3 1.625z" fill="#000"/><path d="M451.425 58.925l-.65.975h.325l.65-.975h-.325zm.65 0l-.325.975h.325l.65-.975h-.65zm3.575 0l-.65.975h.325l.65-.975h-.325zm.65 0l-.65.975h.325l.65-.975h-.325zm-1.625 0l-.65.975h.325l.65-.975h-.325zm4.875.975h.325l.65-.975h-.325l-.65.975zm-6.5-.975l-.65.975h.325l.65-.975h-.325zm.975 0l-.65.975h.325l.65-.975h-.325zm-1.95-6.175s-.325.325 0 0 0 .325 0 0zM455 27.725c1.625 0 3.25.65 3.9.975 0 0 .325-1.3.975-2.6h-1.3l-.65-1.3-1.625.975-1.3-1.625-1.3 1.625-1.3-.975-.65 1.625h-1.3c.65.975.975 2.275.975 2.275.65-.325 1.95-.975 3.575-.975zm-3.25-.65l.65-1.3 1.3.65 1.3-1.3 1.3 1.3 1.3-.65.65 1.3h.65c0 .325-.325.65-.325.975-.975-.325-2.275-.975-3.575-.975-1.3 0-2.6.325-3.575.975 0-.325-.325-.975-.65-1.3l.975.325zm4.55-2.275c.325 0 .325 0 .325-.325s-.325-.65-.325-.65v.65c-.325.325 0 .325 0 .325zm2.275.975h.65v-.65h-.65v.65zM453.7 24.8c.325 0 .325-.325.325-.325 0-.325-.325-.65-.325-.65l-.325.65c0 .325 0 .325.325.325zm-2.275.975c.325 0 .325-.325 0-.65 0-.325-.65-.325-.65-.325v.65c.325.325.325.325.65.325zm26.975 12.35c.65-.325.975-.65.975-.975-1.3-.325-4.55-1.625-7.15-.325.975-.975 1.95-.975 1.95-2.6.325.325.975.325 1.625-.325-.325-.975-.975 0-.975-.325s.975 0 .975-.975c-.65-.325-.975.325-1.3.325 0 0 .65-.325 0-1.3-.975.65-.325.975-.65.975s0-.65-.975-.65c0 .975.975.975.65 1.3-.325.325-.325-.65-.975-.325 0 .65.65 1.3 1.3.975 0 1.625-1.625 1.3-2.6 2.925 2.275.975 3.25 2.925 4.55 4.225.325-.325 1.3-1.625 1.3-1.625 1.3.975 2.6 0 2.6 0-.65-.325-.65-.65-1.3-1.3zm-1.95.325c0 .325.325 1.625-.325 2.275-.65-1.625-1.95-2.925-2.925-3.575-.325 0 0-.325.65-.325 1.625-.325 3.575.325 4.55.65-.325.325-.65.325-1.3.65.65.325 1.3.975 1.625 1.3-.65.325-.975 0-2.275-.975zm-21.775 26.325h-.975v.325h.325l.65-.325c-.325.65-.975 1.3-.975 1.625 0 .325.325.325.325.325.325 0 .325 0 .325-.325 0-.975.325-1.3.325-1.625zm.65.325l.975-.325v-.325h-.975v.65c.325 0 .65.325.65.65 0 0 0 .325-.325.325v-.325s0-.325-.325 0c0 0-.325 0-.325.325s.325.325.65.325.65-.325.65-.65-.65-.65-.975-.65zm1.625-.65c-.325 0-.65.325-.65.65s.65.65.975.325v.65s0-.325-.325 0v.325c0 .325.325.325.325.325.65 0 .65-.325.65-.65 0-.975-.325-1.625-.975-1.625zm.325.975c-.325 0-.325-.325-.325-.65.325 0 .325.65.325.65z" fill="#000"/><path d="M453.05 64.45l-.65.65h.325l-.325.975h.975l-.325-1.625zm9.425-.975v-1.95c-1.3.65-3.25 1.3-5.525 1.3v.65h.65c-.975 0-1.95.325-2.6.325-.65 0-1.625 0-2.6-.325h.65v-.65c-2.275-.325-4.225-.65-5.525-1.3v1.95l-1.95.65c1.3.65 2.925 1.3 4.875 1.95l-.325.65c.975.325 2.925.65 4.55.65 1.95 0 3.575-.325 4.55-.65l-.325-.65c1.95-.65 3.575-.975 4.875-1.95l-1.3-.65zm-15.6.65l1.3-.65V61.85c.975.325 1.95.65 3.575.975l-.65 2.275c-1.95 0-3.25-.325-4.225-.975zM455 67.05c-1.625 0-2.925-.325-4.225-.65l.975-2.6c.65 0 1.95.325 3.25.325 1.625 0 2.925 0 3.25-.325l.65 2.6c-.975.325-2.275.65-3.9.65zm4.225-1.625l-.65-2.275c1.625-.325 2.6-.65 3.575-.975V63.8l1.3.65c-1.3.325-2.6.65-4.225.975zM432.9 39.75s.65 1.3 1.3 1.625c1.3-1.3 2.275-3.25 4.55-4.225-1.3-1.95-2.6-1.625-2.6-2.925.65.325 1.3-.325 1.3-.975-.975-.65-.975.325-1.3 0 0 0 .65-.325.65-1.3-.975 0-.65.65-.975.65 0 0 .325-.65-.325-.975-.65.975 0 .975 0 1.3 0 0-.325-.65-1.3-.325.325.975 1.3.65 1.3.975 0 .325-.65-.325-.975.325.325.65.975.65 1.3.325 0 1.3.975 1.625 1.95 2.6-2.6-1.3-5.85 0-7.15.325.325.325.65.975.975.975-.65.65-.65.975-1.3 1.625 0 0 .975.975 2.6 0zm-1.625-.325L432.9 37.8c-.65 0-.975 0-1.3-.325.975-.325 2.925-.975 4.55-.65.65 0 .975.325.65.325-.975.65-1.95 1.95-2.925 3.575-.65-.975-.325-1.95 0-2.275-1.625.975-1.95 1.3-2.6.975zm22.75-.65v.65c.325-.325.975-.325.975-.325v1.3s0 .65-.325.975h1.3c-.65-.325-.65-.975-.65-.975v-1.3s.65 0 .65.325v-.65h-1.95z" fill="#000"/><circle cx="557" cy="47" r="47" fill="#F9F9F9"/><path d="M562.531 42.327a8.23 8.23 0 002.479-5.881v-1.613c0-1.012-.849-1.833-1.896-1.833-1.05 0-1.898.82-1.898 1.833v1.613a4.628 4.628 0 01-1.392 3.311 4.708 4.708 0 01-3.319 1.355 4.706 4.706 0 01-3.319-1.355 4.623 4.623 0 01-1.391-3.311v-1.613c0-1.012-.85-1.833-1.897-1.833-1.048 0-1.898.82-1.898 1.833v1.613a8.234 8.234 0 002.479 5.881 8.544 8.544 0 004.128 2.244v3.858a8.54 8.54 0 00-4.128 2.245A8.232 8.232 0 00548 56.556v1.611c0 1.012.85 1.833 1.898 1.833 1.047 0 1.897-.82 1.897-1.833v-1.611c0-1.305.533-2.466 1.391-3.313a4.708 4.708 0 013.319-1.356 4.71 4.71 0 013.319 1.356 4.628 4.628 0 011.392 3.313v1.611c0 1.012.848 1.833 1.898 1.833 1.047 0 1.896-.82 1.896-1.833v-1.611a8.228 8.228 0 00-2.479-5.882 8.54 8.54 0 00-4.128-2.245v-3.858a8.544 8.544 0 004.128-2.244" fill="#03A9F4"/><path d="M556.505 59.614c1.814 0 3.285-1.42 3.285-3.174s-1.471-3.175-3.285-3.175c-1.815 0-3.285 1.42-3.285 3.175 0 1.754 1.47 3.174 3.285 3.174" fill="#03A9F4"/><defs><linearGradient id="paint0_linear" x1="128.731" y1="61.116" x2="169.27" y2="61.116" gradientUnits="userSpaceOnUse"><stop stop-color="#D79041"/><stop offset=".1" stop-color="#FBAF33"/><stop offset=".3" stop-color="#FFC132"/><stop offset=".447" stop-color="#FFD72E"/><stop offset=".65" stop-color="#FFF229"/><stop offset=".735" stop-color="#FBE82C"/><stop offset=".881" stop-color="#F0CC33"/><stop offset="1" stop-color="#E6B03B"/></linearGradient><linearGradient id="paint1_linear" x1="128.904" y1="41.733" x2="169.096" y2="41.733" gradientUnits="userSpaceOnUse"><stop stop-color="#D79041"/><stop offset=".1" stop-color="#FBAF33"/><stop offset=".3" stop-color="#FFC132"/><stop offset=".447" stop-color="#FFD72E"/><stop offset=".65" stop-color="#FFF229"/><stop offset=".735" stop-color="#FBE82C"/><stop offset=".881" stop-color="#F0CC33"/><stop offset="1" stop-color="#E6B03B"/></linearGradient></defs></svg>